<svg width="8" height="8" viewBox="0 0 8 8" fill="none" xmlns="http://www.w3.org/2000/svg">
<path d="M2.78627 3.50127L4 2.2875L5.21437 3.50187L5.92063 2.79563L4 0.875L2.08 2.795L2.78627 3.50127ZM0.875 4L1.58125 3.29373L2.2875 4L1.58125 4.70627L0.875 4ZM2.78627 4.49877L4 5.7125L5.21437 4.49813L5.92063 5.20407L4 7.125L2.08 5.205L2.07906 5.20407L2.78627 4.49877ZM5.7125 4L6.41877 3.29373L7.125 4L6.41877 4.70627L5.7125 4ZM4.71627 3.99937H4.71687V4L4 4.71687L3.28407 4.00123L3.2828 4L3.28407 3.99907L3.40937 3.87343L3.4703 3.8125L4 3.28313L4.71657 3.9997L4.71627 3.99937Z" fill="white"/>
</svg>
