<svg width="26" height="27" viewBox="0 0 26 27" fill="none" xmlns="http://www.w3.org/2000/svg">
<rect width="26" height="27" fill="#E5E5E5"/>
<g filter="url(#filter0_d_221_1450)">
<g clip-path="url(#clip0_221_1450)">
<rect x="-27" y="-795" width="390" height="844" rx="15" fill="#F2F6FA"/>
<g filter="url(#filter1_d_221_1450)">
<rect y="-105.635" width="163.705" height="270.635" rx="10" fill="#FEFEFF"/>
<path d="M6.525 8.00043L10.35 -3.09957H13.005L16.845 8.00043H14.715L13.92 5.66043H9.45L8.655 8.00043H6.525ZM10.035 3.89043H13.335L11.685 -1.01457L10.035 3.89043ZM18.4472 8.00043V-3.09957H23.2922C24.0022 -3.09957 24.6072 -2.97457 25.1072 -2.72457C25.6072 -2.47457 25.9872 -2.13957 26.2472 -1.71957C26.5172 -1.29957 26.6522 -0.839573 26.6522 -0.339574C26.6522 0.170427 26.5572 0.590427 26.3672 0.920427C26.1872 1.25043 25.9672 1.51043 25.7072 1.70043C25.4572 1.88043 25.2272 2.00543 25.0172 2.07543V2.18043C25.2772 2.25043 25.5672 2.38543 25.8872 2.58543C26.2172 2.78543 26.5022 3.07043 26.7422 3.44043C26.9822 3.80043 27.1022 4.27043 27.1022 4.85043C27.1022 5.37043 26.9772 5.87543 26.7272 6.36543C26.4772 6.84543 26.0822 7.24043 25.5422 7.55043C25.0022 7.85043 24.2872 8.00043 23.3972 8.00043H18.4472ZM23.0222 -1.37457H20.4872V1.52043H23.0222C23.6022 1.52043 24.0222 1.37543 24.2822 1.08543C24.5422 0.795427 24.6722 0.455427 24.6722 0.0654266C24.6722 -0.314573 24.5422 -0.649573 24.2822 -0.939573C24.0222 -1.22957 23.6022 -1.37457 23.0222 -1.37457ZM23.1722 3.08043H20.4872V6.27543H23.1722C23.8322 6.27543 24.3122 6.11543 24.6122 5.79543C24.9122 5.47543 25.0622 5.10043 25.0622 4.67043C25.0622 4.25043 24.9122 3.88043 24.6122 3.56043C24.3122 3.24043 23.8322 3.08043 23.1722 3.08043ZM33.755 8.15043C32.855 8.15043 32.065 7.99043 31.385 7.67043C30.715 7.34043 30.15 6.90543 29.69 6.36543C29.24 5.81543 28.9 5.20543 28.67 4.53543C28.45 3.85543 28.34 3.16043 28.34 2.45043C28.34 1.74043 28.45 1.04543 28.67 0.365427C28.9 -0.314573 29.24 -0.924573 29.69 -1.46457C30.15 -2.01457 30.715 -2.44957 31.385 -2.76957C32.065 -3.08957 32.855 -3.24957 33.755 -3.24957C34.505 -3.24957 35.15 -3.15457 35.69 -2.96457C36.23 -2.77457 36.68 -2.52957 37.04 -2.22957C37.4 -1.92957 37.685 -1.60957 37.895 -1.26957C38.115 -0.929573 38.28 -0.609573 38.39 -0.309573C38.5 -0.00957334 38.57 0.235427 38.6 0.425427C38.64 0.615427 38.66 0.710427 38.66 0.710427H36.635C36.635 0.710427 36.615 0.640427 36.575 0.500427C36.545 0.360427 36.475 0.185427 36.365 -0.0245731C36.265 -0.244573 36.11 -0.459573 35.9 -0.669573C35.69 -0.879573 35.41 -1.05457 35.06 -1.19457C34.72 -1.33457 34.295 -1.40457 33.785 -1.40457C33.225 -1.40457 32.735 -1.29457 32.315 -1.07457C31.895 -0.864573 31.545 -0.574574 31.265 -0.204574C30.985 0.165426 30.775 0.580427 30.635 1.04043C30.505 1.50043 30.44 1.97043 30.44 2.45043C30.44 2.93043 30.505 3.40043 30.635 3.86043C30.775 4.31043 30.985 4.72043 31.265 5.09043C31.545 5.46043 31.895 5.75543 32.315 5.97543C32.735 6.19543 33.225 6.30543 33.785 6.30543C34.295 6.30543 34.72 6.23543 35.06 6.09543C35.41 5.94543 35.69 5.76543 35.9 5.55543C36.11 5.34543 36.265 5.13543 36.365 4.92543C36.475 4.71543 36.545 4.54043 36.575 4.40043C36.615 4.25043 36.635 4.17543 36.635 4.17543H38.66C38.66 4.17543 38.64 4.27043 38.6 4.46043C38.57 4.65043 38.5 4.90043 38.39 5.21043C38.28 5.51043 38.115 5.83043 37.895 6.17043C37.685 6.50043 37.4 6.82043 37.04 7.13043C36.68 7.43043 36.23 7.67543 35.69 7.86543C35.15 8.05543 34.505 8.15043 33.755 8.15043ZM40.4198 8.00043V-3.09957H44.4098C45.3098 -3.09957 46.0948 -2.93957 46.7648 -2.61957C47.4448 -2.30957 48.0098 -1.88957 48.4598 -1.35957C48.9098 -0.829573 49.2448 -0.234573 49.4648 0.425427C49.6948 1.08543 49.8098 1.76043 49.8098 2.45043C49.8098 3.14043 49.6948 3.81543 49.4648 4.47543C49.2448 5.13543 48.9098 5.73043 48.4598 6.26043C48.0098 6.79043 47.4448 7.21543 46.7648 7.53543C46.0948 7.84543 45.3098 8.00043 44.4098 8.00043H40.4198ZM44.3198 -1.31457H42.4598V6.20043H44.3198C45.0998 6.20043 45.7448 6.02043 46.2548 5.66043C46.7648 5.29043 47.1448 4.82043 47.3948 4.25043C47.6448 3.67043 47.7698 3.06543 47.7698 2.43543C47.7698 1.81543 47.6448 1.22043 47.3948 0.650427C47.1448 0.0704268 46.7648 -0.399573 46.2548 -0.759574C45.7448 -1.12957 45.0998 -1.31457 44.3198 -1.31457ZM56.6673 8.15043C55.7373 8.15043 54.9273 7.99043 54.2373 7.67043C53.5473 7.35043 52.9723 6.92043 52.5123 6.38043C52.0623 5.83043 51.7223 5.22043 51.4923 4.55043C51.2723 3.87043 51.1623 3.17543 51.1623 2.46543C51.1623 1.75543 51.2723 1.06043 51.4923 0.380427C51.7223 -0.299573 52.0673 -0.909573 52.5273 -1.44957C52.9873 -1.99957 53.5673 -2.43457 54.2673 -2.75457C54.9673 -3.08457 55.7823 -3.24957 56.7123 -3.24957C57.4423 -3.24957 58.0673 -3.15457 58.5873 -2.96457C59.1173 -2.78457 59.5573 -2.54957 59.9073 -2.25957C60.2673 -1.96957 60.5523 -1.65957 60.7623 -1.32957C60.9823 -1.00957 61.1473 -0.704573 61.2573 -0.414573C61.3673 -0.124573 61.4423 0.115427 61.4823 0.305427C61.5223 0.485427 61.5423 0.575427 61.5423 0.575427H59.5023C59.5023 0.575427 59.4823 0.510427 59.4423 0.380427C59.4123 0.240427 59.3423 0.0704268 59.2323 -0.129574C59.1223 -0.329573 58.9623 -0.529573 58.7523 -0.729573C58.5523 -0.929573 58.2873 -1.09457 57.9573 -1.22457C57.6273 -1.36457 57.2173 -1.43457 56.7273 -1.43457C56.1373 -1.43457 55.6223 -1.32457 55.1823 -1.10457C54.7523 -0.884573 54.3923 -0.589573 54.1023 -0.219573C53.8123 0.150427 53.5973 0.565427 53.4573 1.02543C53.3173 1.48543 53.2473 1.95543 53.2473 2.43543C53.2473 3.08543 53.3773 3.71043 53.6373 4.31043C53.8973 4.91043 54.2823 5.40043 54.7923 5.78043C55.3123 6.16043 55.9523 6.35043 56.7123 6.35043C57.5923 6.35043 58.2873 6.11043 58.7973 5.63043C59.3173 5.15043 59.6123 4.51043 59.6823 3.71043H56.6523V2.09043H61.6623V2.91543C61.6623 4.06543 61.4423 5.03043 61.0023 5.81043C60.5623 6.58043 59.9623 7.16543 59.2023 7.56543C58.4523 7.95543 57.6073 8.15043 56.6673 8.15043Z" fill="#6E00FF"/>
<path d="M8.664 25.0804C8.312 25.0804 8.008 25.0351 7.752 24.9444C7.50133 24.8538 7.29333 24.7391 7.128 24.6004C6.96267 24.4564 6.82933 24.3044 6.728 24.1444C6.632 23.9844 6.56 23.8351 6.512 23.6964C6.464 23.5524 6.432 23.4351 6.416 23.3444C6.4 23.2538 6.392 23.2084 6.392 23.2084H7.344C7.344 23.2084 7.352 23.2458 7.368 23.3204C7.384 23.3898 7.416 23.4778 7.464 23.5844C7.512 23.6858 7.584 23.7898 7.68 23.8964C7.78133 23.9978 7.912 24.0858 8.072 24.1604C8.23733 24.2298 8.44533 24.2644 8.696 24.2644C9.06933 24.2644 9.36 24.1764 9.568 24.0004C9.78133 23.8244 9.888 23.6004 9.888 23.3284C9.888 23.0938 9.808 22.9124 9.648 22.7844C9.49333 22.6511 9.264 22.5498 8.96 22.4804L8.176 22.2964C7.88267 22.2324 7.61067 22.1391 7.36 22.0164C7.11467 21.8884 6.91467 21.7178 6.76 21.5044C6.61067 21.2911 6.536 21.0218 6.536 20.6964C6.536 20.3444 6.62133 20.0431 6.792 19.7924C6.968 19.5364 7.208 19.3418 7.512 19.2084C7.82133 19.0698 8.17333 19.0004 8.568 19.0004C8.952 19.0004 9.26933 19.0591 9.52 19.1764C9.77067 19.2884 9.97067 19.4271 10.12 19.5924C10.2693 19.7578 10.3787 19.9258 10.448 20.0964C10.5227 20.2618 10.5707 20.4031 10.592 20.5204C10.6133 20.6324 10.624 20.6884 10.624 20.6884H9.712C9.712 20.6884 9.70133 20.6458 9.68 20.5604C9.65867 20.4698 9.608 20.3658 9.528 20.2484C9.45333 20.1311 9.336 20.0298 9.176 19.9444C9.02133 19.8538 8.81067 19.8084 8.544 19.8084C8.176 19.8084 7.90133 19.8938 7.72 20.0644C7.53867 20.2351 7.448 20.4244 7.448 20.6324C7.448 20.8351 7.52533 20.9978 7.68 21.1204C7.83467 21.2378 8.04267 21.3258 8.304 21.3844L9.144 21.5844C9.45333 21.6538 9.73333 21.7578 9.984 21.8964C10.24 22.0351 10.4427 22.2191 10.592 22.4484C10.7413 22.6724 10.816 22.9471 10.816 23.2724C10.816 23.6031 10.7333 23.9071 10.568 24.1844C10.408 24.4564 10.168 24.6751 9.848 24.8404C9.528 25.0004 9.13333 25.0804 8.664 25.0804ZM13.7483 25.0804C13.2843 25.0804 12.8923 24.9764 12.5723 24.7684C12.2576 24.5604 12.0176 24.2884 11.8523 23.9524C11.6923 23.6164 11.6123 23.2591 11.6123 22.8804C11.6123 22.5018 11.6923 22.1444 11.8523 21.8084C12.0176 21.4724 12.2576 21.2004 12.5723 20.9924C12.8923 20.7844 13.2843 20.6804 13.7483 20.6804C14.2069 20.6804 14.5936 20.7844 14.9083 20.9924C15.2283 21.2004 15.4683 21.4724 15.6283 21.8084C15.7936 22.1444 15.8763 22.5018 15.8763 22.8804C15.8763 23.2591 15.7936 23.6164 15.6283 23.9524C15.4683 24.2884 15.2283 24.5604 14.9083 24.7684C14.5936 24.9764 14.2069 25.0804 13.7483 25.0804ZM13.7483 24.3044C14.0096 24.3044 14.2283 24.2378 14.4043 24.1044C14.5856 23.9711 14.7216 23.7951 14.8123 23.5764C14.9083 23.3578 14.9563 23.1258 14.9563 22.8804C14.9563 22.6298 14.9083 22.3978 14.8123 22.1844C14.7216 21.9658 14.5856 21.7898 14.4043 21.6564C14.2283 21.5231 14.0096 21.4564 13.7483 21.4564C13.4869 21.4564 13.2656 21.5231 13.0843 21.6564C12.9029 21.7898 12.7669 21.9658 12.6763 22.1844C12.5856 22.3978 12.5403 22.6298 12.5403 22.8804C12.5403 23.1258 12.5856 23.3578 12.6763 23.5764C12.7669 23.7951 12.9029 23.9711 13.0843 24.1044C13.2656 24.2378 13.4869 24.3044 13.7483 24.3044ZM17.3287 25.0004V21.4964H16.6407V20.7604H17.3287V20.3044C17.3287 20.1391 17.35 19.9711 17.3927 19.8004C17.4354 19.6298 17.5074 19.4724 17.6087 19.3284C17.71 19.1791 17.8487 19.0618 18.0247 18.9764C18.2007 18.8858 18.422 18.8404 18.6887 18.8404C18.8434 18.8404 18.9714 18.8538 19.0727 18.8804C19.174 18.9018 19.2247 18.9124 19.2247 18.9124V19.6004C19.2247 19.6004 19.1847 19.5924 19.1047 19.5764C19.03 19.5604 18.9447 19.5524 18.8487 19.5524C18.614 19.5524 18.454 19.6244 18.3687 19.7684C18.2834 19.9071 18.2407 20.0858 18.2407 20.3044V20.7604H19.1847V21.4964H18.2407V25.0004H17.3287ZM21.8293 25.0804C21.4933 25.0804 21.224 25.0191 21.0213 24.8964C20.8186 24.7738 20.672 24.6111 20.5813 24.4084C20.496 24.2004 20.4533 23.9764 20.4533 23.7364V21.4964H19.7093V20.7604H20.4533V19.7044H21.3653V20.7604H22.3573V21.4964H21.3653V23.7204C21.3653 24.1204 21.5866 24.3204 22.0293 24.3204C22.1413 24.3204 22.2453 24.3124 22.3413 24.2964C22.4373 24.2804 22.4853 24.2724 22.4853 24.2724V25.0164C22.4853 25.0164 22.4186 25.0271 22.2853 25.0484C22.1573 25.0698 22.0053 25.0804 21.8293 25.0804ZM23.1946 26.2884L25.9706 18.3924H26.8266L24.0426 26.2884H23.1946ZM27.6236 25.0004V19.0804H28.5596V21.5764H31.2076V19.0804H32.1436V25.0004H31.2076V22.4084H28.5596V25.0004H27.6236ZM35.0944 20.6804C35.361 20.6804 35.5824 20.7231 35.7584 20.8084C35.9397 20.8938 36.0837 20.9924 36.1904 21.1044C36.297 21.2164 36.3744 21.3124 36.4224 21.3924H36.4704V20.7604H37.3824V25.0004H36.4704V24.3684H36.4224C36.3744 24.4484 36.297 24.5444 36.1904 24.6564C36.0837 24.7684 35.9397 24.8671 35.7584 24.9524C35.5824 25.0378 35.361 25.0804 35.0944 25.0804C34.7744 25.0804 34.4944 25.0191 34.2544 24.8964C34.0197 24.7684 33.8224 24.6004 33.6624 24.3924C33.5024 24.1791 33.3824 23.9418 33.3024 23.6804C33.2277 23.4191 33.1904 23.1524 33.1904 22.8804C33.1904 22.6084 33.2277 22.3418 33.3024 22.0804C33.3824 21.8191 33.5024 21.5844 33.6624 21.3764C33.8224 21.1631 34.0197 20.9951 34.2544 20.8724C34.4944 20.7444 34.7744 20.6804 35.0944 20.6804ZM35.2944 21.4404C35.033 21.4404 34.8144 21.5124 34.6384 21.6564C34.4624 21.7951 34.329 21.9738 34.2384 22.1924C34.153 22.4111 34.1104 22.6404 34.1104 22.8804C34.1104 23.1204 34.153 23.3498 34.2384 23.5684C34.329 23.7871 34.4624 23.9684 34.6384 24.1124C34.8144 24.2511 35.033 24.3204 35.2944 24.3204C35.5557 24.3204 35.7717 24.2511 35.9424 24.1124C36.1184 23.9684 36.249 23.7871 36.3344 23.5684C36.425 23.3498 36.4704 23.1204 36.4704 22.8804C36.4704 22.6404 36.425 22.4111 36.3344 22.1924C36.249 21.9738 36.1184 21.7951 35.9424 21.6564C35.7717 21.5124 35.5557 21.4404 35.2944 21.4404ZM38.4421 25.0004V20.7604H39.3541V21.3204H39.3861C39.4661 21.1551 39.5914 21.0084 39.7621 20.8804C39.9381 20.7471 40.1914 20.6804 40.5221 20.6804C40.6234 20.6804 40.7087 20.6858 40.7781 20.6964C40.8527 20.7071 40.8901 20.7124 40.8901 20.7124V21.5924C40.8901 21.5924 40.8501 21.5871 40.7701 21.5764C40.6901 21.5658 40.5994 21.5604 40.4981 21.5604C40.1247 21.5604 39.8394 21.6671 39.6421 21.8804C39.4501 22.0884 39.3541 22.4271 39.3541 22.8964V25.0004H38.4421ZM43.235 25.0804C42.915 25.0804 42.635 25.0191 42.395 24.8964C42.1603 24.7684 41.963 24.6004 41.803 24.3924C41.643 24.1791 41.523 23.9418 41.443 23.6804C41.3683 23.4191 41.331 23.1524 41.331 22.8804C41.331 22.6084 41.3683 22.3418 41.443 22.0804C41.523 21.8191 41.643 21.5844 41.803 21.3764C41.963 21.1631 42.1603 20.9951 42.395 20.8724C42.635 20.7444 42.915 20.6804 43.235 20.6804C43.5017 20.6804 43.723 20.7231 43.899 20.8084C44.0803 20.8938 44.2243 20.9924 44.331 21.1044C44.4377 21.2164 44.515 21.3124 44.563 21.3924H44.611V18.9204H45.523V25.0004H44.611V24.3684H44.563C44.515 24.4484 44.4377 24.5444 44.331 24.6564C44.2243 24.7684 44.0803 24.8671 43.899 24.9524C43.723 25.0378 43.5017 25.0804 43.235 25.0804ZM43.435 24.3204C43.6963 24.3204 43.9123 24.2511 44.083 24.1124C44.259 23.9684 44.3897 23.7871 44.475 23.5684C44.5657 23.3498 44.611 23.1204 44.611 22.8804C44.611 22.6404 44.5657 22.4111 44.475 22.1924C44.3897 21.9738 44.259 21.7951 44.083 21.6564C43.9123 21.5124 43.6963 21.4404 43.435 21.4404C43.1737 21.4404 42.955 21.5124 42.779 21.6564C42.603 21.7951 42.4697 21.9738 42.379 22.1924C42.2937 22.4111 42.251 22.6404 42.251 22.8804C42.251 23.1204 42.2937 23.3498 42.379 23.5684C42.4697 23.7871 42.603 23.9684 42.779 24.1124C42.955 24.2511 43.1737 24.3204 43.435 24.3204ZM51.2246 25.0804C50.7499 25.0804 50.3339 24.9951 49.9766 24.8244C49.6246 24.6484 49.3286 24.4164 49.0886 24.1284C48.8539 23.8351 48.6752 23.5098 48.5526 23.1524C48.4352 22.7898 48.3766 22.4191 48.3766 22.0404C48.3766 21.6618 48.4352 21.2911 48.5526 20.9284C48.6752 20.5658 48.8539 20.2404 49.0886 19.9524C49.3286 19.6591 49.6246 19.4271 49.9766 19.2564C50.3339 19.0858 50.7499 19.0004 51.2246 19.0004C51.6139 19.0004 51.9472 19.0511 52.2246 19.1524C52.5072 19.2538 52.7419 19.3844 52.9286 19.5444C53.1206 19.6991 53.2726 19.8644 53.3846 20.0404C53.5019 20.2164 53.5872 20.3844 53.6406 20.5444C53.6992 20.7044 53.7392 20.8351 53.7606 20.9364C53.7819 21.0324 53.7926 21.0804 53.7926 21.0804H52.8566C52.8566 21.0804 52.8459 21.0404 52.8246 20.9604C52.8086 20.8751 52.7686 20.7711 52.7046 20.6484C52.6459 20.5258 52.5552 20.4058 52.4326 20.2884C52.3152 20.1658 52.1579 20.0644 51.9606 19.9844C51.7686 19.8991 51.5259 19.8564 51.2326 19.8564C50.9179 19.8564 50.6406 19.9178 50.4006 20.0404C50.1659 20.1631 49.9686 20.3284 49.8086 20.5364C49.6486 20.7444 49.5286 20.9791 49.4486 21.2404C49.3739 21.5018 49.3366 21.7684 49.3366 22.0404C49.3366 22.3124 49.3739 22.5791 49.4486 22.8404C49.5286 23.0964 49.6486 23.3311 49.8086 23.5444C49.9686 23.7524 50.1659 23.9178 50.4006 24.0404C50.6406 24.1631 50.9179 24.2244 51.2326 24.2244C51.5259 24.2244 51.7686 24.1844 51.9606 24.1044C52.1579 24.0191 52.3152 23.9151 52.4326 23.7924C52.5552 23.6698 52.6459 23.5471 52.7046 23.4244C52.7686 23.3018 52.8086 23.2004 52.8246 23.1204C52.8459 23.0351 52.8566 22.9924 52.8566 22.9924H53.7926C53.7926 22.9924 53.7819 23.0431 53.7606 23.1444C53.7392 23.2458 53.6992 23.3764 53.6406 23.5364C53.5872 23.6911 53.5019 23.8591 53.3846 24.0404C53.2726 24.2164 53.1206 24.3844 52.9286 24.5444C52.7419 24.6991 52.5072 24.8271 52.2246 24.9284C51.9472 25.0298 51.6139 25.0804 51.2246 25.0804ZM56.5553 20.6804C56.822 20.6804 57.0433 20.7231 57.2193 20.8084C57.4006 20.8938 57.5446 20.9924 57.6513 21.1044C57.758 21.2164 57.8353 21.3124 57.8833 21.3924H57.9313V20.7604H58.8433V25.0004H57.9313V24.3684H57.8833C57.8353 24.4484 57.758 24.5444 57.6513 24.6564C57.5446 24.7684 57.4006 24.8671 57.2193 24.9524C57.0433 25.0378 56.822 25.0804 56.5553 25.0804C56.2353 25.0804 55.9553 25.0191 55.7153 24.8964C55.4806 24.7684 55.2833 24.6004 55.1233 24.3924C54.9633 24.1791 54.8433 23.9418 54.7633 23.6804C54.6886 23.4191 54.6513 23.1524 54.6513 22.8804C54.6513 22.6084 54.6886 22.3418 54.7633 22.0804C54.8433 21.8191 54.9633 21.5844 55.1233 21.3764C55.2833 21.1631 55.4806 20.9951 55.7153 20.8724C55.9553 20.7444 56.2353 20.6804 56.5553 20.6804ZM56.7553 21.4404C56.494 21.4404 56.2753 21.5124 56.0993 21.6564C55.9233 21.7951 55.79 21.9738 55.6993 22.1924C55.614 22.4111 55.5713 22.6404 55.5713 22.8804C55.5713 23.1204 55.614 23.3498 55.6993 23.5684C55.79 23.7871 55.9233 23.9684 56.0993 24.1124C56.2753 24.2511 56.494 24.3204 56.7553 24.3204C57.0166 24.3204 57.2326 24.2511 57.4033 24.1124C57.5793 23.9684 57.71 23.7871 57.7953 23.5684C57.886 23.3498 57.9313 23.1204 57.9313 22.8804C57.9313 22.6404 57.886 22.4111 57.7953 22.1924C57.71 21.9738 57.5793 21.7951 57.4033 21.6564C57.2326 21.5124 57.0166 21.4404 56.7553 21.4404ZM59.9908 26.5684V20.7604H60.9028V21.3924H60.9508C61.0041 21.3124 61.0815 21.2164 61.1828 21.1044C61.2895 20.9924 61.4308 20.8938 61.6068 20.8084C61.7881 20.7231 62.0148 20.6804 62.2868 20.6804C62.6015 20.6804 62.8788 20.7444 63.1188 20.8724C63.3588 20.9951 63.5561 21.1631 63.7108 21.3764C63.8708 21.5844 63.9881 21.8191 64.0628 22.0804C64.1428 22.3418 64.1828 22.6084 64.1828 22.8804C64.1828 23.1524 64.1428 23.4191 64.0628 23.6804C63.9881 23.9418 63.8708 24.1791 63.7108 24.3924C63.5561 24.6004 63.3588 24.7684 63.1188 24.8964C62.8788 25.0191 62.6015 25.0804 62.2868 25.0804C62.0148 25.0804 61.7881 25.0378 61.6068 24.9524C61.4308 24.8671 61.2895 24.7684 61.1828 24.6564C61.0815 24.5444 61.0041 24.4484 60.9508 24.3684H60.9028V26.5684H59.9908ZM60.9028 22.8804C60.9028 23.1204 60.9455 23.3498 61.0308 23.5684C61.1215 23.7871 61.2521 23.9684 61.4228 24.1124C61.5988 24.2511 61.8175 24.3204 62.0788 24.3204C62.3455 24.3204 62.5641 24.2511 62.7348 24.1124C62.9108 23.9684 63.0415 23.7871 63.1268 23.5684C63.2175 23.3498 63.2628 23.1204 63.2628 22.8804C63.2628 22.6404 63.2175 22.4111 63.1268 22.1924C63.0415 21.9738 62.9108 21.7951 62.7348 21.6564C62.5641 21.5124 62.3455 21.4404 62.0788 21.4404C61.8175 21.4404 61.5988 21.5124 61.4228 21.6564C61.2521 21.7951 61.1215 21.9738 61.0308 22.1924C60.9455 22.4111 60.9028 22.6404 60.9028 22.8804ZM65.8486 21.8324C65.6833 21.8324 65.5446 21.7764 65.4326 21.6644C65.326 21.5471 65.2726 21.4111 65.2726 21.2564C65.2726 21.0964 65.326 20.9604 65.4326 20.8484C65.5446 20.7364 65.6833 20.6804 65.8486 20.6804C66.014 20.6804 66.15 20.7364 66.2566 20.8484C66.3686 20.9604 66.4246 21.0964 66.4246 21.2564C66.4246 21.4111 66.3686 21.5471 66.2566 21.6644C66.15 21.7764 66.014 21.8324 65.8486 21.8324ZM65.8486 25.0804C65.6833 25.0804 65.5446 25.0244 65.4326 24.9124C65.326 24.7951 65.2726 24.6591 65.2726 24.5044C65.2726 24.3444 65.326 24.2084 65.4326 24.0964C65.5446 23.9844 65.6833 23.9284 65.8486 23.9284C66.014 23.9284 66.15 23.9844 66.2566 24.0964C66.3686 24.2084 66.4246 24.3444 66.4246 24.5044C66.4246 24.6644 66.3686 24.8004 66.2566 24.9124C66.15 25.0244 66.014 25.0804 65.8486 25.0804Z" fill="black"/>
</g>
<rect width="390" height="70" transform="translate(-27 -22)" fill="white"/>
<path fill-rule="evenodd" clip-rule="evenodd" d="M3.6 0H3.5C3.042 0 2.648 1.49012e-08 2.3 0.0820001C1.76127 0.21073 1.2687 0.486093 0.876861 0.877579C0.485022 1.26907 0.209215 1.76139 0.0799999 2.3C-7.45058e-08 2.648 0 3.04 0 3.5V8.5C0 8.958 1.49012e-08 9.352 0.082 9.7C0.21073 10.2387 0.486093 10.7313 0.877578 11.1231C1.26906 11.515 1.76139 11.7908 2.3 11.92C2.648 12 3.04 12 3.5 12H8.5C8.958 12 9.352 12 9.7 11.918C10.2387 11.7893 10.7313 11.5139 11.1231 11.1224C11.515 10.7309 11.7908 10.2386 11.92 9.7C12 9.352 12 8.96 12 8.5V3.5C12 3.042 12 2.648 11.918 2.3C11.7893 1.76127 11.5139 1.2687 11.1224 0.876862C10.7309 0.485022 10.2386 0.209215 9.7 0.08C9.352 -7.45058e-08 8.96 0 8.5 0H3.6ZM2.766 2.028C2.852 2.008 2.986 2 3.6 2H8.4C9.016 2 9.148 2.006 9.234 2.028C9.41366 2.07096 9.5779 2.16285 9.70852 2.29347C9.83914 2.42409 9.93103 2.58834 9.974 2.768C9.994 2.852 10 2.984 10 3.6V8.4C10 9.016 9.994 9.148 9.972 9.234C9.92903 9.41366 9.83714 9.57791 9.70652 9.70853C9.5759 9.83915 9.41166 9.93104 9.232 9.974C9.15 9.992 9.018 10 8.4 10H3.6C2.984 10 2.852 9.99401 2.766 9.972C2.58634 9.92904 2.42209 9.83715 2.29147 9.70653C2.16085 9.57591 2.06896 9.41166 2.026 9.23201C2.008 9.15 2 9.018 2 8.4V3.6C2 2.984 2.006 2.852 2.028 2.766C2.07096 2.58634 2.16285 2.42209 2.29347 2.29147C2.42409 2.16085 2.58834 2.06896 2.768 2.026L2.766 2.028ZM17.6 0H17.5C17.042 0 16.648 1.49012e-08 16.3 0.0820001C15.7613 0.21073 15.2687 0.486093 14.8769 0.877579C14.485 1.26907 14.2092 1.76139 14.08 2.3C14 2.648 14 3.04 14 3.5V8.5C14 8.958 14 9.352 14.082 9.7C14.2107 10.2387 14.4861 10.7313 14.8776 11.1231C15.2691 11.515 15.7614 11.7908 16.3 11.92C16.648 12 17.04 12 17.5 12H22.5C22.958 12 23.352 12 23.7 11.918C24.2387 11.7893 24.7313 11.5139 25.1231 11.1224C25.515 10.7309 25.7908 10.2386 25.92 9.7C26 9.352 26 8.96 26 8.5V3.5C26 3.042 26 2.648 25.918 2.3C25.7893 1.76127 25.5139 1.2687 25.1224 0.876862C24.7309 0.485022 24.2386 0.209215 23.7 0.08C23.352 -7.45058e-08 22.96 0 22.5 0H17.6ZM16.766 2.028C16.852 2.008 16.986 2 17.6 2H22.4C23.016 2 23.148 2.006 23.234 2.028C23.4136 2.07096 23.5779 2.16285 23.7085 2.29347C23.8391 2.42409 23.931 2.58834 23.974 2.768C23.994 2.852 24 2.984 24 3.6V8.4C24 9.016 23.992 9.148 23.972 9.234C23.929 9.41366 23.8371 9.57791 23.7065 9.70853C23.5759 9.83915 23.4116 9.93104 23.232 9.974C23.148 9.99401 23.016 10 22.4 10H17.6C16.984 10 16.852 9.99401 16.766 9.972C16.5863 9.92904 16.4221 9.83715 16.2915 9.70653C16.1608 9.57591 16.069 9.41166 16.026 9.23201C16.008 9.15 16 9.018 16 8.4V3.6C16 2.984 16.006 2.852 16.028 2.766C16.071 2.58634 16.1628 2.42209 16.2935 2.29147C16.4241 2.16085 16.5883 2.06896 16.768 2.026L16.766 2.028ZM3.5 14H8.5C8.958 14 9.352 14 9.7 14.082C10.2387 14.2107 10.7313 14.4861 11.1231 14.8776C11.515 15.2691 11.7908 15.7614 11.92 16.3C12 16.648 12 17.04 12 17.5V22.5C12 22.958 12 23.352 11.918 23.7C11.7893 24.2387 11.5139 24.7313 11.1224 25.1231C10.7309 25.515 10.2386 25.7908 9.7 25.92C9.352 26 8.96 26 8.5 26H3.5C3.042 26 2.648 26 2.3 25.918C1.76127 25.7893 1.2687 25.5139 0.876861 25.1224C0.485022 24.7309 0.209215 24.2386 0.0799999 23.7C-7.45058e-08 23.352 0 22.96 0 22.5V17.5C0 17.042 1.49012e-08 16.648 0.082 16.3C0.21073 15.7613 0.486093 15.2687 0.877578 14.8769C1.26906 14.485 1.76139 14.2092 2.3 14.08C2.648 14 3.04 14 3.5 14ZM3.6 16C2.984 16 2.852 16.006 2.766 16.028C2.58634 16.071 2.42209 16.1629 2.29147 16.2935C2.16085 16.4241 2.06896 16.5883 2.026 16.768C2.008 16.85 2 16.982 2 17.6V22.4C2 23.016 2.006 23.148 2.028 23.234C2.07096 23.4137 2.16285 23.5779 2.29347 23.7085C2.42409 23.8392 2.58834 23.931 2.768 23.974C2.852 23.994 2.984 24 3.6 24H8.4C9.016 24 9.148 23.992 9.234 23.972C9.41366 23.929 9.5779 23.8372 9.70852 23.7065C9.83914 23.5759 9.93103 23.4117 9.974 23.232C9.994 23.148 10 23.016 10 22.4V17.6C10 16.984 9.994 16.852 9.972 16.766C9.92903 16.5863 9.83714 16.4221 9.70652 16.2915C9.5759 16.1609 9.41166 16.069 9.232 16.026C9.15 16.008 9.018 16 8.4 16H3.6ZM17.6 14H17.5C17.042 14 16.648 14 16.3 14.082C15.7613 14.2107 15.2687 14.4861 14.8769 14.8776C14.485 15.2691 14.2092 15.7614 14.08 16.3C14 16.648 14 17.04 14 17.5V22.5C14 22.958 14 23.352 14.082 23.7C14.2107 24.2387 14.4861 24.7313 14.8776 25.1231C15.2691 25.515 15.7614 25.7908 16.3 25.92C16.648 26.002 17.042 26.002 17.5 26.002H22.5C22.958 26.002 23.352 26.002 23.7 25.92C24.2383 25.791 24.7305 25.5154 25.122 25.124C25.5134 24.7325 25.7889 24.2404 25.918 23.702C26 23.354 26 22.96 26 22.502V17.5C26 17.042 26 16.648 25.918 16.3C25.7893 15.7613 25.5139 15.2687 25.1224 14.8769C24.7309 14.485 24.2386 14.2092 23.7 14.08C23.352 14 22.96 14 22.5 14H17.6ZM16.766 16.028C16.852 16.008 16.986 16 17.6 16H22.4C23.016 16 23.148 16.006 23.234 16.028C23.4136 16.071 23.5779 16.1629 23.7085 16.2935C23.8391 16.4241 23.931 16.5883 23.974 16.768C23.994 16.852 24 16.984 24 17.6V22.4C24 23.016 23.992 23.148 23.972 23.234C23.929 23.4137 23.8371 23.5779 23.7065 23.7085C23.5759 23.8392 23.4116 23.931 23.232 23.974C23.148 23.994 23.016 24 22.4 24H17.6C16.984 24 16.852 23.992 16.766 23.972C16.5863 23.929 16.4221 23.8372 16.2915 23.7065C16.1608 23.5759 16.069 23.4117 16.026 23.232C16.008 23.15 16 23.018 16 22.4V17.6C16 16.984 16.006 16.852 16.028 16.766C16.071 16.5863 16.1628 16.4221 16.2935 16.2915C16.4241 16.1609 16.5883 16.069 16.768 16.026L16.766 16.028Z" fill="#6E00FF"/>
</g>
</g>
<defs>
<filter id="filter0_d_221_1450" x="-74" y="-838" width="484" height="938" filterUnits="userSpaceOnUse" color-interpolation-filters="sRGB">
<feFlood flood-opacity="0" result="BackgroundImageFix"/>
<feColorMatrix in="SourceAlpha" type="matrix" values="0 0 0 0 0 0 0 0 0 0 0 0 0 0 0 0 0 0 127 0" result="hardAlpha"/>
<feOffset dy="4"/>
<feGaussianBlur stdDeviation="23.5"/>
<feComposite in2="hardAlpha" operator="out"/>
<feColorMatrix type="matrix" values="0 0 0 0 0 0 0 0 0 0 0 0 0 0 0 0 0 0 0.25 0"/>
<feBlend mode="normal" in2="BackgroundImageFix" result="effect1_dropShadow_221_1450"/>
<feBlend mode="normal" in="SourceGraphic" in2="effect1_dropShadow_221_1450" result="shape"/>
</filter>
<filter id="filter1_d_221_1450" x="-8" y="-113.635" width="179.705" height="286.635" filterUnits="userSpaceOnUse" color-interpolation-filters="sRGB">
<feFlood flood-opacity="0" result="BackgroundImageFix"/>
<feColorMatrix in="SourceAlpha" type="matrix" values="0 0 0 0 0 0 0 0 0 0 0 0 0 0 0 0 0 0 127 0" result="hardAlpha"/>
<feOffset/>
<feGaussianBlur stdDeviation="4"/>
<feComposite in2="hardAlpha" operator="out"/>
<feColorMatrix type="matrix" values="0 0 0 0 0 0 0 0 0 0 0 0 0 0 0 0 0 0 0.2 0"/>
<feBlend mode="normal" in2="BackgroundImageFix" result="effect1_dropShadow_221_1450"/>
<feBlend mode="normal" in="SourceGraphic" in2="effect1_dropShadow_221_1450" result="shape"/>
</filter>
<clipPath id="clip0_221_1450">
<rect x="-27" y="-795" width="390" height="844" rx="15" fill="white"/>
</clipPath>
</defs>
</svg>
