<svg width="26" height="27" viewBox="0 0 26 27" fill="none" xmlns="http://www.w3.org/2000/svg">
<rect width="26" height="27" fill="#E5E5E5"/>
<g clip-path="url(#clip0_221_1450)">
<rect width="390" height="844" transform="translate(-27 -796)" fill="#F2F6FA"/>
<g clip-path="url(#clip1_221_1450)">
<g filter="url(#filter0_d_221_1450)">
<rect x="-7" y="-419" width="350" height="890" rx="10" fill="#E2E5FA"/>
<g filter="url(#filter1_d_221_1450)">
<rect y="-103" width="163.705" height="270.635" rx="10" fill="#FEFEFF"/>
<line x1="8.49807" y1="23.0752" x2="157.497" y2="22.5022" stroke="black" stroke-opacity="0.5" stroke-linecap="round"/>
</g>
</g>
</g>
<g filter="url(#filter2_d_221_1450)">
<rect width="390" height="70" transform="translate(-27 -22)" fill="white"/>
<path fill-rule="evenodd" clip-rule="evenodd" d="M3.6 0H3.5C3.042 0 2.648 1.49012e-08 2.3 0.0820001C1.76127 0.21073 1.2687 0.486093 0.876861 0.877579C0.485022 1.26907 0.209215 1.76139 0.0799999 2.3C-7.45058e-08 2.648 0 3.04 0 3.5V8.5C0 8.958 1.49012e-08 9.352 0.082 9.7C0.21073 10.2387 0.486093 10.7313 0.877578 11.1231C1.26906 11.515 1.76139 11.7908 2.3 11.92C2.648 12 3.04 12 3.5 12H8.5C8.958 12 9.352 12 9.7 11.918C10.2387 11.7893 10.7313 11.5139 11.1231 11.1224C11.515 10.7309 11.7908 10.2386 11.92 9.7C12 9.352 12 8.96 12 8.5V3.5C12 3.042 12 2.648 11.918 2.3C11.7893 1.76127 11.5139 1.2687 11.1224 0.876862C10.7309 0.485022 10.2386 0.209215 9.7 0.08C9.352 -7.45058e-08 8.96 0 8.5 0H3.6ZM2.766 2.028C2.852 2.008 2.986 2 3.6 2H8.4C9.016 2 9.148 2.006 9.234 2.028C9.41366 2.07096 9.5779 2.16285 9.70852 2.29347C9.83914 2.42409 9.93103 2.58834 9.974 2.768C9.994 2.852 10 2.984 10 3.6V8.4C10 9.016 9.994 9.148 9.972 9.234C9.92903 9.41366 9.83714 9.57791 9.70652 9.70853C9.5759 9.83915 9.41166 9.93104 9.232 9.974C9.15 9.992 9.018 10 8.4 10H3.6C2.984 10 2.852 9.99401 2.766 9.972C2.58634 9.92904 2.42209 9.83715 2.29147 9.70653C2.16085 9.57591 2.06896 9.41166 2.026 9.23201C2.008 9.15 2 9.018 2 8.4V3.6C2 2.984 2.006 2.852 2.028 2.766C2.07096 2.58634 2.16285 2.42209 2.29347 2.29147C2.42409 2.16085 2.58834 2.06896 2.768 2.026L2.766 2.028ZM17.6 0H17.5C17.042 0 16.648 1.49012e-08 16.3 0.0820001C15.7613 0.21073 15.2687 0.486093 14.8769 0.877579C14.485 1.26907 14.2092 1.76139 14.08 2.3C14 2.648 14 3.04 14 3.5V8.5C14 8.958 14 9.352 14.082 9.7C14.2107 10.2387 14.4861 10.7313 14.8776 11.1231C15.2691 11.515 15.7614 11.7908 16.3 11.92C16.648 12 17.04 12 17.5 12H22.5C22.958 12 23.352 12 23.7 11.918C24.2387 11.7893 24.7313 11.5139 25.1231 11.1224C25.515 10.7309 25.7908 10.2386 25.92 9.7C26 9.352 26 8.96 26 8.5V3.5C26 3.042 26 2.648 25.918 2.3C25.7893 1.76127 25.5139 1.2687 25.1224 0.876862C24.7309 0.485022 24.2386 0.209215 23.7 0.08C23.352 -7.45058e-08 22.96 0 22.5 0H17.6ZM16.766 2.028C16.852 2.008 16.986 2 17.6 2H22.4C23.016 2 23.148 2.006 23.234 2.028C23.4136 2.07096 23.5779 2.16285 23.7085 2.29347C23.8391 2.42409 23.931 2.58834 23.974 2.768C23.994 2.852 24 2.984 24 3.6V8.4C24 9.016 23.992 9.148 23.972 9.234C23.929 9.41366 23.8371 9.57791 23.7065 9.70853C23.5759 9.83915 23.4116 9.93104 23.232 9.974C23.148 9.99401 23.016 10 22.4 10H17.6C16.984 10 16.852 9.99401 16.766 9.972C16.5863 9.92904 16.4221 9.83715 16.2915 9.70653C16.1608 9.57591 16.069 9.41166 16.026 9.23201C16.008 9.15 16 9.018 16 8.4V3.6C16 2.984 16.006 2.852 16.028 2.766C16.071 2.58634 16.1628 2.42209 16.2935 2.29147C16.4241 2.16085 16.5883 2.06896 16.768 2.026L16.766 2.028ZM3.5 14H8.5C8.958 14 9.352 14 9.7 14.082C10.2387 14.2107 10.7313 14.4861 11.1231 14.8776C11.515 15.2691 11.7908 15.7614 11.92 16.3C12 16.648 12 17.04 12 17.5V22.5C12 22.958 12 23.352 11.918 23.7C11.7893 24.2387 11.5139 24.7313 11.1224 25.1231C10.7309 25.515 10.2386 25.7908 9.7 25.92C9.352 26 8.96 26 8.5 26H3.5C3.042 26 2.648 26 2.3 25.918C1.76127 25.7893 1.2687 25.5139 0.876861 25.1224C0.485022 24.7309 0.209215 24.2386 0.0799999 23.7C-7.45058e-08 23.352 0 22.96 0 22.5V17.5C0 17.042 1.49012e-08 16.648 0.082 16.3C0.21073 15.7613 0.486093 15.2687 0.877578 14.8769C1.26906 14.485 1.76139 14.2092 2.3 14.08C2.648 14 3.04 14 3.5 14ZM3.6 16C2.984 16 2.852 16.006 2.766 16.028C2.58634 16.071 2.42209 16.1629 2.29147 16.2935C2.16085 16.4241 2.06896 16.5883 2.026 16.768C2.008 16.85 2 16.982 2 17.6V22.4C2 23.016 2.006 23.148 2.028 23.234C2.07096 23.4137 2.16285 23.5779 2.29347 23.7085C2.42409 23.8392 2.58834 23.931 2.768 23.974C2.852 23.994 2.984 24 3.6 24H8.4C9.016 24 9.148 23.992 9.234 23.972C9.41366 23.929 9.5779 23.8372 9.70852 23.7065C9.83914 23.5759 9.93103 23.4117 9.974 23.232C9.994 23.148 10 23.016 10 22.4V17.6C10 16.984 9.994 16.852 9.972 16.766C9.92903 16.5863 9.83714 16.4221 9.70652 16.2915C9.5759 16.1609 9.41166 16.069 9.232 16.026C9.15 16.008 9.018 16 8.4 16H3.6ZM17.6 14H17.5C17.042 14 16.648 14 16.3 14.082C15.7613 14.2107 15.2687 14.4861 14.8769 14.8776C14.485 15.2691 14.2092 15.7614 14.08 16.3C14 16.648 14 17.04 14 17.5V22.5C14 22.958 14 23.352 14.082 23.7C14.2107 24.2387 14.4861 24.7313 14.8776 25.1231C15.2691 25.515 15.7614 25.7908 16.3 25.92C16.648 26.002 17.042 26.002 17.5 26.002H22.5C22.958 26.002 23.352 26.002 23.7 25.92C24.2383 25.791 24.7305 25.5154 25.122 25.124C25.5134 24.7325 25.7889 24.2404 25.918 23.702C26 23.354 26 22.96 26 22.502V17.5C26 17.042 26 16.648 25.918 16.3C25.7893 15.7613 25.5139 15.2687 25.1224 14.8769C24.7309 14.485 24.2386 14.2092 23.7 14.08C23.352 14 22.96 14 22.5 14H17.6ZM16.766 16.028C16.852 16.008 16.986 16 17.6 16H22.4C23.016 16 23.148 16.006 23.234 16.028C23.4136 16.071 23.5779 16.1629 23.7085 16.2935C23.8391 16.4241 23.931 16.5883 23.974 16.768C23.994 16.852 24 16.984 24 17.6V22.4C24 23.016 23.992 23.148 23.972 23.234C23.929 23.4137 23.8371 23.5779 23.7065 23.7085C23.5759 23.8392 23.4116 23.931 23.232 23.974C23.148 23.994 23.016 24 22.4 24H17.6C16.984 24 16.852 23.992 16.766 23.972C16.5863 23.929 16.4221 23.8372 16.2915 23.7065C16.1608 23.5759 16.069 23.4117 16.026 23.232C16.008 23.15 16 23.018 16 22.4V17.6C16 16.984 16.006 16.852 16.028 16.766C16.071 16.5863 16.1628 16.4221 16.2935 16.2915C16.4241 16.1609 16.5883 16.069 16.768 16.026L16.766 16.028Z" fill="black"/>
</g>
</g>
<defs>
<filter id="filter0_d_221_1450" x="-14" y="-426" width="364" height="904" filterUnits="userSpaceOnUse" color-interpolation-filters="sRGB">
<feFlood flood-opacity="0" result="BackgroundImageFix"/>
<feColorMatrix in="SourceAlpha" type="matrix" values="0 0 0 0 0 0 0 0 0 0 0 0 0 0 0 0 0 0 127 0" result="hardAlpha"/>
<feOffset/>
<feGaussianBlur stdDeviation="3.5"/>
<feComposite in2="hardAlpha" operator="out"/>
<feColorMatrix type="matrix" values="0 0 0 0 0 0 0 0 0 0 0 0 0 0 0 0 0 0 0.25 0"/>
<feBlend mode="normal" in2="BackgroundImageFix" result="effect1_dropShadow_221_1450"/>
<feBlend mode="normal" in="SourceGraphic" in2="effect1_dropShadow_221_1450" result="shape"/>
</filter>
<filter id="filter1_d_221_1450" x="-4" y="-107" width="171.705" height="278.635" filterUnits="userSpaceOnUse" color-interpolation-filters="sRGB">
<feFlood flood-opacity="0" result="BackgroundImageFix"/>
<feColorMatrix in="SourceAlpha" type="matrix" values="0 0 0 0 0 0 0 0 0 0 0 0 0 0 0 0 0 0 127 0" result="hardAlpha"/>
<feOffset/>
<feGaussianBlur stdDeviation="2"/>
<feComposite in2="hardAlpha" operator="out"/>
<feColorMatrix type="matrix" values="0 0 0 0 0.431373 0 0 0 0 0 0 0 0 0 1 0 0 0 0.21 0"/>
<feBlend mode="normal" in2="BackgroundImageFix" result="effect1_dropShadow_221_1450"/>
<feBlend mode="normal" in="SourceGraphic" in2="effect1_dropShadow_221_1450" result="shape"/>
</filter>
<filter id="filter2_d_221_1450" x="-37" y="-33" width="410" height="90" filterUnits="userSpaceOnUse" color-interpolation-filters="sRGB">
<feFlood flood-opacity="0" result="BackgroundImageFix"/>
<feColorMatrix in="SourceAlpha" type="matrix" values="0 0 0 0 0 0 0 0 0 0 0 0 0 0 0 0 0 0 127 0" result="hardAlpha"/>
<feOffset dy="-1"/>
<feGaussianBlur stdDeviation="5"/>
<feComposite in2="hardAlpha" operator="out"/>
<feColorMatrix type="matrix" values="0 0 0 0 0 0 0 0 0 0 0 0 0 0 0 0 0 0 0.11 0"/>
<feBlend mode="normal" in2="BackgroundImageFix" result="effect1_dropShadow_221_1450"/>
<feBlend mode="normal" in="SourceGraphic" in2="effect1_dropShadow_221_1450" result="shape"/>
</filter>
<clipPath id="clip0_221_1450">
<rect width="390" height="844" fill="white" transform="translate(-27 -796)"/>
</clipPath>
<clipPath id="clip1_221_1450">
<rect x="-27" y="-726" width="390" height="1217" rx="5" fill="white"/>
</clipPath>
</defs>
</svg>
