<svg width="18" height="20" viewBox="0 0 18 20" fill="none" xmlns="http://www.w3.org/2000/svg">
<path d="M3.0625 19.375H1.8125C1.56386 19.375 1.3254 19.2762 1.14959 19.1004C0.973772 18.9246 0.875 18.6861 0.875 18.4375V12.8125C0.875 12.5639 0.973772 12.3254 1.14959 12.1496C1.3254 11.9738 1.56386 11.875 1.8125 11.875H3.0625C3.31114 11.875 3.5496 11.9738 3.72541 12.1496C3.90123 12.3254 4 12.5639 4 12.8125V18.4375C4 18.6861 3.90123 18.9246 3.72541 19.1004C3.5496 19.2762 3.31114 19.375 3.0625 19.375ZM11.8125 19.375H10.5625C10.3139 19.375 10.0754 19.2762 9.89959 19.1004C9.72377 18.9246 9.625 18.6861 9.625 18.4375V9.0625C9.625 8.81386 9.72377 8.5754 9.89959 8.39959C10.0754 8.22377 10.3139 8.125 10.5625 8.125H11.8125C12.0611 8.125 12.2996 8.22377 12.4754 8.39959C12.6512 8.5754 12.75 8.81386 12.75 9.0625V18.4375C12.75 18.6861 12.6512 18.9246 12.4754 19.1004C12.2996 19.2762 12.0611 19.375 11.8125 19.375ZM16.1875 19.375H14.9375C14.6889 19.375 14.4504 19.2762 14.2746 19.1004C14.0988 18.9246 14 18.6861 14 18.4375V4.6875C14 4.43886 14.0988 4.2004 14.2746 4.02459C14.4504 3.84877 14.6889 3.75 14.9375 3.75H16.1875C16.4361 3.75 16.6746 3.84877 16.8504 4.02459C17.0262 4.2004 17.125 4.43886 17.125 4.6875V18.4375C17.125 18.6861 17.0262 18.9246 16.8504 19.1004C16.6746 19.2762 16.4361 19.375 16.1875 19.375ZM7.4375 19.375H6.1875C5.93886 19.375 5.7004 19.2762 5.52459 19.1004C5.34877 18.9246 5.25 18.6861 5.25 18.4375V1.5625C5.25 1.31386 5.34877 1.0754 5.52459 0.899587C5.7004 0.723772 5.93886 0.625 6.1875 0.625H7.4375C7.68614 0.625 7.9246 0.723772 8.10041 0.899587C8.27623 1.0754 8.375 1.31386 8.375 1.5625V18.4375C8.375 18.6861 8.27623 18.9246 8.10041 19.1004C7.9246 19.2762 7.68614 19.375 7.4375 19.375Z" fill="black"/>
</svg>
