<svg width="20" height="20" viewBox="0 0 20 20" fill="none" xmlns="http://www.w3.org/2000/svg">
<path d="M4.16667 6.66668C5.05073 6.66668 5.89857 7.01787 6.52369 7.64299C7.14882 8.26811 7.50001 9.11596 7.50001 10C7.50001 10.8841 7.14882 11.7319 6.52369 12.357C5.89857 12.9822 5.05073 13.3334 4.16667 13.3334C3.28262 13.3334 2.43477 12.9822 1.80965 12.357C1.18453 11.7319 0.833336 10.8841 0.833336 10C0.833336 9.11596 1.18453 8.26811 1.80965 7.64299C2.43477 7.01787 3.28262 6.66668 4.16667 6.66668ZM10 0.833344C10.8841 0.833344 11.7319 1.18453 12.357 1.80965C12.9822 2.43478 13.3333 3.28262 13.3333 4.16668C13.3333 5.05073 12.9822 5.89858 12.357 6.5237C11.7319 7.14882 10.8841 7.50001 10 7.50001C9.11595 7.50001 8.26811 7.14882 7.64298 6.5237C7.01786 5.89858 6.66667 5.05073 6.66667 4.16668C6.66667 3.28262 7.01786 2.43478 7.64298 1.80965C8.26811 1.18453 9.11595 0.833344 10 0.833344ZM10 12.5C10.8841 12.5 11.7319 12.8512 12.357 13.4763C12.9822 14.1014 13.3333 14.9493 13.3333 15.8334C13.3333 16.7174 12.9822 17.5653 12.357 18.1904C11.7319 18.8155 10.8841 19.1667 10 19.1667C9.11595 19.1667 8.26811 18.8155 7.64298 18.1904C7.01786 17.5653 6.66667 16.7174 6.66667 15.8334C6.66667 14.9493 7.01786 14.1014 7.64298 13.4763C8.26811 12.8512 9.11595 12.5 10 12.5ZM15.8333 6.66668C16.7174 6.66668 17.5652 7.01787 18.1904 7.64299C18.8155 8.26811 19.1667 9.11596 19.1667 10C19.1667 10.8841 18.8155 11.7319 18.1904 12.357C17.5652 12.9822 16.7174 13.3334 15.8333 13.3334C14.9493 13.3334 14.1014 12.9822 13.4763 12.357C12.8512 11.7319 12.5 10.8841 12.5 10C12.5 9.11596 12.8512 8.26811 13.4763 7.64299C14.1014 7.01787 14.9493 6.66668 15.8333 6.66668ZM10 2.50001C9.55798 2.50001 9.13406 2.67561 8.8215 2.98817C8.50893 3.30073 8.33334 3.72465 8.33334 4.16668C8.33334 4.60871 8.50893 5.03263 8.8215 5.34519C9.13406 5.65775 9.55798 5.83335 10 5.83335C10.442 5.83335 10.866 5.65775 11.1785 5.34519C11.4911 5.03263 11.6667 4.60871 11.6667 4.16668C11.6667 3.72465 11.4911 3.30073 11.1785 2.98817C10.866 2.67561 10.442 2.50001 10 2.50001ZM4.16667 8.33335C3.72464 8.33335 3.30072 8.50894 2.98816 8.8215C2.6756 9.13406 2.5 9.55799 2.5 10C2.5 10.442 2.6756 10.866 2.98816 11.1785C3.30072 11.4911 3.72464 11.6667 4.16667 11.6667C4.6087 11.6667 5.03262 11.4911 5.34518 11.1785C5.65774 10.866 5.83334 10.442 5.83334 10C5.83334 9.55799 5.65774 9.13406 5.34518 8.8215C5.03262 8.50894 4.6087 8.33335 4.16667 8.33335ZM10 14.1667C9.55798 14.1667 9.13406 14.3423 8.8215 14.6548C8.50893 14.9674 8.33334 15.3913 8.33334 15.8334C8.33334 16.2754 8.50893 16.6993 8.8215 17.0119C9.13406 17.3244 9.55798 17.5 10 17.5C10.442 17.5 10.866 17.3244 11.1785 17.0119C11.4911 16.6993 11.6667 16.2754 11.6667 15.8334C11.6667 15.3913 11.4911 14.9674 11.1785 14.6548C10.866 14.3423 10.442 14.1667 10 14.1667Z" fill="#222222"/>
</svg>
