<svg width="16" height="18" viewBox="0 0 16 18" fill="none" xmlns="http://www.w3.org/2000/svg">
<rect width="16" height="18" fill="#E5E5E5"/>
<g filter="url(#filter0_d_221_1450)">
<g clip-path="url(#clip0_221_1450)">
<rect x="-32" y="-94" width="390" height="844" rx="15" fill="#F2F6FA"/>
<g filter="url(#filter1_d_221_1450)">
<rect x="-5" y="14" width="163.705" height="270.635" rx="10" fill="#FEFEFF"/>
</g>
<rect x="-68" y="-97" width="476" height="106" fill="#F9F9F9"/>
<path d="M2.44 1V-13.8H7.76C8.96 -13.8 10.0067 -13.5867 10.9 -13.16C11.8067 -12.7467 12.56 -12.1867 13.16 -11.48C13.76 -10.7733 14.2067 -9.98 14.5 -9.1C14.8067 -8.22 14.96 -7.32 14.96 -6.4C14.96 -5.48 14.8067 -4.58 14.5 -3.7C14.2067 -2.82 13.76 -2.02667 13.16 -1.32C12.56 -0.613333 11.8067 -0.0466667 10.9 0.38C10.0067 0.793333 8.96 1 7.76 1H2.44ZM7.64 -11.42H5.16V-1.4H7.64C8.68 -1.4 9.54 -1.64 10.22 -2.12C10.9 -2.61333 11.4067 -3.24 11.74 -4C12.0733 -4.77333 12.24 -5.58 12.24 -6.42C12.24 -7.24667 12.0733 -8.04 11.74 -8.8C11.4067 -9.57333 10.9 -10.2 10.22 -10.68C9.54 -11.1733 8.68 -11.42 7.64 -11.42ZM21.6433 -9.8C22.3233 -9.8 22.8833 -9.68667 23.3233 -9.46C23.7633 -9.24667 24.1099 -9.00667 24.3633 -8.74C24.6166 -8.48667 24.7899 -8.28 24.8833 -8.12H25.0033V-9.6H27.6633V1H25.0033V-0.48H24.8833C24.7899 -0.32 24.6166 -0.106667 24.3633 0.16C24.1099 0.426667 23.7633 0.666667 23.3233 0.88C22.8833 1.09333 22.3233 1.2 21.6433 1.2C20.8566 1.2 20.1699 1.04667 19.5833 0.74C18.9966 0.42 18.5033 -3.97364e-08 18.1033 -0.52C17.7166 -1.05333 17.4233 -1.64667 17.2233 -2.3C17.0366 -2.95333 16.9433 -3.62 16.9433 -4.3C16.9433 -4.98 17.0366 -5.64667 17.2233 -6.3C17.4233 -6.95333 17.7166 -7.54 18.1033 -8.06C18.5033 -8.59333 18.9966 -9.01333 19.5833 -9.32C20.1699 -9.64 20.8566 -9.8 21.6433 -9.8ZM22.3433 -7.62C21.7433 -7.62 21.2366 -7.45333 20.8233 -7.12C20.4233 -6.8 20.1233 -6.38667 19.9233 -5.88C19.7233 -5.37333 19.6233 -4.84667 19.6233 -4.3C19.6233 -3.75333 19.7233 -3.22667 19.9233 -2.72C20.1233 -2.21333 20.4233 -1.79333 20.8233 -1.46C21.2366 -1.14 21.7433 -0.98 22.3433 -0.98C22.9433 -0.98 23.4433 -1.14 23.8433 -1.46C24.2433 -1.79333 24.5433 -2.21333 24.7433 -2.72C24.9433 -3.22667 25.0433 -3.75333 25.0433 -4.3C25.0433 -4.84667 24.9433 -5.37333 24.7433 -5.88C24.5433 -6.38667 24.2433 -6.8 23.8433 -7.12C23.4433 -7.45333 22.9433 -7.62 22.3433 -7.62ZM34.4302 1.2C33.5635 1.2 32.8502 1.08667 32.2902 0.86C31.7302 0.62 31.2835 0.326667 30.9502 -0.0200001C30.6302 -0.38 30.3902 -0.733333 30.2302 -1.08C30.0702 -1.42667 29.9635 -1.71333 29.9102 -1.94C29.8702 -2.18 29.8502 -2.3 29.8502 -2.3H32.3702C32.3702 -2.3 32.3902 -2.22667 32.4302 -2.08C32.4835 -1.93333 32.5768 -1.76 32.7102 -1.56C32.8568 -1.37333 33.0768 -1.20667 33.3702 -1.06C33.6635 -0.913333 34.0502 -0.84 34.5302 -0.84C35.1035 -0.84 35.5168 -0.96 35.7702 -1.2C36.0235 -1.45333 36.1502 -1.73333 36.1502 -2.04C36.1502 -2.33333 36.0368 -2.56667 35.8102 -2.74C35.5968 -2.92667 35.2768 -3.06667 34.8502 -3.16L33.3902 -3.46C32.8035 -3.58 32.2568 -3.75333 31.7502 -3.98C31.2435 -4.22 30.8302 -4.54 30.5102 -4.94C30.1902 -5.35333 30.0302 -5.88 30.0302 -6.52C30.0302 -7.46667 30.3902 -8.24667 31.1102 -8.86C31.8302 -9.48667 32.8102 -9.8 34.0502 -9.8C34.8368 -9.8 35.4835 -9.69333 35.9902 -9.48C36.5102 -9.26667 36.9235 -9 37.2302 -8.68C37.5502 -8.36 37.7835 -8.04 37.9302 -7.72C38.0902 -7.4 38.1902 -7.12667 38.2302 -6.9C38.2835 -6.68667 38.3102 -6.58 38.3102 -6.58H35.8702C35.8702 -6.58 35.8502 -6.64 35.8102 -6.76C35.7702 -6.89333 35.6835 -7.04 35.5502 -7.2C35.4302 -7.36 35.2435 -7.5 34.9902 -7.62C34.7502 -7.75333 34.4235 -7.82 34.0102 -7.82C33.4502 -7.82 33.0502 -7.7 32.8102 -7.46C32.5835 -7.22 32.4702 -6.96667 32.4702 -6.7C32.4702 -6.40667 32.5968 -6.18 32.8502 -6.02C33.1035 -5.86 33.4302 -5.74 33.8302 -5.66L35.2102 -5.36C36.1968 -5.16 37.0035 -4.81333 37.6302 -4.32C38.2702 -3.82667 38.5902 -3.11333 38.5902 -2.18C38.5902 -1.55333 38.4235 -0.98 38.0902 -0.46C37.7702 0.0466666 37.2968 0.453333 36.6702 0.76C36.0568 1.05333 35.3102 1.2 34.4302 1.2ZM40.8189 1V-14.2H43.4789V-8.08H43.5989C43.7056 -8.26667 43.8722 -8.49333 44.0989 -8.76C44.3256 -9.04 44.6389 -9.28 45.0389 -9.48C45.4389 -9.69333 45.9456 -9.8 46.5589 -9.8C47.3722 -9.8 48.0389 -9.61333 48.5589 -9.24C49.0922 -8.88 49.4856 -8.4 49.7389 -7.8C50.0056 -7.2 50.1389 -6.55333 50.1389 -5.86V1H47.4789V-5.5C47.4789 -6.07333 47.3189 -6.56667 46.9989 -6.98C46.6789 -7.39333 46.1989 -7.6 45.5589 -7.6C45.0656 -7.6 44.6656 -7.47333 44.3589 -7.22C44.0522 -6.98 43.8256 -6.66667 43.6789 -6.28C43.5456 -5.89333 43.4789 -5.48667 43.4789 -5.06V1H40.8189ZM58.8311 1.2C58.1511 1.2 57.5911 1.09333 57.1511 0.88C56.7111 0.653333 56.3644 0.406667 56.1111 0.14C55.8711 -0.126667 55.7044 -0.333333 55.6111 -0.48H55.4711V1H52.8111V-14.2H55.4711V-8.12H55.6111C55.7044 -8.28 55.8711 -8.49333 56.1111 -8.76C56.3644 -9.02667 56.7111 -9.26667 57.1511 -9.48C57.5911 -9.69333 58.1511 -9.8 58.8311 -9.8C59.6311 -9.8 60.3244 -9.64 60.9111 -9.32C61.4978 -9.01333 61.9844 -8.59333 62.3711 -8.06C62.7578 -7.54 63.0444 -6.95333 63.2311 -6.3C63.4311 -5.64667 63.5311 -4.98 63.5311 -4.3C63.5311 -3.62 63.4311 -2.95333 63.2311 -2.3C63.0444 -1.64667 62.7578 -1.05333 62.3711 -0.52C61.9844 -3.97364e-08 61.4978 0.42 60.9111 0.74C60.3244 1.04667 59.6311 1.2 58.8311 1.2ZM58.1311 -0.98C58.7444 -0.98 59.2511 -1.14 59.6511 -1.46C60.0511 -1.79333 60.3511 -2.21333 60.5511 -2.72C60.7511 -3.22667 60.8511 -3.75333 60.8511 -4.3C60.8511 -4.84667 60.7511 -5.37333 60.5511 -5.88C60.3511 -6.38667 60.0511 -6.8 59.6511 -7.12C59.2511 -7.45333 58.7444 -7.62 58.1311 -7.62C57.5311 -7.62 57.0311 -7.45333 56.6311 -7.12C56.2311 -6.8 55.9311 -6.38667 55.7311 -5.88C55.5311 -5.37333 55.4311 -4.84667 55.4311 -4.3C55.4311 -3.75333 55.5311 -3.22667 55.7311 -2.72C55.9311 -2.21333 56.2311 -1.79333 56.6311 -1.46C57.0311 -1.14 57.5311 -0.98 58.1311 -0.98ZM71.0356 1.2C69.8756 1.2 68.889 0.94 68.0756 0.42C67.2623 -0.1 66.6423 -0.773333 66.2156 -1.6C65.8023 -2.44 65.5956 -3.34 65.5956 -4.3C65.5956 -5.26 65.8023 -6.15333 66.2156 -6.98C66.6423 -7.82 67.2623 -8.5 68.0756 -9.02C68.889 -9.54 69.8756 -9.8 71.0356 -9.8C72.209 -9.8 73.1956 -9.54 73.9956 -9.02C74.809 -8.5 75.4223 -7.82 75.8356 -6.98C76.2623 -6.15333 76.4756 -5.26 76.4756 -4.3C76.4756 -3.34 76.2623 -2.44 75.8356 -1.6C75.4223 -0.773333 74.809 -0.1 73.9956 0.42C73.1956 0.94 72.209 1.2 71.0356 1.2ZM71.0356 -1.02C71.6356 -1.02 72.1356 -1.17333 72.5356 -1.48C72.949 -1.78667 73.2623 -2.18667 73.4756 -2.68C73.689 -3.18667 73.7956 -3.72667 73.7956 -4.3C73.7956 -4.88667 73.689 -5.42667 73.4756 -5.92C73.2623 -6.41333 72.949 -6.81333 72.5356 -7.12C72.1356 -7.42667 71.6356 -7.58 71.0356 -7.58C70.449 -7.58 69.949 -7.42667 69.5356 -7.12C69.1223 -6.81333 68.809 -6.41333 68.5956 -5.92C68.3823 -5.42667 68.2756 -4.88667 68.2756 -4.3C68.2756 -3.72667 68.3823 -3.18667 68.5956 -2.68C68.809 -2.18667 69.1223 -1.78667 69.5356 -1.48C69.949 -1.17333 70.449 -1.02 71.0356 -1.02ZM83.2448 -9.8C83.9248 -9.8 84.4848 -9.68667 84.9248 -9.46C85.3648 -9.24667 85.7115 -9.00667 85.9648 -8.74C86.2182 -8.48667 86.3915 -8.28 86.4848 -8.12H86.6048V-9.6H89.2648V1H86.6048V-0.48H86.4848C86.3915 -0.32 86.2182 -0.106667 85.9648 0.16C85.7115 0.426667 85.3648 0.666667 84.9248 0.88C84.4848 1.09333 83.9248 1.2 83.2448 1.2C82.4582 1.2 81.7715 1.04667 81.1848 0.74C80.5982 0.42 80.1048 -3.97364e-08 79.7048 -0.52C79.3182 -1.05333 79.0248 -1.64667 78.8248 -2.3C78.6382 -2.95333 78.5448 -3.62 78.5448 -4.3C78.5448 -4.98 78.6382 -5.64667 78.8248 -6.3C79.0248 -6.95333 79.3182 -7.54 79.7048 -8.06C80.1048 -8.59333 80.5982 -9.01333 81.1848 -9.32C81.7715 -9.64 82.4582 -9.8 83.2448 -9.8ZM83.9448 -7.62C83.3448 -7.62 82.8382 -7.45333 82.4248 -7.12C82.0248 -6.8 81.7248 -6.38667 81.5248 -5.88C81.3248 -5.37333 81.2248 -4.84667 81.2248 -4.3C81.2248 -3.75333 81.3248 -3.22667 81.5248 -2.72C81.7248 -2.21333 82.0248 -1.79333 82.4248 -1.46C82.8382 -1.14 83.3448 -0.98 83.9448 -0.98C84.5448 -0.98 85.0448 -1.14 85.4448 -1.46C85.8448 -1.79333 86.1448 -2.21333 86.3448 -2.72C86.5448 -3.22667 86.6448 -3.75333 86.6448 -4.3C86.6448 -4.84667 86.5448 -5.37333 86.3448 -5.88C86.1448 -6.38667 85.8448 -6.8 85.4448 -7.12C85.0448 -7.45333 84.5448 -7.62 83.9448 -7.62ZM91.7517 1V-9.6H94.3917V-8.14H94.4917C94.6784 -8.55333 94.9851 -8.93333 95.4117 -9.28C95.8384 -9.62667 96.4784 -9.8 97.3317 -9.8C97.5984 -9.8 97.8184 -9.78 97.9917 -9.74C98.1651 -9.71333 98.2517 -9.7 98.2517 -9.7V-7.12C98.2517 -7.12 98.1517 -7.13333 97.9517 -7.16C97.7651 -7.18667 97.5317 -7.2 97.2517 -7.2C96.3184 -7.2 95.6117 -6.94 95.1317 -6.42C94.6517 -5.9 94.4117 -5.06 94.4117 -3.9V1H91.7517ZM104.046 1.2C103.259 1.2 102.572 1.04667 101.986 0.74C101.399 0.42 100.906 -3.97364e-08 100.506 -0.52C100.119 -1.05333 99.8256 -1.64667 99.6256 -2.3C99.439 -2.95333 99.3456 -3.62 99.3456 -4.3C99.3456 -4.98 99.439 -5.64667 99.6256 -6.3C99.8256 -6.95333 100.119 -7.54 100.506 -8.06C100.906 -8.59333 101.399 -9.01333 101.986 -9.32C102.572 -9.64 103.259 -9.8 104.046 -9.8C104.726 -9.8 105.286 -9.68667 105.726 -9.46C106.166 -9.24667 106.512 -9.00667 106.766 -8.74C107.019 -8.48667 107.192 -8.28 107.286 -8.12H107.406V-14.2H110.066V1H107.406V-0.48H107.286C107.192 -0.32 107.019 -0.106667 106.766 0.16C106.512 0.426667 106.166 0.666667 105.726 0.88C105.286 1.09333 104.726 1.2 104.046 1.2ZM104.746 -0.98C105.346 -0.98 105.846 -1.14 106.246 -1.46C106.646 -1.79333 106.946 -2.21333 107.146 -2.72C107.346 -3.22667 107.446 -3.75333 107.446 -4.3C107.446 -4.84667 107.346 -5.37333 107.146 -5.88C106.946 -6.38667 106.646 -6.8 106.246 -7.12C105.846 -7.45333 105.346 -7.62 104.746 -7.62C104.146 -7.62 103.639 -7.45333 103.226 -7.12C102.826 -6.8 102.526 -6.38667 102.326 -5.88C102.126 -5.37333 102.026 -4.84667 102.026 -4.3C102.026 -3.75333 102.126 -3.22667 102.326 -2.72C102.526 -2.21333 102.826 -1.79333 103.226 -1.46C103.639 -1.14 104.146 -0.98 104.746 -0.98Z" fill="black"/>
<g clip-path="url(#clip1_221_1450)" filter="url(#filter2_d_221_1450)">
<rect width="196" height="781" transform="translate(-32 -94)" fill="white"/>
<path d="M2.16667 17.3334H13.8334C14.2754 17.3334 14.6993 17.1578 15.0119 16.8452C15.3244 16.5326 15.5 16.1087 15.5 15.6667V8.16669C15.5007 8.05701 15.4796 7.94829 15.4382 7.84676C15.3967 7.74523 15.3356 7.65288 15.2584 7.57502L8.59168 0.908343C8.43554 0.753134 8.22433 0.666016 8.00418 0.666016C7.78402 0.666016 7.57281 0.753134 7.41668 0.908343L0.75 7.57502C0.67126 7.6522 0.608618 7.74423 0.565704 7.8458C0.522791 7.94736 0.500458 8.05643 0.5 8.16669V15.6667C0.5 16.1087 0.675595 16.5326 0.988156 16.8452C1.30072 17.1578 1.72464 17.3334 2.16667 17.3334ZM6.33334 15.6667V11.5H9.66668V15.6667H6.33334ZM2.16667 8.50835L8.00001 2.67501L13.8334 8.50835V15.6667H11.3333V11.5C11.3333 11.058 11.1578 10.6341 10.8452 10.3215C10.5326 10.0089 10.1087 9.83335 9.66668 9.83335H6.33334C5.89131 9.83335 5.46739 10.0089 5.15483 10.3215C4.84227 10.6341 4.66667 11.058 4.66667 11.5V15.6667H2.16667V8.50835Z" fill="black"/>
</g>
</g>
</g>
<defs>
<filter id="filter0_d_221_1450" x="-79" y="-137" width="484" height="938" filterUnits="userSpaceOnUse" color-interpolation-filters="sRGB">
<feFlood flood-opacity="0" result="BackgroundImageFix"/>
<feColorMatrix in="SourceAlpha" type="matrix" values="0 0 0 0 0 0 0 0 0 0 0 0 0 0 0 0 0 0 127 0" result="hardAlpha"/>
<feOffset dy="4"/>
<feGaussianBlur stdDeviation="23.5"/>
<feComposite in2="hardAlpha" operator="out"/>
<feColorMatrix type="matrix" values="0 0 0 0 0 0 0 0 0 0 0 0 0 0 0 0 0 0 0.25 0"/>
<feBlend mode="normal" in2="BackgroundImageFix" result="effect1_dropShadow_221_1450"/>
<feBlend mode="normal" in="SourceGraphic" in2="effect1_dropShadow_221_1450" result="shape"/>
</filter>
<filter id="filter1_d_221_1450" x="-13" y="6" width="179.705" height="286.635" filterUnits="userSpaceOnUse" color-interpolation-filters="sRGB">
<feFlood flood-opacity="0" result="BackgroundImageFix"/>
<feColorMatrix in="SourceAlpha" type="matrix" values="0 0 0 0 0 0 0 0 0 0 0 0 0 0 0 0 0 0 127 0" result="hardAlpha"/>
<feOffset/>
<feGaussianBlur stdDeviation="4"/>
<feComposite in2="hardAlpha" operator="out"/>
<feColorMatrix type="matrix" values="0 0 0 0 0 0 0 0 0 0 0 0 0 0 0 0 0 0 0.2 0"/>
<feBlend mode="normal" in2="BackgroundImageFix" result="effect1_dropShadow_221_1450"/>
<feBlend mode="normal" in="SourceGraphic" in2="effect1_dropShadow_221_1450" result="shape"/>
</filter>
<filter id="filter2_d_221_1450" x="-32" y="-94" width="396" height="781" filterUnits="userSpaceOnUse" color-interpolation-filters="sRGB">
<feFlood flood-opacity="0" result="BackgroundImageFix"/>
<feColorMatrix in="SourceAlpha" type="matrix" values="0 0 0 0 0 0 0 0 0 0 0 0 0 0 0 0 0 0 127 0" result="hardAlpha"/>
<feOffset dx="200"/>
<feComposite in2="hardAlpha" operator="out"/>
<feColorMatrix type="matrix" values="0 0 0 0 0 0 0 0 0 0 0 0 0 0 0 0 0 0 0.25 0"/>
<feBlend mode="normal" in2="BackgroundImageFix" result="effect1_dropShadow_221_1450"/>
<feBlend mode="normal" in="SourceGraphic" in2="effect1_dropShadow_221_1450" result="shape"/>
</filter>
<clipPath id="clip0_221_1450">
<rect x="-32" y="-94" width="390" height="844" rx="15" fill="white"/>
</clipPath>
<clipPath id="clip1_221_1450">
<rect width="196" height="781" fill="white" transform="translate(-32 -94)"/>
</clipPath>
</defs>
</svg>
