<svg width="16" height="18" viewBox="0 0 16 18" fill="none" xmlns="http://www.w3.org/2000/svg">
<path d="M2.16667 17.3334H13.8334C14.2754 17.3334 14.6993 17.1578 15.0119 16.8452C15.3244 16.5326 15.5 16.1087 15.5 15.6667V8.16669C15.5007 8.05701 15.4796 7.94829 15.4382 7.84676C15.3967 7.74523 15.3356 7.65288 15.2584 7.57502L8.59168 0.908343C8.43554 0.753134 8.22433 0.666016 8.00418 0.666016C7.78402 0.666016 7.57281 0.753134 7.41668 0.908343L0.75 7.57502C0.67126 7.6522 0.608618 7.74423 0.565704 7.8458C0.522791 7.94736 0.500458 8.05643 0.5 8.16669V15.6667C0.5 16.1087 0.675595 16.5326 0.988156 16.8452C1.30072 17.1578 1.72464 17.3334 2.16667 17.3334ZM6.33334 15.6667V11.5H9.66668V15.6667H6.33334ZM2.16667 8.50835L8.00001 2.67501L13.8334 8.50835V15.6667H11.3333V11.5C11.3333 11.058 11.1578 10.6341 10.8452 10.3215C10.5326 10.0089 10.1087 9.83335 9.66668 9.83335H6.33334C5.89131 9.83335 5.46739 10.0089 5.15483 10.3215C4.84227 10.6341 4.66667 11.058 4.66667 11.5V15.6667H2.16667V8.50835Z" fill="black"/>
</svg>
