<svg width="56" height="40" viewBox="0 0 56 40" fill="none" xmlns="http://www.w3.org/2000/svg">
<path d="M14.2606 3.03741C14.2399 1.75448 15.3648 0.595572 16.6562 0.625973C20.5501 0.613813 24.4438 0.622326 28.3377 0.621109C28.7499 0.59922 29.2011 0.80595 29.336 1.21941C29.5427 1.7034 29.2193 2.31872 28.7037 2.42088C28.3413 2.48898 27.9704 2.45371 27.6044 2.45978C23.9951 2.45978 20.3859 2.45858 16.7766 2.461C16.4348 2.41723 16.0919 2.68719 16.1101 3.04349C16.1005 6.68802 16.1053 10.3325 16.1077 13.9771C16.0749 14.3492 16.413 14.6556 16.7815 14.6022C28.8204 14.6058 40.8594 14.6058 52.8996 14.6022C53.2584 14.6556 53.5964 14.3565 53.5672 13.9916C53.5709 10.3362 53.5769 6.68072 53.5648 3.02526C53.5793 2.67989 53.234 2.41844 52.9044 2.461C46.2539 2.45858 39.6044 2.45978 32.9538 2.461C32.5866 2.45371 32.2096 2.49383 31.852 2.39169C31.345 2.21657 31.0969 1.55382 31.3815 1.09416C31.5638 0.74758 31.9688 0.601653 32.3422 0.621109C38.9915 0.618677 45.6409 0.621108 52.2904 0.619893C52.8339 0.625973 53.4031 0.577332 53.915 0.79987C54.8075 1.14767 55.4181 2.07673 55.4095 3.03134C55.4156 6.72086 55.4217 10.4104 55.4072 14.0999C55.4059 15.3135 54.3515 16.4116 53.1318 16.4323C50.9648 16.4615 48.7966 16.4359 46.6284 16.4445C46.6284 21.9872 46.6284 27.5288 46.6271 33.0716C47.2863 33.0838 47.9503 33.0327 48.6057 33.1337C49.829 33.3404 50.8724 34.3059 51.1837 35.5062C51.585 36.8961 50.9174 38.4952 49.6551 39.1957C49.0933 39.524 48.4379 39.6542 47.7921 39.6432C33.0365 39.6432 18.2821 39.6432 3.52762 39.6432C2.81745 39.6602 2.10483 39.4742 1.50897 39.0826C0.346415 38.325 -0.220269 36.7928 0.177382 35.4612C0.511799 34.2268 1.63787 33.2588 2.90743 33.1093C3.50938 33.0425 4.11498 33.0801 4.71936 33.0716C4.72301 24.0339 4.71328 14.9974 4.72422 5.9596C4.68044 4.43588 6.01082 3.05688 7.53453 3.04714C9.77571 3.02404 12.0181 3.04471 14.2606 3.03741ZM6.56533 6.07391C6.5629 15.0727 6.56412 24.0728 6.56533 33.0716C19.3048 33.0716 32.0442 33.0716 44.7848 33.0716C44.791 27.5312 44.7714 21.9908 44.7946 16.4505C44.3154 16.4408 43.8363 16.4444 43.3584 16.4432C43.3596 20.894 43.3645 25.3448 43.3559 29.7955C43.3766 30.7148 42.7917 31.6074 41.9344 31.9443C41.4808 32.1437 40.9761 32.1072 40.4946 32.1109C30.4013 32.1061 20.3093 32.1158 10.2159 32.1061C9.00353 32.1146 7.93948 31.0007 7.99177 29.7895C7.98448 22.6962 7.9857 15.6029 7.99055 8.50968C7.93827 7.33618 8.92328 6.22713 10.1028 6.18093C11.4892 6.14201 12.8767 6.17606 14.263 6.16511C14.2606 5.73584 14.2606 5.3078 14.2618 4.87975C12.0546 4.88703 9.84624 4.87002 7.64033 4.88704C7.01163 4.87002 6.50575 5.45737 6.56533 6.07391ZM10.087 8.01595C9.95688 8.15459 9.80127 8.29565 9.83415 8.50724C9.82927 15.6018 9.828 22.6974 9.83532 29.7931C9.79522 30.0692 10.0603 30.2978 10.3266 30.2722C20.5476 30.2771 30.7673 30.2759 40.987 30.2722C41.2752 30.3185 41.544 30.0741 41.5149 29.7822C41.5209 25.3363 41.5124 20.8892 41.5185 16.4432C33.2335 16.4421 24.9497 16.4517 16.666 16.4396C15.4073 16.4761 14.2727 15.367 14.2702 14.1096C14.2496 12.0776 14.2678 10.0431 14.2618 8.00987C12.8694 8.00987 11.4782 8.00015 10.087 8.01595ZM3.18591 34.9383C2.39183 34.999 1.75826 35.809 1.92607 36.5946C2.02093 37.3558 2.79069 37.8422 3.52155 37.8069C18.2784 37.8094 33.0352 37.8081 47.7934 37.8069C48.4488 37.8386 49.1444 37.4945 49.3609 36.8438C49.6333 36.1337 49.2308 35.2545 48.506 35.0149C47.9989 34.858 47.4626 34.9151 46.9409 34.9067C32.51 34.9054 18.0789 34.9091 3.64801 34.9054C3.49358 34.903 3.33914 34.914 3.18591 34.9383Z" fill="black"/>
</svg>
