<svg width="18" height="18" viewBox="0 0 18 18" fill="none" xmlns="http://www.w3.org/2000/svg">
<rect width="18" height="18" fill="#E5E5E5"/>
<g filter="url(#filter0_d_221_1450)">
<g clip-path="url(#clip0_221_1450)">
<rect x="-31" y="-204" width="390" height="844" rx="15" fill="#F2F6FA"/>
<g filter="url(#filter1_d_221_1450)">
<rect x="-4" y="-96" width="163.705" height="270.635" rx="10" fill="#FEFEFF"/>
<path d="M2.525 19L6.35 7.9H9.005L12.845 19H10.715L9.92 16.66H5.45L4.655 19H2.525ZM6.035 14.89H9.335L7.685 9.985L6.035 14.89ZM14.4472 19V7.9H18.8272C19.7172 7.9 20.4572 8.08 21.0472 8.44C21.6372 8.79 22.0772 9.25 22.3672 9.82C22.6672 10.38 22.8172 10.965 22.8172 11.575C22.8172 12.185 22.6672 12.775 22.3672 13.345C22.0772 13.905 21.6372 14.365 21.0472 14.725C20.4572 15.085 19.7172 15.265 18.8272 15.265H16.4872V19H14.4472ZM18.8122 9.67H16.4872V13.495H18.8122C19.2522 13.495 19.6172 13.405 19.9072 13.225C20.1972 13.035 20.4122 12.795 20.5522 12.505C20.7022 12.205 20.7772 11.9 20.7772 11.59C20.7772 11.27 20.7022 10.965 20.5522 10.675C20.4122 10.385 20.1972 10.145 19.9072 9.955C19.6172 9.765 19.2522 9.67 18.8122 9.67ZM24.4521 19V7.9H31.8921V9.67H26.4921V12.49H31.2171V14.215H26.4921V17.23H31.9671V19H24.4521ZM41.2109 19.15C40.5309 19.15 39.9359 19.035 39.4259 18.805C38.9159 18.565 38.4909 18.25 38.1509 17.86C37.8109 17.46 37.5559 17.015 37.3859 16.525C37.2259 16.035 37.1459 15.535 37.1459 15.025C37.1459 14.515 37.2259 14.015 37.3859 13.525C37.5559 13.035 37.8059 12.595 38.1359 12.205C38.4759 11.805 38.9009 11.49 39.4109 11.26C39.9209 11.02 40.5209 10.9 41.2109 10.9C41.8909 10.9 42.4559 11 42.9059 11.2C43.3559 11.4 43.7109 11.65 43.9709 11.95C44.2409 12.25 44.4409 12.55 44.5709 12.85C44.7009 13.14 44.7859 13.385 44.8259 13.585C44.8659 13.785 44.8859 13.885 44.8859 13.885H43.0109C43.0109 13.885 42.9909 13.82 42.9509 13.69C42.9109 13.55 42.8309 13.39 42.7109 13.21C42.5909 13.03 42.4109 12.87 42.1709 12.73C41.9409 12.59 41.6309 12.52 41.2409 12.52C40.7809 12.52 40.3909 12.64 40.0709 12.88C39.7609 13.11 39.5259 13.415 39.3659 13.795C39.2059 14.175 39.1259 14.585 39.1259 15.025C39.1259 15.465 39.2059 15.875 39.3659 16.255C39.5259 16.635 39.7609 16.945 40.0709 17.185C40.3909 17.415 40.7809 17.53 41.2409 17.53C41.6309 17.53 41.9409 17.46 42.1709 17.32C42.4109 17.18 42.5909 17.02 42.7109 16.84C42.8309 16.66 42.9109 16.505 42.9509 16.375C42.9909 16.235 43.0109 16.165 43.0109 16.165H44.8859C44.8859 16.165 44.8659 16.265 44.8259 16.465C44.7859 16.665 44.7009 16.915 44.5709 17.215C44.4409 17.505 44.2409 17.8 43.9709 18.1C43.7109 18.4 43.3559 18.65 42.9059 18.85C42.4559 19.05 41.8909 19.15 41.2109 19.15ZM50.5277 19.15C49.6577 19.15 48.9177 18.955 48.3077 18.565C47.6977 18.175 47.2327 17.67 46.9127 17.05C46.6027 16.42 46.4477 15.745 46.4477 15.025C46.4477 14.305 46.6027 13.635 46.9127 13.015C47.2327 12.385 47.6977 11.875 48.3077 11.485C48.9177 11.095 49.6577 10.9 50.5277 10.9C51.4077 10.9 52.1477 11.095 52.7477 11.485C53.3577 11.875 53.8177 12.385 54.1277 13.015C54.4477 13.635 54.6077 14.305 54.6077 15.025C54.6077 15.745 54.4477 16.42 54.1277 17.05C53.8177 17.67 53.3577 18.175 52.7477 18.565C52.1477 18.955 51.4077 19.15 50.5277 19.15ZM50.5277 17.485C50.9777 17.485 51.3527 17.37 51.6527 17.14C51.9627 16.91 52.1977 16.61 52.3577 16.24C52.5177 15.86 52.5977 15.455 52.5977 15.025C52.5977 14.585 52.5177 14.18 52.3577 13.81C52.1977 13.44 51.9627 13.14 51.6527 12.91C51.3527 12.68 50.9777 12.565 50.5277 12.565C50.0877 12.565 49.7127 12.68 49.4027 12.91C49.0927 13.14 48.8577 13.44 48.6977 13.81C48.5377 14.18 48.4577 14.585 48.4577 15.025C48.4577 15.455 48.5377 15.86 48.6977 16.24C48.8577 16.61 49.0927 16.91 49.4027 17.14C49.7127 17.37 50.0877 17.485 50.5277 17.485ZM57.5529 9.82C57.2029 9.82 56.9129 9.705 56.6829 9.475C56.4629 9.245 56.3529 8.97 56.3529 8.65C56.3529 8.33 56.4629 8.055 56.6829 7.825C56.9129 7.595 57.2029 7.48 57.5529 7.48C57.9029 7.48 58.1929 7.595 58.4229 7.825C58.6529 8.055 58.7679 8.33 58.7679 8.65C58.7679 8.97 58.6529 9.245 58.4229 9.475C58.1929 9.705 57.9029 9.82 57.5529 9.82ZM56.5629 19V11.05H58.5579V19H56.5629ZM60.6302 19V11.05H62.6252V12.19H62.7152C62.7952 12.05 62.9202 11.88 63.0902 11.68C63.2602 11.47 63.4952 11.29 63.7952 11.14C64.0952 10.98 64.4752 10.9 64.9352 10.9C65.5452 10.9 66.0452 11.04 66.4352 11.32C66.8352 11.59 67.1302 11.95 67.3202 12.4C67.5202 12.85 67.6202 13.335 67.6202 13.855V19H65.6252V14.125C65.6252 13.695 65.5052 13.325 65.2652 13.015C65.0252 12.705 64.6652 12.55 64.1852 12.55C63.8152 12.55 63.5152 12.645 63.2852 12.835C63.0552 13.015 62.8852 13.25 62.7752 13.54C62.6752 13.83 62.6252 14.135 62.6252 14.455V19H60.6302Z" fill="#6E00FF"/>
</g>
<g filter="url(#filter2_d_221_1450)">
<rect width="196" height="781" transform="translate(-31 -204)" fill="white"/>
<path d="M17.0395 1.10195C17.0328 1.06989 17.0172 1.04039 16.9943 1.01694C16.9715 0.993476 16.9424 0.977027 16.9105 0.969524C14.7863 0.449993 9.8793 2.30116 7.21797 4.96053C6.74366 5.43095 6.31117 5.94173 5.92539 6.4871C5.10508 6.41288 4.28476 6.47538 3.58633 6.78006C1.61406 7.64725 1.04023 9.91209 0.880076 10.8844C0.871399 10.9376 0.875105 10.9922 0.890908 11.0438C0.906711 11.0954 0.934185 11.1427 0.971203 11.182C1.00822 11.2213 1.05379 11.2515 1.10437 11.2703C1.15495 11.2892 1.20919 11.2961 1.26289 11.2906L4.42969 10.9429C4.43188 11.1818 4.44622 11.4204 4.47266 11.6578C4.48918 11.8219 4.56239 11.9751 4.67969 12.091L5.90586 13.3172C6.02189 13.4345 6.17523 13.5078 6.33945 13.5242C6.57542 13.5505 6.81258 13.5649 7.05 13.5672L6.70273 16.7312C6.69731 16.7849 6.70429 16.839 6.72314 16.8895C6.74199 16.94 6.77219 16.9855 6.81142 17.0225C6.85065 17.0594 6.89785 17.0869 6.94938 17.1027C7.00091 17.1185 7.05538 17.1222 7.10859 17.1136C8.08125 16.9574 10.3508 16.3836 11.2129 14.4117C11.5176 13.7125 11.5801 12.8965 11.5098 12.0801C12.0567 11.6946 12.569 11.2621 13.0406 10.7875C15.7117 8.13123 17.5512 3.33202 17.0395 1.10195ZM10.6664 7.34647C10.4331 7.11322 10.2742 6.81601 10.2098 6.49245C10.1454 6.16888 10.1784 5.83349 10.3047 5.52869C10.4309 5.22389 10.6447 4.96336 10.919 4.78007C11.1933 4.59677 11.5158 4.49894 11.8457 4.49894C12.1756 4.49894 12.4981 4.59677 12.7724 4.78007C13.0467 4.96336 13.2605 5.22389 13.3867 5.52869C13.513 5.83349 13.546 6.16888 13.4816 6.49245C13.4172 6.81601 13.2583 7.11322 13.025 7.34647C12.8703 7.50155 12.6864 7.62458 12.4841 7.70853C12.2817 7.79247 12.0648 7.83568 11.8457 7.83568C11.6266 7.83568 11.4097 7.79247 11.2073 7.70853C11.005 7.62458 10.8212 7.50155 10.6664 7.34647V7.34647Z" stroke="#222222" stroke-width="1.5" stroke-linecap="round" stroke-linejoin="round"/>
<path d="M3.28281 12.75C2.8934 12.7978 2.53113 12.9743 2.25352 13.2516C1.56523 13.9422 1.5 16.5 1.5 16.5C1.5 16.5 4.05937 16.4348 4.74805 15.7457C5.0264 15.4685 5.20323 15.1056 5.25 14.7156" stroke="#222222" stroke-width="1.5" stroke-linecap="round" stroke-linejoin="round"/>
</g>
</g>
</g>
<defs>
<filter id="filter0_d_221_1450" x="-78" y="-247" width="484" height="938" filterUnits="userSpaceOnUse" color-interpolation-filters="sRGB">
<feFlood flood-opacity="0" result="BackgroundImageFix"/>
<feColorMatrix in="SourceAlpha" type="matrix" values="0 0 0 0 0 0 0 0 0 0 0 0 0 0 0 0 0 0 127 0" result="hardAlpha"/>
<feOffset dy="4"/>
<feGaussianBlur stdDeviation="23.5"/>
<feComposite in2="hardAlpha" operator="out"/>
<feColorMatrix type="matrix" values="0 0 0 0 0 0 0 0 0 0 0 0 0 0 0 0 0 0 0.25 0"/>
<feBlend mode="normal" in2="BackgroundImageFix" result="effect1_dropShadow_221_1450"/>
<feBlend mode="normal" in="SourceGraphic" in2="effect1_dropShadow_221_1450" result="shape"/>
</filter>
<filter id="filter1_d_221_1450" x="-12" y="-104" width="179.705" height="286.635" filterUnits="userSpaceOnUse" color-interpolation-filters="sRGB">
<feFlood flood-opacity="0" result="BackgroundImageFix"/>
<feColorMatrix in="SourceAlpha" type="matrix" values="0 0 0 0 0 0 0 0 0 0 0 0 0 0 0 0 0 0 127 0" result="hardAlpha"/>
<feOffset/>
<feGaussianBlur stdDeviation="4"/>
<feComposite in2="hardAlpha" operator="out"/>
<feColorMatrix type="matrix" values="0 0 0 0 0 0 0 0 0 0 0 0 0 0 0 0 0 0 0.2 0"/>
<feBlend mode="normal" in2="BackgroundImageFix" result="effect1_dropShadow_221_1450"/>
<feBlend mode="normal" in="SourceGraphic" in2="effect1_dropShadow_221_1450" result="shape"/>
</filter>
<filter id="filter2_d_221_1450" x="-31" y="-204" width="396" height="781" filterUnits="userSpaceOnUse" color-interpolation-filters="sRGB">
<feFlood flood-opacity="0" result="BackgroundImageFix"/>
<feColorMatrix in="SourceAlpha" type="matrix" values="0 0 0 0 0 0 0 0 0 0 0 0 0 0 0 0 0 0 127 0" result="hardAlpha"/>
<feOffset dx="200"/>
<feComposite in2="hardAlpha" operator="out"/>
<feColorMatrix type="matrix" values="0 0 0 0 0 0 0 0 0 0 0 0 0 0 0 0 0 0 0.25 0"/>
<feBlend mode="normal" in2="BackgroundImageFix" result="effect1_dropShadow_221_1450"/>
<feBlend mode="normal" in="SourceGraphic" in2="effect1_dropShadow_221_1450" result="shape"/>
</filter>
<clipPath id="clip0_221_1450">
<rect x="-31" y="-204" width="390" height="844" rx="15" fill="white"/>
</clipPath>
</defs>
</svg>
