<svg width="18" height="18" viewBox="0 0 18 18" fill="none" xmlns="http://www.w3.org/2000/svg">
<path d="M17.0395 1.10195C17.0328 1.06989 17.0172 1.04039 16.9943 1.01694C16.9715 0.993476 16.9424 0.977027 16.9105 0.969524C14.7863 0.449993 9.8793 2.30116 7.21797 4.96053C6.74366 5.43095 6.31117 5.94173 5.92539 6.4871C5.10508 6.41288 4.28476 6.47538 3.58633 6.78006C1.61406 7.64725 1.04023 9.91209 0.880076 10.8844C0.871399 10.9376 0.875105 10.9922 0.890908 11.0438C0.906711 11.0954 0.934185 11.1427 0.971203 11.182C1.00822 11.2213 1.05379 11.2515 1.10437 11.2703C1.15495 11.2892 1.20919 11.2961 1.26289 11.2906L4.42969 10.9429C4.43188 11.1818 4.44622 11.4204 4.47266 11.6578C4.48918 11.8219 4.56239 11.9751 4.67969 12.091L5.90586 13.3172C6.02189 13.4345 6.17523 13.5078 6.33945 13.5242C6.57542 13.5505 6.81258 13.5649 7.05 13.5672L6.70273 16.7312C6.69731 16.7849 6.70429 16.839 6.72314 16.8895C6.74199 16.94 6.77219 16.9855 6.81142 17.0225C6.85065 17.0594 6.89785 17.0869 6.94938 17.1027C7.00091 17.1185 7.05538 17.1222 7.10859 17.1136C8.08125 16.9574 10.3508 16.3836 11.2129 14.4117C11.5176 13.7125 11.5801 12.8965 11.5098 12.0801C12.0567 11.6946 12.569 11.2621 13.0406 10.7875C15.7117 8.13123 17.5512 3.33202 17.0395 1.10195ZM10.6664 7.34647C10.4331 7.11322 10.2742 6.81601 10.2098 6.49245C10.1454 6.16888 10.1784 5.83349 10.3047 5.52869C10.4309 5.22389 10.6447 4.96336 10.919 4.78007C11.1933 4.59677 11.5158 4.49894 11.8457 4.49894C12.1756 4.49894 12.4981 4.59677 12.7724 4.78007C13.0467 4.96336 13.2605 5.22389 13.3867 5.52869C13.513 5.83349 13.546 6.16888 13.4816 6.49245C13.4172 6.81601 13.2583 7.11322 13.025 7.34647C12.8703 7.50155 12.6864 7.62458 12.4841 7.70853C12.2817 7.79247 12.0648 7.83568 11.8457 7.83568C11.6266 7.83568 11.4097 7.79247 11.2073 7.70853C11.005 7.62458 10.8212 7.50155 10.6664 7.34647V7.34647Z" stroke="#222222" stroke-width="1.5" stroke-linecap="round" stroke-linejoin="round"/>
</svg>
