<svg width="14" height="18" viewBox="0 0 14 18" fill="none" xmlns="http://www.w3.org/2000/svg">
<path d="M7 0.666687C4.7025 0.666687 2.83333 2.53585 2.83333 4.83335V6.50002H2C1.08084 6.50002 0.333336 7.24752 0.333336 8.16669V15.6667C0.333336 16.5859 1.08084 17.3334 2 17.3334H12C12.9192 17.3334 13.6667 16.5859 13.6667 15.6667V8.16669C13.6667 7.24752 12.9192 6.50002 12 6.50002H11.1667V4.83335C11.1667 2.53585 9.2975 0.666687 7 0.666687ZM4.5 4.83335C4.5 3.45502 5.62167 2.33335 7 2.33335C8.37833 2.33335 9.5 3.45502 9.5 4.83335V6.50002H4.5V4.83335ZM12.0017 15.6667H7.83333V13.7684C8.32917 13.4792 8.66667 12.9475 8.66667 12.3334C8.66667 11.4142 7.91917 10.6667 7 10.6667C6.08083 10.6667 5.33333 11.4142 5.33333 12.3334C5.33333 12.9467 5.67083 13.4792 6.16667 13.7684V15.6667H2V8.16669H12L12.0017 15.6667Z" fill="#222222"/>
</svg>
