<svg width="20" height="26" viewBox="0 0 20 26" fill="none" xmlns="http://www.w3.org/2000/svg">
<rect width="20" height="26" fill="#E5E5E5"/>
<g clip-path="url(#clip0_221_1450)">
<rect width="390" height="844" transform="translate(-105 -795)" fill="#F2F6FA"/>
<g filter="url(#filter0_d_221_1450)">
<rect x="-85" y="-166" width="350" height="450" rx="14" fill="white"/>
<path d="M-61.325 30L-57.41 18.9H-55.565L-51.635 30H-53.195L-54.125 27.345H-58.835L-59.765 30H-61.325ZM-58.385 26.025H-54.575L-56.48 20.58L-58.385 26.025ZM-46.748 30.15C-47.348 30.15 -47.873 30.035 -48.323 29.805C-48.773 29.565 -49.148 29.25 -49.448 28.86C-49.748 28.46 -49.973 28.015 -50.123 27.525C-50.273 27.035 -50.348 26.535 -50.348 26.025C-50.348 25.515 -50.273 25.015 -50.123 24.525C-49.973 24.035 -49.748 23.595 -49.448 23.205C-49.148 22.805 -48.773 22.49 -48.323 22.26C-47.873 22.02 -47.348 21.9 -46.748 21.9C-46.248 21.9 -45.828 21.98 -45.488 22.14C-45.148 22.3 -44.873 22.49 -44.663 22.71C-44.453 22.92 -44.293 23.12 -44.183 23.31H-44.093V18.6H-42.668V30H-44.093V28.74H-44.183C-44.293 28.93 -44.453 29.135 -44.663 29.355C-44.873 29.575 -45.148 29.765 -45.488 29.925C-45.828 30.075 -46.248 30.15 -46.748 30.15ZM-46.508 28.935C-45.978 28.935 -45.538 28.795 -45.188 28.515C-44.828 28.225 -44.563 27.86 -44.393 27.42C-44.213 26.97 -44.123 26.505 -44.123 26.025C-44.123 25.535 -44.213 25.07 -44.393 24.63C-44.563 24.19 -44.828 23.83 -45.188 23.55C-45.538 23.26 -45.978 23.115 -46.508 23.115C-47.038 23.115 -47.483 23.26 -47.843 23.55C-48.203 23.83 -48.473 24.19 -48.653 24.63C-48.823 25.07 -48.908 25.535 -48.908 26.025C-48.908 26.505 -48.823 26.97 -48.653 27.42C-48.473 27.86 -48.203 28.225 -47.843 28.515C-47.483 28.795 -47.038 28.935 -46.508 28.935ZM-36.9629 30.15C-37.5629 30.15 -38.0879 30.035 -38.5379 29.805C-38.9879 29.565 -39.3629 29.25 -39.6629 28.86C-39.9629 28.46 -40.1879 28.015 -40.3379 27.525C-40.4879 27.035 -40.5629 26.535 -40.5629 26.025C-40.5629 25.515 -40.4879 25.015 -40.3379 24.525C-40.1879 24.035 -39.9629 23.595 -39.6629 23.205C-39.3629 22.805 -38.9879 22.49 -38.5379 22.26C-38.0879 22.02 -37.5629 21.9 -36.9629 21.9C-36.4629 21.9 -36.0429 21.98 -35.7029 22.14C-35.3629 22.3 -35.0879 22.49 -34.8779 22.71C-34.6679 22.92 -34.5079 23.12 -34.3979 23.31H-34.3079V18.6H-32.8829V30H-34.3079V28.74H-34.3979C-34.5079 28.93 -34.6679 29.135 -34.8779 29.355C-35.0879 29.575 -35.3629 29.765 -35.7029 29.925C-36.0429 30.075 -36.4629 30.15 -36.9629 30.15ZM-36.7229 28.935C-36.1929 28.935 -35.7529 28.795 -35.4029 28.515C-35.0429 28.225 -34.7779 27.86 -34.6079 27.42C-34.4279 26.97 -34.3379 26.505 -34.3379 26.025C-34.3379 25.535 -34.4279 25.07 -34.6079 24.63C-34.7779 24.19 -35.0429 23.83 -35.4029 23.55C-35.7529 23.26 -36.1929 23.115 -36.7229 23.115C-37.2529 23.115 -37.6979 23.26 -38.0579 23.55C-38.4179 23.83 -38.6879 24.19 -38.8679 24.63C-39.0379 25.07 -39.1229 25.535 -39.1229 26.025C-39.1229 26.505 -39.0379 26.97 -38.8679 27.42C-38.6879 27.86 -38.4179 28.225 -38.0579 28.515C-37.6979 28.795 -37.2529 28.935 -36.7229 28.935ZM-31.0777 32.265L-25.8727 17.64H-24.5077L-29.7127 32.265H-31.0777ZM-22.9338 30V18.9H-19.0038C-18.2138 18.9 -17.5588 19.055 -17.0388 19.365C-16.5188 19.675 -16.1288 20.075 -15.8688 20.565C-15.6088 21.055 -15.4788 21.57 -15.4788 22.11C-15.4788 22.56 -15.5688 22.995 -15.7488 23.415C-15.9288 23.835 -16.1988 24.205 -16.5588 24.525C-16.9088 24.835 -17.3538 25.06 -17.8938 25.2L-15.0888 30H-16.7538L-19.4388 25.335H-21.4638V30H-22.9338ZM-19.0188 20.19H-21.4638V24.075H-19.0188C-18.5588 24.075 -18.1788 23.98 -17.8788 23.79C-17.5788 23.6 -17.3538 23.36 -17.2038 23.07C-17.0538 22.77 -16.9788 22.46 -16.9788 22.14C-16.9788 21.81 -17.0538 21.5 -17.2038 21.21C-17.3538 20.91 -17.5788 20.665 -17.8788 20.475C-18.1788 20.285 -18.5588 20.19 -19.0188 20.19ZM-10.1963 30.15C-10.8463 30.15 -11.4113 30.035 -11.8913 29.805C-12.3613 29.565 -12.7513 29.245 -13.0613 28.845C-13.3613 28.445 -13.5863 28.005 -13.7363 27.525C-13.8863 27.035 -13.9613 26.535 -13.9613 26.025C-13.9613 25.525 -13.8913 25.03 -13.7513 24.54C-13.6013 24.05 -13.3763 23.605 -13.0763 23.205C-12.7663 22.805 -12.3813 22.49 -11.9213 22.26C-11.4513 22.02 -10.8963 21.9 -10.2563 21.9C-9.57633 21.9 -8.97633 22.055 -8.45633 22.365C-7.93633 22.675 -7.52633 23.135 -7.22633 23.745C-6.92633 24.355 -6.77633 25.12 -6.77633 26.04V26.46H-12.5213C-12.4913 26.91 -12.3863 27.325 -12.2063 27.705C-12.0163 28.075 -11.7513 28.375 -11.4113 28.605C-11.0713 28.825 -10.6663 28.935 -10.1963 28.935C-9.78633 28.935 -9.45633 28.87 -9.20633 28.74C-8.94633 28.6 -8.74133 28.44 -8.59133 28.26C-8.44133 28.08 -8.34133 27.925 -8.29133 27.795C-8.23133 27.655 -8.20133 27.585 -8.20133 27.585H-6.86633C-6.86633 27.585 -6.89133 27.675 -6.94133 27.855C-6.99133 28.025 -7.08133 28.235 -7.21133 28.485C-7.34133 28.735 -7.53133 28.99 -7.78133 29.25C-8.03133 29.5 -8.35133 29.715 -8.74133 29.895C-9.13133 30.065 -9.61633 30.15 -10.1963 30.15ZM-12.5063 25.35H-8.17133C-8.19133 24.83 -8.30133 24.41 -8.50133 24.09C-8.70133 23.76 -8.95633 23.515 -9.26633 23.355C-9.57633 23.195 -9.90633 23.115 -10.2563 23.115C-10.8863 23.115 -11.4013 23.32 -11.8013 23.73C-12.2013 24.13 -12.4363 24.67 -12.5063 25.35ZM-4.83184 30V22.05H-3.40684V23.205H-3.34684C-3.26684 23.055 -3.14184 22.88 -2.97184 22.68C-2.80184 22.47 -2.57184 22.29 -2.28184 22.14C-1.98184 21.98 -1.60684 21.9 -1.15684 21.9C-0.566836 21.9 -0.0718356 22.045 0.328165 22.335C0.738164 22.615 1.04316 22.995 1.24316 23.475H1.25816C1.47816 23.035 1.78816 22.665 2.18816 22.365C2.59816 22.055 3.12816 21.9 3.77816 21.9C4.63816 21.9 5.29816 22.195 5.75816 22.785C6.22816 23.365 6.46316 24.115 6.46316 25.035V30H5.03816V25.11C5.03816 24.52 4.89816 24.045 4.61816 23.685C4.33816 23.315 3.93316 23.13 3.40316 23.13C2.94316 23.13 2.57316 23.255 2.29316 23.505C2.02316 23.755 1.82816 24.065 1.70816 24.435C1.58816 24.805 1.52816 25.175 1.52816 25.545V30H0.103164V25.11C0.103164 24.52 -0.0368356 24.045 -0.316836 23.685C-0.586836 23.315 -0.991836 23.13 -1.53184 23.13C-1.99184 23.13 -2.36184 23.255 -2.64184 23.505C-2.91184 23.755 -3.10684 24.07 -3.22684 24.45C-3.34684 24.82 -3.40684 25.185 -3.40684 25.545V30H-4.83184ZM12.3218 30.15C11.4718 30.15 10.7568 29.955 10.1768 29.565C9.59684 29.165 9.15684 28.65 8.85684 28.02C8.55684 27.39 8.40684 26.725 8.40684 26.025C8.40684 25.315 8.55684 24.65 8.85684 24.03C9.15684 23.4 9.59684 22.89 10.1768 22.5C10.7568 22.1 11.4718 21.9 12.3218 21.9C13.1718 21.9 13.8868 22.1 14.4668 22.5C15.0468 22.89 15.4868 23.4 15.7868 24.03C16.0868 24.65 16.2368 25.315 16.2368 26.025C16.2368 26.725 16.0868 27.39 15.7868 28.02C15.4868 28.65 15.0468 29.165 14.4668 29.565C13.8868 29.955 13.1718 30.15 12.3218 30.15ZM12.3218 28.905C12.8618 28.905 13.3118 28.77 13.6718 28.5C14.0418 28.22 14.3168 27.86 14.4968 27.42C14.6868 26.98 14.7818 26.515 14.7818 26.025C14.7818 25.525 14.6868 25.06 14.4968 24.63C14.3168 24.19 14.0418 23.835 13.6718 23.565C13.3118 23.285 12.8618 23.145 12.3218 23.145C11.7918 23.145 11.3418 23.285 10.9718 23.565C10.6018 23.835 10.3218 24.19 10.1318 24.63C9.95184 25.06 9.86184 25.525 9.86184 26.025C9.86184 26.515 9.95184 26.98 10.1318 27.42C10.3218 27.86 10.6018 28.22 10.9718 28.5C11.3418 28.77 11.7918 28.905 12.3218 28.905ZM20.3929 30L17.3629 22.05H18.8479L21.1729 28.26L23.4529 22.05H24.9529L21.9079 30H20.3929ZM29.8525 30.15C29.2025 30.15 28.6375 30.035 28.1575 29.805C27.6875 29.565 27.2975 29.245 26.9875 28.845C26.6875 28.445 26.4625 28.005 26.3125 27.525C26.1625 27.035 26.0875 26.535 26.0875 26.025C26.0875 25.525 26.1575 25.03 26.2975 24.54C26.4475 24.05 26.6725 23.605 26.9725 23.205C27.2825 22.805 27.6675 22.49 28.1275 22.26C28.5975 22.02 29.1525 21.9 29.7925 21.9C30.4725 21.9 31.0725 22.055 31.5925 22.365C32.1125 22.675 32.5225 23.135 32.8225 23.745C33.1225 24.355 33.2725 25.12 33.2725 26.04V26.46H27.5275C27.5575 26.91 27.6625 27.325 27.8425 27.705C28.0325 28.075 28.2975 28.375 28.6375 28.605C28.9775 28.825 29.3825 28.935 29.8525 28.935C30.2625 28.935 30.5925 28.87 30.8425 28.74C31.1025 28.6 31.3075 28.44 31.4575 28.26C31.6075 28.08 31.7075 27.925 31.7575 27.795C31.8175 27.655 31.8475 27.585 31.8475 27.585H33.1825C33.1825 27.585 33.1575 27.675 33.1075 27.855C33.0575 28.025 32.9675 28.235 32.8375 28.485C32.7075 28.735 32.5175 28.99 32.2675 29.25C32.0175 29.5 31.6975 29.715 31.3075 29.895C30.9175 30.065 30.4325 30.15 29.8525 30.15ZM27.5425 25.35H31.8775C31.8575 24.83 31.7475 24.41 31.5475 24.09C31.3475 23.76 31.0925 23.515 30.7825 23.355C30.4725 23.195 30.1425 23.115 29.7925 23.115C29.1625 23.115 28.6475 23.32 28.2475 23.73C27.8475 24.13 27.6125 24.67 27.5425 25.35ZM38.299 30L42.214 18.9H44.059L47.989 30H46.429L45.499 27.345H40.789L39.859 30H38.299ZM41.239 26.025H45.049L43.144 20.58L41.239 26.025ZM52.876 30.15C52.276 30.15 51.751 30.035 51.301 29.805C50.851 29.565 50.476 29.25 50.176 28.86C49.876 28.46 49.651 28.015 49.501 27.525C49.351 27.035 49.276 26.535 49.276 26.025C49.276 25.515 49.351 25.015 49.501 24.525C49.651 24.035 49.876 23.595 50.176 23.205C50.476 22.805 50.851 22.49 51.301 22.26C51.751 22.02 52.276 21.9 52.876 21.9C53.376 21.9 53.796 21.98 54.136 22.14C54.476 22.3 54.751 22.49 54.961 22.71C55.171 22.92 55.331 23.12 55.441 23.31H55.531V18.6H56.956V30H55.531V28.74H55.441C55.331 28.93 55.171 29.135 54.961 29.355C54.751 29.575 54.476 29.765 54.136 29.925C53.796 30.075 53.376 30.15 52.876 30.15ZM53.116 28.935C53.646 28.935 54.086 28.795 54.436 28.515C54.796 28.225 55.061 27.86 55.231 27.42C55.411 26.97 55.501 26.505 55.501 26.025C55.501 25.535 55.411 25.07 55.231 24.63C55.061 24.19 54.796 23.83 54.436 23.55C54.086 23.26 53.646 23.115 53.116 23.115C52.586 23.115 52.141 23.26 51.781 23.55C51.421 23.83 51.151 24.19 50.971 24.63C50.801 25.07 50.716 25.535 50.716 26.025C50.716 26.505 50.801 26.97 50.971 27.42C51.151 27.86 51.421 28.225 51.781 28.515C52.141 28.795 52.586 28.935 53.116 28.935ZM62.6611 30.15C62.0611 30.15 61.5361 30.035 61.0861 29.805C60.6361 29.565 60.2611 29.25 59.9611 28.86C59.6611 28.46 59.4361 28.015 59.2861 27.525C59.1361 27.035 59.0611 26.535 59.0611 26.025C59.0611 25.515 59.1361 25.015 59.2861 24.525C59.4361 24.035 59.6611 23.595 59.9611 23.205C60.2611 22.805 60.6361 22.49 61.0861 22.26C61.5361 22.02 62.0611 21.9 62.6611 21.9C63.1611 21.9 63.5811 21.98 63.9211 22.14C64.2611 22.3 64.5361 22.49 64.7461 22.71C64.9561 22.92 65.1161 23.12 65.2261 23.31H65.3161V18.6H66.7411V30H65.3161V28.74H65.2261C65.1161 28.93 64.9561 29.135 64.7461 29.355C64.5361 29.575 64.2611 29.765 63.9211 29.925C63.5811 30.075 63.1611 30.15 62.6611 30.15ZM62.9011 28.935C63.4311 28.935 63.8711 28.795 64.2211 28.515C64.5811 28.225 64.8461 27.86 65.0161 27.42C65.1961 26.97 65.2861 26.505 65.2861 26.025C65.2861 25.535 65.1961 25.07 65.0161 24.63C64.8461 24.19 64.5811 23.83 64.2211 23.55C63.8711 23.26 63.4311 23.115 62.9011 23.115C62.3711 23.115 61.9261 23.26 61.5661 23.55C61.2061 23.83 60.9361 24.19 60.7561 24.63C60.5861 25.07 60.5011 25.535 60.5011 26.025C60.5011 26.505 60.5861 26.97 60.7561 27.42C60.9361 27.86 61.2061 28.225 61.5661 28.515C61.9261 28.795 62.3711 28.935 62.9011 28.935ZM68.9963 30V22.05H70.4213V23.04H70.4813C70.6513 22.74 70.9013 22.475 71.2313 22.245C71.5613 22.015 72.0263 21.9 72.6263 21.9C72.7963 21.9 72.9513 21.91 73.0913 21.93C73.2313 21.94 73.3013 21.945 73.3013 21.945V23.31C73.3013 23.31 73.2213 23.305 73.0613 23.295C72.9113 23.275 72.7513 23.265 72.5813 23.265C71.8913 23.265 71.3563 23.465 70.9763 23.865C70.6063 24.255 70.4213 24.895 70.4213 25.785V30H68.9963ZM77.8847 30.15C77.2347 30.15 76.6697 30.035 76.1897 29.805C75.7197 29.565 75.3297 29.245 75.0197 28.845C74.7197 28.445 74.4947 28.005 74.3447 27.525C74.1947 27.035 74.1197 26.535 74.1197 26.025C74.1197 25.525 74.1897 25.03 74.3297 24.54C74.4797 24.05 74.7047 23.605 75.0047 23.205C75.3147 22.805 75.6997 22.49 76.1597 22.26C76.6297 22.02 77.1847 21.9 77.8247 21.9C78.5047 21.9 79.1047 22.055 79.6247 22.365C80.1447 22.675 80.5547 23.135 80.8547 23.745C81.1547 24.355 81.3047 25.12 81.3047 26.04V26.46H75.5597C75.5897 26.91 75.6947 27.325 75.8747 27.705C76.0647 28.075 76.3297 28.375 76.6697 28.605C77.0097 28.825 77.4147 28.935 77.8847 28.935C78.2947 28.935 78.6247 28.87 78.8747 28.74C79.1347 28.6 79.3397 28.44 79.4897 28.26C79.6397 28.08 79.7397 27.925 79.7897 27.795C79.8497 27.655 79.8797 27.585 79.8797 27.585H81.2147C81.2147 27.585 81.1897 27.675 81.1397 27.855C81.0897 28.025 80.9997 28.235 80.8697 28.485C80.7397 28.735 80.5497 28.99 80.2997 29.25C80.0497 29.5 79.7297 29.715 79.3397 29.895C78.9497 30.065 78.4647 30.15 77.8847 30.15ZM75.5747 25.35H79.9097C79.8897 24.83 79.7797 24.41 79.5797 24.09C79.3797 23.76 79.1247 23.515 78.8147 23.355C78.5047 23.195 78.1747 23.115 77.8247 23.115C77.1947 23.115 76.6797 23.32 76.2797 23.73C75.8797 24.13 75.6447 24.67 75.5747 25.35ZM86.1592 30.15C85.5492 30.15 85.0442 30.065 84.6442 29.895C84.2542 29.725 83.9442 29.515 83.7142 29.265C83.4842 29.005 83.3142 28.75 83.2042 28.5C83.0942 28.24 83.0242 28.025 82.9942 27.855C82.9642 27.685 82.9492 27.6 82.9492 27.6H84.3892C84.3892 27.6 84.4042 27.67 84.4342 27.81C84.4742 27.94 84.5492 28.095 84.6592 28.275C84.7792 28.445 84.9592 28.6 85.1992 28.74C85.4492 28.87 85.7792 28.935 86.1892 28.935C86.6592 28.935 87.0242 28.825 87.2842 28.605C87.5442 28.375 87.6742 28.095 87.6742 27.765C87.6742 27.475 87.5692 27.245 87.3592 27.075C87.1592 26.905 86.8692 26.775 86.4892 26.685L85.4092 26.43C85.0092 26.33 84.6342 26.195 84.2842 26.025C83.9342 25.855 83.6492 25.625 83.4292 25.335C83.2192 25.035 83.1142 24.665 83.1142 24.225C83.1142 23.545 83.3692 22.99 83.8792 22.56C84.3892 22.12 85.0542 21.9 85.8742 21.9C86.4242 21.9 86.8792 21.98 87.2392 22.14C87.5992 22.29 87.8842 22.48 88.0942 22.71C88.3142 22.94 88.4742 23.17 88.5742 23.4C88.6842 23.63 88.7542 23.825 88.7842 23.985C88.8142 24.135 88.8292 24.21 88.8292 24.21H87.4492C87.4492 24.21 87.4342 24.155 87.4042 24.045C87.3742 23.925 87.3042 23.795 87.1942 23.655C87.0942 23.505 86.9392 23.375 86.7292 23.265C86.5192 23.145 86.2392 23.085 85.8892 23.085C85.4092 23.085 85.0592 23.195 84.8392 23.415C84.6192 23.635 84.5092 23.875 84.5092 24.135C84.5092 24.385 84.6092 24.59 84.8092 24.75C85.0192 24.9 85.2892 25.015 85.6192 25.095L86.7142 25.35C87.3942 25.51 87.9542 25.775 88.3942 26.145C88.8442 26.505 89.0692 27.025 89.0692 27.705C89.0692 28.145 88.9542 28.555 88.7242 28.935C88.4942 29.305 88.1642 29.6 87.7342 29.82C87.3042 30.04 86.7792 30.15 86.1592 30.15ZM93.7764 30.15C93.1664 30.15 92.6614 30.065 92.2614 29.895C91.8714 29.725 91.5614 29.515 91.3314 29.265C91.1014 29.005 90.9314 28.75 90.8214 28.5C90.7114 28.24 90.6414 28.025 90.6114 27.855C90.5814 27.685 90.5664 27.6 90.5664 27.6H92.0064C92.0064 27.6 92.0214 27.67 92.0514 27.81C92.0914 27.94 92.1664 28.095 92.2764 28.275C92.3964 28.445 92.5764 28.6 92.8164 28.74C93.0664 28.87 93.3964 28.935 93.8064 28.935C94.2764 28.935 94.6414 28.825 94.9014 28.605C95.1614 28.375 95.2914 28.095 95.2914 27.765C95.2914 27.475 95.1864 27.245 94.9764 27.075C94.7764 26.905 94.4864 26.775 94.1064 26.685L93.0264 26.43C92.6264 26.33 92.2514 26.195 91.9014 26.025C91.5514 25.855 91.2664 25.625 91.0464 25.335C90.8364 25.035 90.7314 24.665 90.7314 24.225C90.7314 23.545 90.9864 22.99 91.4964 22.56C92.0064 22.12 92.6714 21.9 93.4914 21.9C94.0414 21.9 94.4964 21.98 94.8564 22.14C95.2164 22.29 95.5014 22.48 95.7114 22.71C95.9314 22.94 96.0914 23.17 96.1914 23.4C96.3014 23.63 96.3714 23.825 96.4014 23.985C96.4314 24.135 96.4464 24.21 96.4464 24.21H95.0664C95.0664 24.21 95.0514 24.155 95.0214 24.045C94.9914 23.925 94.9214 23.795 94.8114 23.655C94.7114 23.505 94.5564 23.375 94.3464 23.265C94.1364 23.145 93.8564 23.085 93.5064 23.085C93.0264 23.085 92.6764 23.195 92.4564 23.415C92.2364 23.635 92.1264 23.875 92.1264 24.135C92.1264 24.385 92.2264 24.59 92.4264 24.75C92.6364 24.9 92.9064 25.015 93.2364 25.095L94.3314 25.35C95.0114 25.51 95.5714 25.775 96.0114 26.145C96.4614 26.505 96.6864 27.025 96.6864 27.705C96.6864 28.145 96.5714 28.555 96.3414 28.935C96.1114 29.305 95.7814 29.6 95.3514 29.82C94.9214 30.04 94.3964 30.15 93.7764 30.15ZM101.952 30.15C101.302 30.15 100.737 30.035 100.257 29.805C99.7871 29.565 99.3971 29.245 99.0871 28.845C98.7871 28.445 98.5621 28.005 98.4121 27.525C98.2621 27.035 98.1871 26.535 98.1871 26.025C98.1871 25.525 98.2571 25.03 98.3971 24.54C98.5471 24.05 98.7721 23.605 99.0721 23.205C99.3821 22.805 99.7671 22.49 100.227 22.26C100.697 22.02 101.252 21.9 101.892 21.9C102.572 21.9 103.172 22.055 103.692 22.365C104.212 22.675 104.622 23.135 104.922 23.745C105.222 24.355 105.372 25.12 105.372 26.04V26.46H99.6271C99.6571 26.91 99.7621 27.325 99.9421 27.705C100.132 28.075 100.397 28.375 100.737 28.605C101.077 28.825 101.482 28.935 101.952 28.935C102.362 28.935 102.692 28.87 102.942 28.74C103.202 28.6 103.407 28.44 103.557 28.26C103.707 28.08 103.807 27.925 103.857 27.795C103.917 27.655 103.947 27.585 103.947 27.585H105.282C105.282 27.585 105.257 27.675 105.207 27.855C105.157 28.025 105.067 28.235 104.937 28.485C104.807 28.735 104.617 28.99 104.367 29.25C104.117 29.5 103.797 29.715 103.407 29.895C103.017 30.065 102.532 30.15 101.952 30.15ZM99.6421 25.35H103.977C103.957 24.83 103.847 24.41 103.647 24.09C103.447 23.76 103.192 23.515 102.882 23.355C102.572 23.195 102.242 23.115 101.892 23.115C101.262 23.115 100.747 23.32 100.347 23.73C99.9471 24.13 99.7121 24.67 99.6421 25.35ZM110.227 30.15C109.617 30.15 109.112 30.065 108.712 29.895C108.322 29.725 108.012 29.515 107.782 29.265C107.552 29.005 107.382 28.75 107.272 28.5C107.162 28.24 107.092 28.025 107.062 27.855C107.032 27.685 107.017 27.6 107.017 27.6H108.457C108.457 27.6 108.472 27.67 108.502 27.81C108.542 27.94 108.617 28.095 108.727 28.275C108.847 28.445 109.027 28.6 109.267 28.74C109.517 28.87 109.847 28.935 110.257 28.935C110.727 28.935 111.092 28.825 111.352 28.605C111.612 28.375 111.742 28.095 111.742 27.765C111.742 27.475 111.637 27.245 111.427 27.075C111.227 26.905 110.937 26.775 110.557 26.685L109.477 26.43C109.077 26.33 108.702 26.195 108.352 26.025C108.002 25.855 107.717 25.625 107.497 25.335C107.287 25.035 107.182 24.665 107.182 24.225C107.182 23.545 107.437 22.99 107.947 22.56C108.457 22.12 109.122 21.9 109.942 21.9C110.492 21.9 110.947 21.98 111.307 22.14C111.667 22.29 111.952 22.48 112.162 22.71C112.382 22.94 112.542 23.17 112.642 23.4C112.752 23.63 112.822 23.825 112.852 23.985C112.882 24.135 112.897 24.21 112.897 24.21H111.517C111.517 24.21 111.502 24.155 111.472 24.045C111.442 23.925 111.372 23.795 111.262 23.655C111.162 23.505 111.007 23.375 110.797 23.265C110.587 23.145 110.307 23.085 109.957 23.085C109.477 23.085 109.127 23.195 108.907 23.415C108.687 23.635 108.577 23.875 108.577 24.135C108.577 24.385 108.677 24.59 108.877 24.75C109.087 24.9 109.357 25.015 109.687 25.095L110.782 25.35C111.462 25.51 112.022 25.775 112.462 26.145C112.912 26.505 113.137 27.025 113.137 27.705C113.137 28.145 113.022 28.555 112.792 28.935C112.562 29.305 112.232 29.6 111.802 29.82C111.372 30.04 110.847 30.15 110.227 30.15ZM-56.09 52C-56.94 51.87 -57.685 51.565 -58.325 51.085C-58.955 50.605 -59.485 50 -59.915 49.27C-60.335 48.55 -60.65 47.755 -60.86 46.885C-61.07 46.015 -61.175 45.13 -61.175 44.23C-61.175 43.32 -61.07 42.435 -60.86 41.575C-60.65 40.705 -60.335 39.91 -59.915 39.19C-59.485 38.46 -58.955 37.855 -58.325 37.375C-57.685 36.895 -56.94 36.59 -56.09 36.46V37.765C-56.69 37.905 -57.22 38.18 -57.68 38.59C-58.13 39 -58.51 39.505 -58.82 40.105C-59.12 40.695 -59.345 41.345 -59.495 42.055C-59.645 42.765 -59.72 43.49 -59.72 44.23C-59.72 44.97 -59.645 45.695 -59.495 46.405C-59.345 47.115 -59.12 47.77 -58.82 48.37C-58.51 48.96 -58.13 49.46 -57.68 49.87C-57.22 50.28 -56.69 50.555 -56.09 50.695V52ZM-51.8532 49L-54.8082 37.9H-53.2932L-50.9982 46.84L-48.5832 37.9H-47.1432L-44.7282 46.81L-42.4482 37.9H-40.9332L-43.8882 49H-45.5682L-47.8632 40.465L-50.1732 49H-51.8532ZM-39.135 49V37.6H-37.71V42.205H-37.62C-37.55 42.085 -37.435 41.92 -37.275 41.71C-37.105 41.5 -36.865 41.315 -36.555 41.155C-36.245 40.985 -35.855 40.9 -35.385 40.9C-34.805 40.9 -34.31 41.035 -33.9 41.305C-33.49 41.565 -33.18 41.92 -32.97 42.37C-32.75 42.82 -32.64 43.325 -32.64 43.885V49H-34.065V43.975C-34.065 43.445 -34.215 43.005 -34.515 42.655C-34.805 42.305 -35.23 42.13 -35.79 42.13C-36.24 42.13 -36.605 42.245 -36.885 42.475C-37.165 42.695 -37.375 42.99 -37.515 43.36C-37.645 43.72 -37.71 44.105 -37.71 44.515V49H-39.135ZM-29.6098 39.535C-29.8798 39.535 -30.1048 39.445 -30.2848 39.265C-30.4548 39.085 -30.5398 38.87 -30.5398 38.62C-30.5398 38.36 -30.4548 38.14 -30.2848 37.96C-30.1048 37.78 -29.8798 37.69 -29.6098 37.69C-29.3498 37.69 -29.1298 37.78 -28.9498 37.96C-28.7698 38.14 -28.6798 38.36 -28.6798 38.62C-28.6798 38.87 -28.7698 39.085 -28.9498 39.265C-29.1298 39.445 -29.3498 39.535 -29.6098 39.535ZM-30.3148 49V41.05H-28.8898V49H-30.3148ZM-23.2098 49.15C-24.0298 49.15 -24.6498 48.94 -25.0698 48.52C-25.4798 48.1 -25.6848 47.51 -25.6848 46.75V42.22H-27.1098V41.05H-25.6848V39.055H-24.2598V41.05H-22.3248V42.22H-24.2598V46.75C-24.2598 47.15 -24.1498 47.445 -23.9298 47.635C-23.7098 47.815 -23.3898 47.905 -22.9698 47.905C-22.7498 47.905 -22.5398 47.89 -22.3398 47.86C-22.1398 47.83 -22.0398 47.815 -22.0398 47.815V49.03C-22.0398 49.03 -22.1548 49.05 -22.3848 49.09C-22.6148 49.13 -22.8898 49.15 -23.2098 49.15ZM-16.8467 49.15C-17.4967 49.15 -18.0617 49.035 -18.5417 48.805C-19.0117 48.565 -19.4017 48.245 -19.7117 47.845C-20.0117 47.445 -20.2367 47.005 -20.3867 46.525C-20.5367 46.035 -20.6117 45.535 -20.6117 45.025C-20.6117 44.525 -20.5417 44.03 -20.4017 43.54C-20.2517 43.05 -20.0267 42.605 -19.7267 42.205C-19.4167 41.805 -19.0317 41.49 -18.5717 41.26C-18.1017 41.02 -17.5467 40.9 -16.9067 40.9C-16.2267 40.9 -15.6267 41.055 -15.1067 41.365C-14.5867 41.675 -14.1767 42.135 -13.8767 42.745C-13.5767 43.355 -13.4267 44.12 -13.4267 45.04V45.46H-19.1717C-19.1417 45.91 -19.0367 46.325 -18.8567 46.705C-18.6667 47.075 -18.4017 47.375 -18.0617 47.605C-17.7217 47.825 -17.3167 47.935 -16.8467 47.935C-16.4367 47.935 -16.1067 47.87 -15.8567 47.74C-15.5967 47.6 -15.3917 47.44 -15.2417 47.26C-15.0917 47.08 -14.9917 46.925 -14.9417 46.795C-14.8817 46.655 -14.8517 46.585 -14.8517 46.585H-13.5167C-13.5167 46.585 -13.5417 46.675 -13.5917 46.855C-13.6417 47.025 -13.7317 47.235 -13.8617 47.485C-13.9917 47.735 -14.1817 47.99 -14.4317 48.25C-14.6817 48.5 -15.0017 48.715 -15.3917 48.895C-15.7817 49.065 -16.2667 49.15 -16.8467 49.15ZM-19.1567 44.35H-14.8217C-14.8417 43.83 -14.9517 43.41 -15.1517 43.09C-15.3517 42.76 -15.6067 42.515 -15.9167 42.355C-16.2267 42.195 -16.5567 42.115 -16.9067 42.115C-17.5367 42.115 -18.0517 42.32 -18.4517 42.73C-18.8517 43.13 -19.0867 43.67 -19.1567 44.35ZM-11.3322 49L-11.3172 37.6H-9.90723V49H-11.3322ZM-6.72898 39.535C-6.99898 39.535 -7.22398 39.445 -7.40398 39.265C-7.57398 39.085 -7.65898 38.87 -7.65898 38.62C-7.65898 38.36 -7.57398 38.14 -7.40398 37.96C-7.22398 37.78 -6.99898 37.69 -6.72898 37.69C-6.46898 37.69 -6.24898 37.78 -6.06898 37.96C-5.88898 38.14 -5.79898 38.36 -5.79898 38.62C-5.79898 38.87 -5.88898 39.085 -6.06898 39.265C-6.24898 39.445 -6.46898 39.535 -6.72898 39.535ZM-7.43398 49V41.05H-6.00898V49H-7.43398ZM-0.793906 49.15C-1.40391 49.15 -1.90891 49.065 -2.30891 48.895C-2.69891 48.725 -3.00891 48.515 -3.23891 48.265C-3.46891 48.005 -3.63891 47.75 -3.74891 47.5C-3.85891 47.24 -3.92891 47.025 -3.95891 46.855C-3.98891 46.685 -4.00391 46.6 -4.00391 46.6H-2.56391C-2.56391 46.6 -2.54891 46.67 -2.51891 46.81C-2.47891 46.94 -2.40391 47.095 -2.29391 47.275C-2.17391 47.445 -1.99391 47.6 -1.75391 47.74C-1.50391 47.87 -1.17391 47.935 -0.763906 47.935C-0.293906 47.935 0.0710941 47.825 0.331094 47.605C0.591094 47.375 0.721094 47.095 0.721094 46.765C0.721094 46.475 0.616094 46.245 0.406094 46.075C0.206094 45.905 -0.0839062 45.775 -0.463906 45.685L-1.54391 45.43C-1.94391 45.33 -2.31891 45.195 -2.66891 45.025C-3.01891 44.855 -3.30391 44.625 -3.52391 44.335C-3.73391 44.035 -3.83891 43.665 -3.83891 43.225C-3.83891 42.545 -3.58391 41.99 -3.07391 41.56C-2.56391 41.12 -1.89891 40.9 -1.07891 40.9C-0.528906 40.9 -0.073906 40.98 0.286094 41.14C0.646094 41.29 0.931094 41.48 1.14109 41.71C1.36109 41.94 1.52109 42.17 1.62109 42.4C1.73109 42.63 1.80109 42.825 1.83109 42.985C1.86109 43.135 1.87609 43.21 1.87609 43.21H0.496094C0.496094 43.21 0.481094 43.155 0.451094 43.045C0.421094 42.925 0.351094 42.795 0.241094 42.655C0.141094 42.505 -0.013906 42.375 -0.223906 42.265C-0.433906 42.145 -0.713906 42.085 -1.06391 42.085C-1.54391 42.085 -1.89391 42.195 -2.11391 42.415C-2.33391 42.635 -2.44391 42.875 -2.44391 43.135C-2.44391 43.385 -2.34391 43.59 -2.14391 43.75C-1.93391 43.9 -1.66391 44.015 -1.33391 44.095L-0.238906 44.35C0.441094 44.51 1.00109 44.775 1.44109 45.145C1.89109 45.505 2.11609 46.025 2.11609 46.705C2.11609 47.145 2.00109 47.555 1.77109 47.935C1.54109 48.305 1.21109 48.6 0.781094 48.82C0.351094 49.04 -0.173906 49.15 -0.793906 49.15ZM7.1418 49.15C6.3218 49.15 5.7018 48.94 5.2818 48.52C4.8718 48.1 4.6668 47.51 4.6668 46.75V42.22H3.2418V41.05H4.6668V39.055H6.0918V41.05H8.0268V42.22H6.0918V46.75C6.0918 47.15 6.2018 47.445 6.4218 47.635C6.6418 47.815 6.9618 47.905 7.3818 47.905C7.6018 47.905 7.8118 47.89 8.0118 47.86C8.2118 47.83 8.3118 47.815 8.3118 47.815V49.03C8.3118 49.03 8.1968 49.05 7.9668 49.09C7.7368 49.13 7.4618 49.15 7.1418 49.15ZM9.80781 36.46C10.6578 36.59 11.3978 36.895 12.0278 37.375C12.6678 37.855 13.1978 38.46 13.6178 39.19C14.0478 39.91 14.3678 40.705 14.5778 41.575C14.7878 42.445 14.8928 43.33 14.8928 44.23C14.8928 45.14 14.7878 46.03 14.5778 46.9C14.3678 47.76 14.0478 48.55 13.6178 49.27C13.1978 50 12.6678 50.605 12.0278 51.085C11.3978 51.565 10.6578 51.87 9.80781 52V50.695C10.4078 50.555 10.9328 50.28 11.3828 49.87C11.8428 49.46 12.2228 48.96 12.5228 48.37C12.8328 47.77 13.0628 47.115 13.2128 46.405C13.3628 45.695 13.4378 44.97 13.4378 44.23C13.4378 43.49 13.3628 42.765 13.2128 42.055C13.0628 41.345 12.8328 40.695 12.5228 40.105C12.2228 39.505 11.8428 39 11.3828 38.59C10.9328 38.18 10.4078 37.905 9.80781 37.765V36.46Z" fill="black"/>
</g>
<g filter="url(#filter1_d_221_1450)">
<rect width="390" height="70" transform="translate(-105 -22)" fill="white"/>
<path d="M10 0.5C6.55375 0.5 3.75 3.30375 3.75 6.75V9.25H2.5C1.12125 9.25 1.90735e-06 10.3713 1.90735e-06 11.75V23C1.90735e-06 24.3787 1.12125 25.5 2.5 25.5H17.5C18.8787 25.5 20 24.3787 20 23V11.75C20 10.3713 18.8787 9.25 17.5 9.25H16.25V6.75C16.25 3.30375 13.4462 0.5 10 0.5ZM6.25 6.75C6.25 4.6825 7.9325 3 10 3C12.0675 3 13.75 4.6825 13.75 6.75V9.25H6.25V6.75ZM17.5025 23H11.25V20.1525C11.9937 19.7188 12.5 18.9212 12.5 18C12.5 16.6213 11.3787 15.5 10 15.5C8.62125 15.5 7.5 16.6213 7.5 18C7.5 18.92 8.00625 19.7188 8.75 20.1525V23H2.5V11.75H17.5L17.5025 23Z" fill="#222222"/>
</g>
</g>
<defs>
<filter id="filter0_d_221_1450" x="-96" y="-175" width="376" height="476" filterUnits="userSpaceOnUse" color-interpolation-filters="sRGB">
<feFlood flood-opacity="0" result="BackgroundImageFix"/>
<feColorMatrix in="SourceAlpha" type="matrix" values="0 0 0 0 0 0 0 0 0 0 0 0 0 0 0 0 0 0 127 0" result="hardAlpha"/>
<feOffset dx="2" dy="4"/>
<feGaussianBlur stdDeviation="6.5"/>
<feComposite in2="hardAlpha" operator="out"/>
<feColorMatrix type="matrix" values="0 0 0 0 0 0 0 0 0 0 0 0 0 0 0 0 0 0 0.02 0"/>
<feBlend mode="normal" in2="BackgroundImageFix" result="effect1_dropShadow_221_1450"/>
<feBlend mode="normal" in="SourceGraphic" in2="effect1_dropShadow_221_1450" result="shape"/>
</filter>
<filter id="filter1_d_221_1450" x="-115" y="-33" width="410" height="90" filterUnits="userSpaceOnUse" color-interpolation-filters="sRGB">
<feFlood flood-opacity="0" result="BackgroundImageFix"/>
<feColorMatrix in="SourceAlpha" type="matrix" values="0 0 0 0 0 0 0 0 0 0 0 0 0 0 0 0 0 0 127 0" result="hardAlpha"/>
<feOffset dy="-1"/>
<feGaussianBlur stdDeviation="5"/>
<feComposite in2="hardAlpha" operator="out"/>
<feColorMatrix type="matrix" values="0 0 0 0 0 0 0 0 0 0 0 0 0 0 0 0 0 0 0.11 0"/>
<feBlend mode="normal" in2="BackgroundImageFix" result="effect1_dropShadow_221_1450"/>
<feBlend mode="normal" in="SourceGraphic" in2="effect1_dropShadow_221_1450" result="shape"/>
</filter>
<clipPath id="clip0_221_1450">
<rect width="390" height="844" fill="white" transform="translate(-105 -795)"/>
</clipPath>
</defs>
</svg>
