<svg width="20" height="26" viewBox="0 0 20 26" fill="none" xmlns="http://www.w3.org/2000/svg">
<rect width="20" height="26" fill="#E5E5E5"/>
<g clip-path="url(#clip0_221_1450)">
<rect width="390" height="844" transform="translate(-105 -796)" fill="#F2F6FA"/>
<g filter="url(#filter0_d_221_1450)">
<rect width="390" height="70" transform="translate(-105 -22)" fill="white"/>
<path d="M10 0.5C6.55375 0.5 3.75 3.30375 3.75 6.75V9.25H2.5C1.12125 9.25 1.90735e-06 10.3713 1.90735e-06 11.75V23C1.90735e-06 24.3787 1.12125 25.5 2.5 25.5H17.5C18.8787 25.5 20 24.3787 20 23V11.75C20 10.3713 18.8787 9.25 17.5 9.25H16.25V6.75C16.25 3.30375 13.4462 0.5 10 0.5ZM6.25 6.75C6.25 4.6825 7.9325 3 10 3C12.0675 3 13.75 4.6825 13.75 6.75V9.25H6.25V6.75ZM17.5025 23H11.25V20.1525C11.9937 19.7188 12.5 18.9212 12.5 18C12.5 16.6213 11.3787 15.5 10 15.5C8.62125 15.5 7.5 16.6213 7.5 18C7.5 18.92 8.00625 19.7188 8.75 20.1525V23H2.5V11.75H17.5L17.5025 23Z" fill="#6E00FF"/>
</g>
</g>
<defs>
<filter id="filter0_d_221_1450" x="-115" y="-33" width="410" height="90" filterUnits="userSpaceOnUse" color-interpolation-filters="sRGB">
<feFlood flood-opacity="0" result="BackgroundImageFix"/>
<feColorMatrix in="SourceAlpha" type="matrix" values="0 0 0 0 0 0 0 0 0 0 0 0 0 0 0 0 0 0 127 0" result="hardAlpha"/>
<feOffset dy="-1"/>
<feGaussianBlur stdDeviation="5"/>
<feComposite in2="hardAlpha" operator="out"/>
<feColorMatrix type="matrix" values="0 0 0 0 0 0 0 0 0 0 0 0 0 0 0 0 0 0 0.11 0"/>
<feBlend mode="normal" in2="BackgroundImageFix" result="effect1_dropShadow_221_1450"/>
<feBlend mode="normal" in="SourceGraphic" in2="effect1_dropShadow_221_1450" result="shape"/>
</filter>
<clipPath id="clip0_221_1450">
<rect width="390" height="844" fill="white" transform="translate(-105 -796)"/>
</clipPath>
</defs>
</svg>
