<svg width="14" height="18" viewBox="0 0 14 18" fill="none" xmlns="http://www.w3.org/2000/svg">
<rect width="14" height="18" fill="#E5E5E5"/>
<g filter="url(#filter0_d_221_1450)">
<g clip-path="url(#clip0_221_1450)">
<rect x="-33" y="-259" width="390" height="844" rx="15" fill="#F2F6FA"/>
<g filter="url(#filter1_d_221_1450)">
<rect x="-6" y="-151" width="163.705" height="270.635" rx="10" fill="#FEFEFF"/>
<path d="M0.4 15L2.98 7.6H4.48L7.07 15H5.84L5.27 13.34H2.2L1.63 15H0.4ZM2.55 12.3H4.92L3.74 8.85L2.55 12.3ZM11.1007 15.1C10.7607 15.1 10.4774 15.0467 10.2507 14.94C10.0307 14.8333 9.85404 14.71 9.7207 14.57C9.59404 14.43 9.49737 14.31 9.4307 14.21H9.3707V15H8.2307V7.4H9.3707V10.49H9.4307C9.49737 10.39 9.59404 10.27 9.7207 10.13C9.85404 9.99 10.0307 9.86667 10.2507 9.76C10.4774 9.65333 10.7607 9.6 11.1007 9.6C11.494 9.6 11.8407 9.68 12.1407 9.84C12.4407 9.99333 12.6874 10.2033 12.8807 10.47C13.0807 10.73 13.2274 11.0233 13.3207 11.35C13.4207 11.6767 13.4707 12.01 13.4707 12.35C13.4707 12.69 13.4207 13.0233 13.3207 13.35C13.2274 13.6767 13.0807 13.9733 12.8807 14.24C12.6874 14.5 12.4407 14.71 12.1407 14.87C11.8407 15.0233 11.494 15.1 11.1007 15.1ZM10.8407 14.15C11.174 14.15 11.4474 14.0633 11.6607 13.89C11.8807 13.71 12.044 13.4833 12.1507 13.21C12.264 12.9367 12.3207 12.65 12.3207 12.35C12.3207 12.05 12.264 11.7633 12.1507 11.49C12.044 11.2167 11.8807 10.9933 11.6607 10.82C11.4474 10.64 11.174 10.55 10.8407 10.55C10.514 10.55 10.2407 10.64 10.0207 10.82C9.80737 10.9933 9.64404 11.2167 9.5307 11.49C9.42404 11.7633 9.3707 12.05 9.3707 12.35C9.3707 12.65 9.42404 12.9367 9.5307 13.21C9.64404 13.4833 9.80737 13.71 10.0207 13.89C10.2407 14.0633 10.514 14.15 10.8407 14.15ZM17.2341 15.1C16.6541 15.1 16.1641 14.97 15.7641 14.71C15.3708 14.45 15.0708 14.11 14.8641 13.69C14.6641 13.27 14.5641 12.8233 14.5641 12.35C14.5641 11.8767 14.6641 11.43 14.8641 11.01C15.0708 10.59 15.3708 10.25 15.7641 9.99C16.1641 9.73 16.6541 9.6 17.2341 9.6C17.8075 9.6 18.2908 9.73 18.6841 9.99C19.0841 10.25 19.3841 10.59 19.5841 11.01C19.7908 11.43 19.8941 11.8767 19.8941 12.35C19.8941 12.8233 19.7908 13.27 19.5841 13.69C19.3841 14.11 19.0841 14.45 18.6841 14.71C18.2908 14.97 17.8075 15.1 17.2341 15.1ZM17.2341 14.13C17.5608 14.13 17.8341 14.0467 18.0541 13.88C18.2808 13.7133 18.4508 13.4933 18.5641 13.22C18.6841 12.9467 18.7441 12.6567 18.7441 12.35C18.7441 12.0367 18.6841 11.7467 18.5641 11.48C18.4508 11.2067 18.2808 10.9867 18.0541 10.82C17.8341 10.6533 17.5608 10.57 17.2341 10.57C16.9075 10.57 16.6308 10.6533 16.4041 10.82C16.1775 10.9867 16.0075 11.2067 15.8941 11.48C15.7808 11.7467 15.7241 12.0367 15.7241 12.35C15.7241 12.6567 15.7808 12.9467 15.8941 13.22C16.0075 13.4933 16.1775 13.7133 16.4041 13.88C16.6308 14.0467 16.9075 14.13 17.2341 14.13ZM22.8288 15.1C22.2954 15.1 21.8788 14.9333 21.5788 14.6C21.2788 14.2667 21.1287 13.8233 21.1287 13.27V9.7H22.2688V13.13C22.2688 13.45 22.3521 13.7 22.5188 13.88C22.6921 14.0533 22.9254 14.14 23.2188 14.14C23.5054 14.14 23.7354 14.0667 23.9088 13.92C24.0821 13.7733 24.2054 13.5867 24.2788 13.36C24.3588 13.1267 24.3988 12.8867 24.3988 12.64V9.7H25.5388V15H24.3988V14.24H24.3388C24.2854 14.34 24.1988 14.46 24.0788 14.6C23.9654 14.7333 23.8054 14.85 23.5988 14.95C23.3988 15.05 23.1421 15.1 22.8288 15.1ZM29.1812 15.1C28.7612 15.1 28.4245 15.0233 28.1712 14.87C27.9178 14.7167 27.7345 14.5133 27.6212 14.26C27.5145 14 27.4612 13.72 27.4612 13.42V10.62H26.5312V9.7H27.4612V8.38H28.6012V9.7H29.8412V10.62H28.6012V13.4C28.6012 13.9 28.8778 14.15 29.4312 14.15C29.5712 14.15 29.7012 14.14 29.8212 14.12C29.9412 14.1 30.0012 14.09 30.0012 14.09V15.02C30.0012 15.02 29.9178 15.0333 29.7512 15.06C29.5912 15.0867 29.4012 15.1 29.1812 15.1Z" fill="#6E00FF"/>
</g>
<g filter="url(#filter2_d_221_1450)">
<rect width="196" height="781" transform="translate(-33 -259)" fill="white"/>
<path d="M7 0.666687C4.7025 0.666687 2.83333 2.53585 2.83333 4.83335V6.50002H2C1.08084 6.50002 0.333336 7.24752 0.333336 8.16669V15.6667C0.333336 16.5859 1.08084 17.3334 2 17.3334H12C12.9192 17.3334 13.6667 16.5859 13.6667 15.6667V8.16669C13.6667 7.24752 12.9192 6.50002 12 6.50002H11.1667V4.83335C11.1667 2.53585 9.2975 0.666687 7 0.666687ZM4.5 4.83335C4.5 3.45502 5.62167 2.33335 7 2.33335C8.37833 2.33335 9.5 3.45502 9.5 4.83335V6.50002H4.5V4.83335ZM12.0017 15.6667H7.83333V13.7684C8.32917 13.4792 8.66667 12.9475 8.66667 12.3334C8.66667 11.4142 7.91917 10.6667 7 10.6667C6.08083 10.6667 5.33333 11.4142 5.33333 12.3334C5.33333 12.9467 5.67083 13.4792 6.16667 13.7684V15.6667H2V8.16669H12L12.0017 15.6667Z" fill="#222222"/>
</g>
</g>
</g>
<defs>
<filter id="filter0_d_221_1450" x="-80" y="-302" width="484" height="938" filterUnits="userSpaceOnUse" color-interpolation-filters="sRGB">
<feFlood flood-opacity="0" result="BackgroundImageFix"/>
<feColorMatrix in="SourceAlpha" type="matrix" values="0 0 0 0 0 0 0 0 0 0 0 0 0 0 0 0 0 0 127 0" result="hardAlpha"/>
<feOffset dy="4"/>
<feGaussianBlur stdDeviation="23.5"/>
<feComposite in2="hardAlpha" operator="out"/>
<feColorMatrix type="matrix" values="0 0 0 0 0 0 0 0 0 0 0 0 0 0 0 0 0 0 0.25 0"/>
<feBlend mode="normal" in2="BackgroundImageFix" result="effect1_dropShadow_221_1450"/>
<feBlend mode="normal" in="SourceGraphic" in2="effect1_dropShadow_221_1450" result="shape"/>
</filter>
<filter id="filter1_d_221_1450" x="-14" y="-159" width="179.705" height="286.635" filterUnits="userSpaceOnUse" color-interpolation-filters="sRGB">
<feFlood flood-opacity="0" result="BackgroundImageFix"/>
<feColorMatrix in="SourceAlpha" type="matrix" values="0 0 0 0 0 0 0 0 0 0 0 0 0 0 0 0 0 0 127 0" result="hardAlpha"/>
<feOffset/>
<feGaussianBlur stdDeviation="4"/>
<feComposite in2="hardAlpha" operator="out"/>
<feColorMatrix type="matrix" values="0 0 0 0 0 0 0 0 0 0 0 0 0 0 0 0 0 0 0.2 0"/>
<feBlend mode="normal" in2="BackgroundImageFix" result="effect1_dropShadow_221_1450"/>
<feBlend mode="normal" in="SourceGraphic" in2="effect1_dropShadow_221_1450" result="shape"/>
</filter>
<filter id="filter2_d_221_1450" x="-33" y="-259" width="396" height="781" filterUnits="userSpaceOnUse" color-interpolation-filters="sRGB">
<feFlood flood-opacity="0" result="BackgroundImageFix"/>
<feColorMatrix in="SourceAlpha" type="matrix" values="0 0 0 0 0 0 0 0 0 0 0 0 0 0 0 0 0 0 127 0" result="hardAlpha"/>
<feOffset dx="200"/>
<feComposite in2="hardAlpha" operator="out"/>
<feColorMatrix type="matrix" values="0 0 0 0 0 0 0 0 0 0 0 0 0 0 0 0 0 0 0.25 0"/>
<feBlend mode="normal" in2="BackgroundImageFix" result="effect1_dropShadow_221_1450"/>
<feBlend mode="normal" in="SourceGraphic" in2="effect1_dropShadow_221_1450" result="shape"/>
</filter>
<clipPath id="clip0_221_1450">
<rect x="-33" y="-259" width="390" height="844" rx="15" fill="white"/>
</clipPath>
</defs>
</svg>
