<svg width="8" height="13" viewBox="0 0 8 13" fill="none" xmlns="http://www.w3.org/2000/svg">
<rect width="8" height="13" fill="#E5E5E5"/>
<g filter="url(#filter0_d_221_1450)">
<g clip-path="url(#clip0_221_1450)">
<rect x="-36" y="-534" width="390" height="844" rx="15" fill="#F2F6FA"/>
<g filter="url(#filter1_d_221_1450)">
<rect x="-9" y="-135.318" width="163.705" height="270.635" rx="10" fill="#FEFEFF"/>
<path d="M0.487 0.859725V8.99973H-0.987V3.01573H-2.538V2.12473L-2.285 2.04773C-1.85233 1.92306 -1.50033 1.78006 -1.229 1.61873C-0.957667 1.45739 -0.701 1.23739 -0.459 0.958725L-0.36 0.859725H0.487ZM5.37143 9.09873C4.84343 9.09873 4.37043 8.98873 3.95243 8.76873C3.54176 8.54873 3.1971 8.24806 2.91843 7.86673C2.63976 7.47806 2.4271 7.03439 2.28043 6.53573C2.13376 6.02973 2.06043 5.49073 2.06043 4.91873C2.06043 4.35406 2.13376 3.81873 2.28043 3.31273C2.4271 2.80673 2.63976 2.36306 2.91843 1.98173C3.1971 1.59306 3.54176 1.28872 3.95243 1.06873C4.37043 0.848725 4.84343 0.738725 5.37143 0.738725C5.89943 0.738725 6.36876 0.848725 6.77943 1.06873C7.19743 1.28872 7.54576 1.59306 7.82443 1.98173C8.1031 2.36306 8.31576 2.80673 8.46243 3.31273C8.6091 3.81873 8.68243 4.35406 8.68243 4.91873C8.68243 5.49073 8.6091 6.02973 8.46243 6.53573C8.31576 7.03439 8.1031 7.47806 7.82443 7.86673C7.54576 8.24806 7.19743 8.54873 6.77943 8.76873C6.36876 8.98873 5.89943 9.09873 5.37143 9.09873ZM5.37143 7.76773C5.88476 7.76773 6.30643 7.52939 6.63643 7.05273C6.97376 6.57606 7.14243 5.86473 7.14243 4.91873C7.14243 3.98006 6.97376 3.27606 6.63643 2.80673C6.30643 2.33006 5.88476 2.09173 5.37143 2.09173C4.8581 2.09173 4.43276 2.33006 4.09543 2.80673C3.76543 3.27606 3.60043 3.98006 3.60043 4.91873C3.60043 5.85739 3.76543 6.56873 4.09543 7.05273C4.43276 7.52939 4.8581 7.76773 5.37143 7.76773ZM10.4686 6.15073V4.97373H14.5716V6.15073H10.4686ZM16.5893 8.99973V7.96573L18.1183 6.61273C18.6756 6.13606 19.1559 5.72539 19.5593 5.38073C19.9626 5.02873 20.2743 4.69873 20.4943 4.39073C20.7143 4.08273 20.8243 3.74539 20.8243 3.37872C20.8243 3.10006 20.7546 2.86173 20.6153 2.66372C20.4833 2.46572 20.3109 2.31539 20.0983 2.21272C19.8856 2.11006 19.6656 2.05872 19.4383 2.05872C19.1229 2.05872 18.8663 2.12106 18.6683 2.24573C18.4776 2.37039 18.3309 2.52073 18.2283 2.69673C18.1329 2.87273 18.0669 3.04506 18.0303 3.21373C17.9936 3.37506 17.9753 3.49606 17.9753 3.57673H16.5453C16.5453 3.41539 16.5709 3.21739 16.6223 2.98272C16.6809 2.74072 16.7763 2.49139 16.9083 2.23473C17.0403 1.97806 17.2163 1.73606 17.4363 1.50872C17.6563 1.28139 17.9349 1.09806 18.2723 0.958725C18.6096 0.819392 19.0093 0.749725 19.4713 0.749725C19.9846 0.749725 20.4539 0.852391 20.8793 1.05772C21.3119 1.26306 21.6566 1.55639 21.9133 1.93773C22.1773 2.31906 22.3093 2.77739 22.3093 3.31273C22.3093 3.80406 22.1846 4.25139 21.9353 4.65473C21.6933 5.05806 21.3596 5.45406 20.9343 5.84273C20.5089 6.22406 20.0249 6.63473 19.4823 7.07473L18.8003 7.69073H22.4523V8.99973H16.5893ZM26.931 9.09873C26.403 9.09873 25.93 8.98873 25.512 8.76873C25.1013 8.54873 24.7567 8.24806 24.478 7.86673C24.1993 7.47806 23.9867 7.03439 23.84 6.53573C23.6933 6.02973 23.62 5.49073 23.62 4.91873C23.62 4.35406 23.6933 3.81873 23.84 3.31273C23.9867 2.80673 24.1993 2.36306 24.478 1.98173C24.7567 1.59306 25.1013 1.28872 25.512 1.06873C25.93 0.848725 26.403 0.738725 26.931 0.738725C27.459 0.738725 27.9283 0.848725 28.339 1.06873C28.757 1.28872 29.1053 1.59306 29.384 1.98173C29.6627 2.36306 29.8753 2.80673 30.022 3.31273C30.1687 3.81873 30.242 4.35406 30.242 4.91873C30.242 5.49073 30.1687 6.02973 30.022 6.53573C29.8753 7.03439 29.6627 7.47806 29.384 7.86673C29.1053 8.24806 28.757 8.54873 28.339 8.76873C27.9283 8.98873 27.459 9.09873 26.931 9.09873ZM26.931 7.76773C27.4443 7.76773 27.866 7.52939 28.196 7.05273C28.5333 6.57606 28.702 5.86473 28.702 4.91873C28.702 3.98006 28.5333 3.27606 28.196 2.80673C27.866 2.33006 27.4443 2.09173 26.931 2.09173C26.4177 2.09173 25.9923 2.33006 25.655 2.80673C25.325 3.27606 25.16 3.98006 25.16 4.91873C25.16 5.85739 25.325 6.56873 25.655 7.05273C25.9923 7.52939 26.4177 7.76773 26.931 7.76773ZM34.0684 8.99973V0.859725H37.6214C38.142 0.859725 38.5857 0.951392 38.9524 1.13472C39.319 1.31806 39.5977 1.56372 39.7884 1.87173C39.9864 2.17973 40.0854 2.51706 40.0854 2.88372C40.0854 3.25773 40.0157 3.56573 39.8764 3.80772C39.7444 4.04973 39.583 4.24039 39.3924 4.37973C39.209 4.51173 39.0404 4.60339 38.8864 4.65473V4.73173C39.077 4.78306 39.2897 4.88206 39.5244 5.02872C39.7664 5.17539 39.9754 5.38439 40.1514 5.65573C40.3274 5.91973 40.4154 6.26439 40.4154 6.68973C40.4154 7.07106 40.3237 7.44139 40.1404 7.80073C39.957 8.15273 39.6674 8.44239 39.2714 8.66973C38.8754 8.88973 38.351 8.99973 37.6984 8.99973H34.0684ZM37.4234 2.12473H35.5644V4.24773H37.4234C37.8487 4.24773 38.1567 4.14139 38.3474 3.92873C38.538 3.71606 38.6334 3.46673 38.6334 3.18072C38.6334 2.90206 38.538 2.65639 38.3474 2.44373C38.1567 2.23106 37.8487 2.12473 37.4234 2.12473ZM37.5334 5.39173H35.5644V7.73473H37.5334C38.0174 7.73473 38.3694 7.61739 38.5894 7.38273C38.8094 7.14806 38.9194 6.87306 38.9194 6.55773C38.9194 6.24973 38.8094 5.97839 38.5894 5.74373C38.3694 5.50906 38.0174 5.39173 37.5334 5.39173ZM41.749 8.99973V0.859725H43.113L46.853 6.38173V0.859725H48.338V8.99973H46.974L43.234 3.57673V8.99973H41.749ZM49.9238 8.99973V0.859725H53.4768C53.9975 0.859725 54.4412 0.951392 54.8078 1.13472C55.1745 1.31806 55.4532 1.56372 55.6438 1.87173C55.8418 2.17973 55.9408 2.51706 55.9408 2.88372C55.9408 3.25773 55.8712 3.56573 55.7318 3.80772C55.5998 4.04973 55.4385 4.24039 55.2478 4.37973C55.0645 4.51173 54.8958 4.60339 54.7418 4.65473V4.73173C54.9325 4.78306 55.1452 4.88206 55.3798 5.02872C55.6218 5.17539 55.8308 5.38439 56.0068 5.65573C56.1828 5.91973 56.2708 6.26439 56.2708 6.68973C56.2708 7.07106 56.1792 7.44139 55.9958 7.80073C55.8125 8.15273 55.5228 8.44239 55.1268 8.66973C54.7308 8.88973 54.2065 8.99973 53.5538 8.99973H49.9238ZM53.2788 2.12473H51.4198V4.24773H53.2788C53.7042 4.24773 54.0122 4.14139 54.2028 3.92873C54.3935 3.71606 54.4888 3.46673 54.4888 3.18072C54.4888 2.90206 54.3935 2.65639 54.2028 2.44373C54.0122 2.23106 53.7042 2.12473 53.2788 2.12473ZM53.3888 5.39173H51.4198V7.73473H53.3888C53.8728 7.73473 54.2248 7.61739 54.4448 7.38273C54.6648 7.14806 54.7748 6.87306 54.7748 6.55773C54.7748 6.24973 54.6648 5.97839 54.4448 5.74373C54.2248 5.50906 53.8728 5.39173 53.3888 5.39173Z" fill="#FF6E38"/>
</g>
<g filter="url(#filter2_d_221_1450)">
<rect width="196" height="781" transform="translate(-36 -534)" fill="white"/>
<path d="M-0.999998 9H-2.66666C-2.66666 12.3933 -0.115832 15.1967 3.16667 15.6092V17.3333H4.83333V15.6092C8.11583 15.1967 10.6667 12.3942 10.6667 9H9C9 11.7575 6.7575 14 4 14C1.2425 14 -0.999998 11.7575 -0.999998 9Z" fill="#222222"/>
<path d="M0.666664 9C0.666664 10.8383 2.16166 12.3333 4 12.3333C5.83833 12.3333 7.33333 10.8383 7.33333 9H5.66666V7.33333H7.33333V5.66667H5.66666V4H7.33333C7.33333 2.1525 5.84583 0.64917 4.0175 0.64917C3.95884 0.649522 3.90041 0.656511 3.84333 0.670003C2.9877 0.711487 2.18077 1.0803 1.58948 1.70013C0.998189 2.31996 0.667797 3.14337 0.666664 4H4V5.66667H0.666664V7.33333H4V9H0.666664Z" fill="#222222"/>
</g>
</g>
</g>
<defs>
<filter id="filter0_d_221_1450" x="-83" y="-577" width="484" height="938" filterUnits="userSpaceOnUse" color-interpolation-filters="sRGB">
<feFlood flood-opacity="0" result="BackgroundImageFix"/>
<feColorMatrix in="SourceAlpha" type="matrix" values="0 0 0 0 0 0 0 0 0 0 0 0 0 0 0 0 0 0 127 0" result="hardAlpha"/>
<feOffset dy="4"/>
<feGaussianBlur stdDeviation="23.5"/>
<feComposite in2="hardAlpha" operator="out"/>
<feColorMatrix type="matrix" values="0 0 0 0 0 0 0 0 0 0 0 0 0 0 0 0 0 0 0.25 0"/>
<feBlend mode="normal" in2="BackgroundImageFix" result="effect1_dropShadow_221_1450"/>
<feBlend mode="normal" in="SourceGraphic" in2="effect1_dropShadow_221_1450" result="shape"/>
</filter>
<filter id="filter1_d_221_1450" x="-17" y="-143.318" width="179.705" height="286.635" filterUnits="userSpaceOnUse" color-interpolation-filters="sRGB">
<feFlood flood-opacity="0" result="BackgroundImageFix"/>
<feColorMatrix in="SourceAlpha" type="matrix" values="0 0 0 0 0 0 0 0 0 0 0 0 0 0 0 0 0 0 127 0" result="hardAlpha"/>
<feOffset/>
<feGaussianBlur stdDeviation="4"/>
<feComposite in2="hardAlpha" operator="out"/>
<feColorMatrix type="matrix" values="0 0 0 0 0 0 0 0 0 0 0 0 0 0 0 0 0 0 0.2 0"/>
<feBlend mode="normal" in2="BackgroundImageFix" result="effect1_dropShadow_221_1450"/>
<feBlend mode="normal" in="SourceGraphic" in2="effect1_dropShadow_221_1450" result="shape"/>
</filter>
<filter id="filter2_d_221_1450" x="-36" y="-534" width="396" height="781" filterUnits="userSpaceOnUse" color-interpolation-filters="sRGB">
<feFlood flood-opacity="0" result="BackgroundImageFix"/>
<feColorMatrix in="SourceAlpha" type="matrix" values="0 0 0 0 0 0 0 0 0 0 0 0 0 0 0 0 0 0 127 0" result="hardAlpha"/>
<feOffset dx="200"/>
<feComposite in2="hardAlpha" operator="out"/>
<feColorMatrix type="matrix" values="0 0 0 0 0 0 0 0 0 0 0 0 0 0 0 0 0 0 0.25 0"/>
<feBlend mode="normal" in2="BackgroundImageFix" result="effect1_dropShadow_221_1450"/>
<feBlend mode="normal" in="SourceGraphic" in2="effect1_dropShadow_221_1450" result="shape"/>
</filter>
<clipPath id="clip0_221_1450">
<rect x="-36" y="-534" width="390" height="844" rx="15" fill="white"/>
</clipPath>
</defs>
</svg>
