<svg width="14" height="9" viewBox="0 0 14 9" fill="none" xmlns="http://www.w3.org/2000/svg">
<rect width="14" height="9" fill="#E5E5E5"/>
<g filter="url(#filter0_d_221_1450)">
<g clip-path="url(#clip0_221_1450)">
<rect x="-33" y="-543" width="390" height="844" rx="15" fill="#F2F6FA"/>
<g filter="url(#filter1_d_221_1450)">
<rect x="-6" y="-144.318" width="163.705" height="270.635" rx="10" fill="#FEFEFF"/>
<path d="M3.487 -8.14027V-0.000274658H2.013V-5.98427H0.462V-6.87527L0.715 -6.95227C1.14767 -7.07694 1.49967 -7.21994 1.771 -7.38127C2.04233 -7.54261 2.299 -7.76261 2.541 -8.04127L2.64 -8.14027H3.487ZM8.37143 0.0987253C7.84343 0.0987253 7.37043 -0.0112747 6.95243 -0.231275C6.54176 -0.451275 6.1971 -0.751941 5.91843 -1.13327C5.63976 -1.52194 5.4271 -1.96561 5.28043 -2.46427C5.13376 -2.97027 5.06043 -3.50927 5.06043 -4.08127C5.06043 -4.64594 5.13376 -5.18127 5.28043 -5.68727C5.4271 -6.19327 5.63976 -6.63694 5.91843 -7.01827C6.1971 -7.40694 6.54176 -7.71128 6.95243 -7.93127C7.37043 -8.15128 7.84343 -8.26128 8.37143 -8.26128C8.89943 -8.26128 9.36876 -8.15128 9.77943 -7.93127C10.1974 -7.71128 10.5458 -7.40694 10.8244 -7.01827C11.1031 -6.63694 11.3158 -6.19327 11.4624 -5.68727C11.6091 -5.18127 11.6824 -4.64594 11.6824 -4.08127C11.6824 -3.50927 11.6091 -2.97027 11.4624 -2.46427C11.3158 -1.96561 11.1031 -1.52194 10.8244 -1.13327C10.5458 -0.751941 10.1974 -0.451275 9.77943 -0.231275C9.36876 -0.0112747 8.89943 0.0987253 8.37143 0.0987253ZM8.37143 -1.23227C8.88476 -1.23227 9.30643 -1.47061 9.63643 -1.94727C9.97376 -2.42394 10.1424 -3.13527 10.1424 -4.08127C10.1424 -5.01994 9.97376 -5.72394 9.63643 -6.19327C9.30643 -6.66994 8.88476 -6.90827 8.37143 -6.90827C7.8581 -6.90827 7.43276 -6.66994 7.09543 -6.19327C6.76543 -5.72394 6.60043 -5.01994 6.60043 -4.08127C6.60043 -3.14261 6.76543 -2.43127 7.09543 -1.94727C7.43276 -1.47061 7.8581 -1.23227 8.37143 -1.23227ZM13.4686 -2.84927V-4.02627H17.5716V-2.84927H13.4686ZM19.5893 -0.000274658V-1.03427L21.1183 -2.38727C21.6756 -2.86394 22.1559 -3.27461 22.5593 -3.61927C22.9626 -3.97127 23.2743 -4.30127 23.4943 -4.60927C23.7143 -4.91727 23.8243 -5.25461 23.8243 -5.62128C23.8243 -5.89994 23.7546 -6.13827 23.6153 -6.33628C23.4833 -6.53428 23.3109 -6.68461 23.0983 -6.78728C22.8856 -6.88994 22.6656 -6.94128 22.4383 -6.94128C22.1229 -6.94128 21.8663 -6.87894 21.6683 -6.75427C21.4776 -6.62961 21.3309 -6.47927 21.2283 -6.30327C21.1329 -6.12727 21.0669 -5.95494 21.0303 -5.78627C20.9936 -5.62494 20.9753 -5.50394 20.9753 -5.42327H19.5453C19.5453 -5.58461 19.5709 -5.78261 19.6223 -6.01728C19.6809 -6.25928 19.7763 -6.50861 19.9083 -6.76527C20.0403 -7.02194 20.2163 -7.26394 20.4363 -7.49128C20.6563 -7.71861 20.9349 -7.90194 21.2723 -8.04127C21.6096 -8.18061 22.0093 -8.25028 22.4713 -8.25028C22.9846 -8.25028 23.4539 -8.14761 23.8793 -7.94228C24.3119 -7.73694 24.6566 -7.44361 24.9133 -7.06227C25.1773 -6.68094 25.3093 -6.22261 25.3093 -5.68727C25.3093 -5.19594 25.1846 -4.74861 24.9353 -4.34527C24.6933 -3.94194 24.3596 -3.54594 23.9343 -3.15727C23.5089 -2.77594 23.0249 -2.36527 22.4823 -1.92527L21.8003 -1.30927H25.4523V-0.000274658H19.5893ZM29.931 0.0987253C29.403 0.0987253 28.93 -0.0112747 28.512 -0.231275C28.1013 -0.451275 27.7567 -0.751941 27.478 -1.13327C27.1993 -1.52194 26.9867 -1.96561 26.84 -2.46427C26.6933 -2.97027 26.62 -3.50927 26.62 -4.08127C26.62 -4.64594 26.6933 -5.18127 26.84 -5.68727C26.9867 -6.19327 27.1993 -6.63694 27.478 -7.01827C27.7567 -7.40694 28.1013 -7.71128 28.512 -7.93127C28.93 -8.15128 29.403 -8.26128 29.931 -8.26128C30.459 -8.26128 30.9283 -8.15128 31.339 -7.93127C31.757 -7.71128 32.1053 -7.40694 32.384 -7.01827C32.6627 -6.63694 32.8753 -6.19327 33.022 -5.68727C33.1687 -5.18127 33.242 -4.64594 33.242 -4.08127C33.242 -3.50927 33.1687 -2.97027 33.022 -2.46427C32.8753 -1.96561 32.6627 -1.52194 32.384 -1.13327C32.1053 -0.751941 31.757 -0.451275 31.339 -0.231275C30.9283 -0.0112747 30.459 0.0987253 29.931 0.0987253ZM29.931 -1.23227C30.4443 -1.23227 30.866 -1.47061 31.196 -1.94727C31.5333 -2.42394 31.702 -3.13527 31.702 -4.08127C31.702 -5.01994 31.5333 -5.72394 31.196 -6.19327C30.866 -6.66994 30.4443 -6.90827 29.931 -6.90827C29.4177 -6.90827 28.9923 -6.66994 28.655 -6.19327C28.325 -5.72394 28.16 -5.01994 28.16 -4.08127C28.16 -3.14261 28.325 -2.43127 28.655 -1.94727C28.9923 -1.47061 29.4177 -1.23227 29.931 -1.23227ZM37.0684 -0.000274658V-8.14027H40.6214C41.142 -8.14027 41.5857 -8.04861 41.9524 -7.86528C42.319 -7.68194 42.5977 -7.43628 42.7884 -7.12827C42.9864 -6.82027 43.0854 -6.48294 43.0854 -6.11628C43.0854 -5.74227 43.0157 -5.43427 42.8764 -5.19228C42.7444 -4.95027 42.583 -4.75961 42.3924 -4.62027C42.209 -4.48827 42.0404 -4.39661 41.8864 -4.34527V-4.26827C42.077 -4.21694 42.2897 -4.11794 42.5244 -3.97128C42.7664 -3.82461 42.9754 -3.61561 43.1514 -3.34427C43.3274 -3.08027 43.4154 -2.73561 43.4154 -2.31027C43.4154 -1.92894 43.3237 -1.55861 43.1404 -1.19927C42.957 -0.847275 42.6674 -0.557608 42.2714 -0.330275C41.8754 -0.110275 41.351 -0.000274658 40.6984 -0.000274658H37.0684ZM40.4234 -6.87527H38.5644V-4.75227H40.4234C40.8487 -4.75227 41.1567 -4.85861 41.3474 -5.07127C41.538 -5.28394 41.6334 -5.53327 41.6334 -5.81928C41.6334 -6.09794 41.538 -6.34361 41.3474 -6.55627C41.1567 -6.76894 40.8487 -6.87527 40.4234 -6.87527ZM40.5334 -3.60827H38.5644V-1.26527H40.5334C41.0174 -1.26527 41.3694 -1.38261 41.5894 -1.61727C41.8094 -1.85194 41.9194 -2.12694 41.9194 -2.44227C41.9194 -2.75027 41.8094 -3.02161 41.5894 -3.25627C41.3694 -3.49094 41.0174 -3.60827 40.5334 -3.60827ZM44.749 -0.000274658V-8.14027H46.113L49.853 -2.61827V-8.14027H51.338V-0.000274658H49.974L46.234 -5.42327V-0.000274658H44.749ZM52.9238 -0.000274658V-8.14027H56.4768C56.9975 -8.14027 57.4412 -8.04861 57.8078 -7.86528C58.1745 -7.68194 58.4532 -7.43628 58.6438 -7.12827C58.8418 -6.82027 58.9408 -6.48294 58.9408 -6.11628C58.9408 -5.74227 58.8712 -5.43427 58.7318 -5.19228C58.5998 -4.95027 58.4385 -4.75961 58.2478 -4.62027C58.0645 -4.48827 57.8958 -4.39661 57.7418 -4.34527V-4.26827C57.9325 -4.21694 58.1452 -4.11794 58.3798 -3.97128C58.6218 -3.82461 58.8308 -3.61561 59.0068 -3.34427C59.1828 -3.08027 59.2708 -2.73561 59.2708 -2.31027C59.2708 -1.92894 59.1792 -1.55861 58.9958 -1.19927C58.8125 -0.847275 58.5228 -0.557608 58.1268 -0.330275C57.7308 -0.110275 57.2065 -0.000274658 56.5538 -0.000274658H52.9238ZM56.2788 -6.87527H54.4198V-4.75227H56.2788C56.7042 -4.75227 57.0122 -4.85861 57.2028 -5.07127C57.3935 -5.28394 57.4888 -5.53327 57.4888 -5.81928C57.4888 -6.09794 57.3935 -6.34361 57.2028 -6.55627C57.0122 -6.76894 56.7042 -6.87527 56.2788 -6.87527ZM56.3888 -3.60827H54.4198V-1.26527H56.3888C56.8728 -1.26527 57.2248 -1.38261 57.4448 -1.61727C57.6648 -1.85194 57.7748 -2.12694 57.7748 -2.44227C57.7748 -2.75027 57.6648 -3.02161 57.4448 -3.25627C57.2248 -3.49094 56.8728 -3.60827 56.3888 -3.60827Z" fill="#FF6E38"/>
</g>
<g filter="url(#filter2_d_221_1450)">
<rect width="196" height="781" transform="translate(-33 -543)" fill="white"/>
<path d="M2 0H0.333336C0.333336 3.39333 2.88417 6.19667 6.16667 6.60917V8.33334H7.83333V6.60917C11.1158 6.19667 13.6667 3.39417 13.6667 0H12C12 2.7575 9.7575 5 7 5C4.2425 5 2 2.7575 2 0Z" fill="#222222"/>
<path d="M3.66666 -3.8147e-06C3.66666 1.83833 5.16166 3.33333 7 3.33333C8.83833 3.33333 10.3333 1.83833 10.3333 -3.8147e-06H8.66666V-1.66667H10.3333V-3.33333H8.66666V-5H10.3333C10.3333 -6.8475 8.84583 -8.35083 7.0175 -8.35083C6.95884 -8.35048 6.90041 -8.34349 6.84333 -8.33C5.9877 -8.28851 5.18077 -7.9197 4.58948 -7.29987C3.99819 -6.68004 3.6678 -5.85663 3.66666 -5H7V-3.33333H3.66666V-1.66667H7V-3.8147e-06H3.66666Z" fill="#222222"/>
</g>
</g>
</g>
<defs>
<filter id="filter0_d_221_1450" x="-80" y="-586" width="484" height="938" filterUnits="userSpaceOnUse" color-interpolation-filters="sRGB">
<feFlood flood-opacity="0" result="BackgroundImageFix"/>
<feColorMatrix in="SourceAlpha" type="matrix" values="0 0 0 0 0 0 0 0 0 0 0 0 0 0 0 0 0 0 127 0" result="hardAlpha"/>
<feOffset dy="4"/>
<feGaussianBlur stdDeviation="23.5"/>
<feComposite in2="hardAlpha" operator="out"/>
<feColorMatrix type="matrix" values="0 0 0 0 0 0 0 0 0 0 0 0 0 0 0 0 0 0 0.25 0"/>
<feBlend mode="normal" in2="BackgroundImageFix" result="effect1_dropShadow_221_1450"/>
<feBlend mode="normal" in="SourceGraphic" in2="effect1_dropShadow_221_1450" result="shape"/>
</filter>
<filter id="filter1_d_221_1450" x="-14" y="-152.318" width="179.705" height="286.635" filterUnits="userSpaceOnUse" color-interpolation-filters="sRGB">
<feFlood flood-opacity="0" result="BackgroundImageFix"/>
<feColorMatrix in="SourceAlpha" type="matrix" values="0 0 0 0 0 0 0 0 0 0 0 0 0 0 0 0 0 0 127 0" result="hardAlpha"/>
<feOffset/>
<feGaussianBlur stdDeviation="4"/>
<feComposite in2="hardAlpha" operator="out"/>
<feColorMatrix type="matrix" values="0 0 0 0 0 0 0 0 0 0 0 0 0 0 0 0 0 0 0.2 0"/>
<feBlend mode="normal" in2="BackgroundImageFix" result="effect1_dropShadow_221_1450"/>
<feBlend mode="normal" in="SourceGraphic" in2="effect1_dropShadow_221_1450" result="shape"/>
</filter>
<filter id="filter2_d_221_1450" x="-33" y="-543" width="396" height="781" filterUnits="userSpaceOnUse" color-interpolation-filters="sRGB">
<feFlood flood-opacity="0" result="BackgroundImageFix"/>
<feColorMatrix in="SourceAlpha" type="matrix" values="0 0 0 0 0 0 0 0 0 0 0 0 0 0 0 0 0 0 127 0" result="hardAlpha"/>
<feOffset dx="200"/>
<feComposite in2="hardAlpha" operator="out"/>
<feColorMatrix type="matrix" values="0 0 0 0 0 0 0 0 0 0 0 0 0 0 0 0 0 0 0.25 0"/>
<feBlend mode="normal" in2="BackgroundImageFix" result="effect1_dropShadow_221_1450"/>
<feBlend mode="normal" in="SourceGraphic" in2="effect1_dropShadow_221_1450" result="shape"/>
</filter>
<clipPath id="clip0_221_1450">
<rect x="-33" y="-543" width="390" height="844" rx="15" fill="white"/>
</clipPath>
</defs>
</svg>
