<svg width="19" height="19" viewBox="0 0 19 19" fill="none" xmlns="http://www.w3.org/2000/svg">
<path d="M14.8333 10.8333C14.6123 10.8333 14.4004 10.9211 14.2441 11.0774C14.0878 11.2337 14 11.4457 14 11.6667V11.9833L12.7667 10.75C12.3312 10.318 11.7426 10.0755 11.1292 10.0755C10.5157 10.0755 9.92715 10.318 9.49167 10.75L8.90833 11.3333L6.84167 9.26667C6.4001 8.84634 5.8138 8.61191 5.20416 8.61191C4.59453 8.61191 4.00823 8.84634 3.56666 9.26667L2.33333 10.5V5.83334C2.33333 5.61232 2.42113 5.40036 2.57741 5.24408C2.73369 5.0878 2.94565 5 3.16666 5H9C9.22101 5 9.43297 4.9122 9.58925 4.75592C9.74553 4.59964 9.83333 4.38768 9.83333 4.16667C9.83333 3.94566 9.74553 3.73369 9.58925 3.57741C9.43297 3.42113 9.22101 3.33334 9 3.33334H3.16666C2.50362 3.33334 1.86774 3.59673 1.3989 4.06557C0.930056 4.53441 0.666664 5.17029 0.666664 5.83334V15.8333C0.666664 16.4964 0.930056 17.1323 1.3989 17.6011C1.86774 18.0699 2.50362 18.3333 3.16666 18.3333H13.1667C13.8297 18.3333 14.4656 18.0699 14.9344 17.6011C15.4033 17.1323 15.6667 16.4964 15.6667 15.8333V11.6667C15.6667 11.4457 15.5789 11.2337 15.4226 11.0774C15.2663 10.9211 15.0543 10.8333 14.8333 10.8333ZM3.16666 16.6667C2.94565 16.6667 2.73369 16.5789 2.57741 16.4226C2.42113 16.2663 2.33333 16.0543 2.33333 15.8333V12.8583L4.75 10.4417C4.87242 10.325 5.03505 10.2599 5.20416 10.2599C5.37328 10.2599 5.53591 10.325 5.65833 10.4417L8.3 13.0833L11.8833 16.6667H3.16666ZM14 15.8333C13.9988 15.9929 13.9462 16.1477 13.85 16.275L10.0917 12.5L10.675 11.9167C10.7347 11.8557 10.8061 11.8072 10.8848 11.7742C10.9635 11.7411 11.048 11.7241 11.1333 11.7241C11.2187 11.7241 11.3032 11.7411 11.3819 11.7742C11.4606 11.8072 11.5319 11.8557 11.5917 11.9167L14 14.3417V15.8333ZM17.925 3.575L15.425 1.075C15.3457 0.999138 15.2523 0.939667 15.15 0.900005C14.9471 0.816657 14.7196 0.816657 14.5167 0.900005C14.4144 0.939667 14.3209 0.999138 14.2417 1.075L11.7417 3.575C11.5847 3.73192 11.4966 3.94475 11.4966 4.16667C11.4966 4.38859 11.5847 4.60142 11.7417 4.75834C11.8986 4.91526 12.1114 5.00341 12.3333 5.00341C12.5553 5.00341 12.7681 4.91526 12.925 4.75834L14 3.675V8.33333C14 8.55435 14.0878 8.76631 14.2441 8.92259C14.4004 9.07887 14.6123 9.16667 14.8333 9.16667C15.0543 9.16667 15.2663 9.07887 15.4226 8.92259C15.5789 8.76631 15.6667 8.55435 15.6667 8.33333V3.675L16.7417 4.75834C16.8191 4.83644 16.9113 4.89844 17.0129 4.94075C17.1144 4.98305 17.2233 5.00483 17.3333 5.00483C17.4433 5.00483 17.5523 4.98305 17.6538 4.94075C17.7554 4.89844 17.8475 4.83644 17.925 4.75834C18.0031 4.68087 18.0651 4.5887 18.1074 4.48715C18.1497 4.3856 18.1715 4.27668 18.1715 4.16667C18.1715 4.05666 18.1497 3.94774 18.1074 3.84619C18.0651 3.74464 18.0031 3.65247 17.925 3.575Z" fill="#222222"/>
</svg>
