<svg width="27" height="27" viewBox="0 0 27 27" fill="none" xmlns="http://www.w3.org/2000/svg">
<rect width="27" height="27" fill="#E5E5E5"/>
<g clip-path="url(#clip0_221_1450)">
<rect x="-262" y="-795" width="390" height="844" rx="10" fill="#F3F6FA"/>
<g filter="url(#filter0_d_221_1450)">
<rect width="390" height="70" transform="translate(-262 -21)" fill="white"/>
<path d="M21.75 15.2501C21.4185 15.2501 21.1005 15.3818 20.8661 15.6162C20.6317 15.8507 20.5 16.1686 20.5 16.5001V16.9751L18.65 15.1251C17.9968 14.477 17.1139 14.1134 16.1937 14.1134C15.2736 14.1134 14.3907 14.477 13.7375 15.1251L12.8625 16.0001L9.7625 12.9001C9.10015 12.2696 8.22071 11.918 7.30625 11.918C6.39179 11.918 5.51235 12.2696 4.85 12.9001L3 14.7501V7.75012C3 7.4186 3.1317 7.10065 3.36612 6.86623C3.60054 6.63181 3.91848 6.50012 4.25 6.50012H13C13.3315 6.50012 13.6495 6.36842 13.8839 6.134C14.1183 5.89958 14.25 5.58164 14.25 5.25012C14.25 4.9186 14.1183 4.60065 13.8839 4.36623C13.6495 4.13181 13.3315 4.00012 13 4.00012H4.25C3.25544 4.00012 2.30161 4.3952 1.59835 5.09847C0.895088 5.80173 0.5 6.75555 0.5 7.75012V22.7501C0.5 23.7447 0.895088 24.6985 1.59835 25.4018C2.30161 26.105 3.25544 26.5001 4.25 26.5001H19.25C20.2446 26.5001 21.1984 26.105 21.9016 25.4018C22.6049 24.6985 23 23.7447 23 22.7501V16.5001C23 16.1686 22.8683 15.8507 22.6339 15.6162C22.3995 15.3818 22.0815 15.2501 21.75 15.2501ZM4.25 24.0001C3.91848 24.0001 3.60054 23.8684 3.36612 23.634C3.1317 23.3996 3 23.0816 3 22.7501V18.2876L6.625 14.6626C6.80864 14.4876 7.05258 14.39 7.30625 14.39C7.55992 14.39 7.80386 14.4876 7.9875 14.6626L11.95 18.6251L17.325 24.0001H4.25ZM20.5 22.7501C20.4982 22.9894 20.4193 23.2217 20.275 23.4126L14.6375 17.7501L15.5125 16.8751C15.6021 16.7837 15.7091 16.711 15.8271 16.6614C15.9452 16.6118 16.0719 16.5862 16.2 16.5862C16.328 16.5862 16.4548 16.6118 16.5729 16.6614C16.6909 16.711 16.7979 16.7837 16.8875 16.8751L20.5 20.5126V22.7501ZM26.3875 4.36262L22.6375 0.612615C22.5186 0.498814 22.3784 0.409608 22.225 0.350115C21.9207 0.225092 21.5793 0.225092 21.275 0.350115C21.1216 0.409608 20.9814 0.498814 20.8625 0.612615L17.1125 4.36262C16.8771 4.598 16.7449 4.91724 16.7449 5.25012C16.7449 5.58299 16.8771 5.90224 17.1125 6.13762C17.3479 6.373 17.6671 6.50523 18 6.50523C18.3329 6.50523 18.6521 6.373 18.8875 6.13762L20.5 4.51262V11.5001C20.5 11.8316 20.6317 12.1496 20.8661 12.384C21.1005 12.6184 21.4185 12.7501 21.75 12.7501C22.0815 12.7501 22.3995 12.6184 22.6339 12.384C22.8683 12.1496 23 11.8316 23 11.5001V4.51262L24.6125 6.13762C24.7287 6.25478 24.8669 6.34777 25.0193 6.41123C25.1716 6.47469 25.335 6.50736 25.5 6.50736C25.665 6.50736 25.8284 6.47469 25.9807 6.41123C26.133 6.34777 26.2713 6.25478 26.3875 6.13762C26.5047 6.02141 26.5976 5.88316 26.6611 5.73084C26.7246 5.57851 26.7572 5.41513 26.7572 5.25012C26.7572 5.0851 26.7246 4.92172 26.6611 4.76939C26.5976 4.61707 26.5047 4.47882 26.3875 4.36262Z" fill="#6E00FF"/>
</g>
</g>
<defs>
<filter id="filter0_d_221_1450" x="-272" y="-32" width="410" height="90" filterUnits="userSpaceOnUse" color-interpolation-filters="sRGB">
<feFlood flood-opacity="0" result="BackgroundImageFix"/>
<feColorMatrix in="SourceAlpha" type="matrix" values="0 0 0 0 0 0 0 0 0 0 0 0 0 0 0 0 0 0 127 0" result="hardAlpha"/>
<feOffset dy="-1"/>
<feGaussianBlur stdDeviation="5"/>
<feComposite in2="hardAlpha" operator="out"/>
<feColorMatrix type="matrix" values="0 0 0 0 0 0 0 0 0 0 0 0 0 0 0 0 0 0 0.11 0"/>
<feBlend mode="normal" in2="BackgroundImageFix" result="effect1_dropShadow_221_1450"/>
<feBlend mode="normal" in="SourceGraphic" in2="effect1_dropShadow_221_1450" result="shape"/>
</filter>
<clipPath id="clip0_221_1450">
<rect x="-262" y="-795" width="390" height="844" rx="10" fill="white"/>
</clipPath>
</defs>
</svg>
