<svg width="17" height="17" viewBox="0 0 17 17" fill="none" xmlns="http://www.w3.org/2000/svg">
<path d="M9.66667 14C8.18752 13.9997 6.751 13.5045 5.58584 12.5933L1.9225 16.2567L0.744168 15.0783L4.4075 11.415C3.49583 10.2497 3.00036 8.81286 3 7.33333C3 3.65749 5.99084 0.666656 9.66667 0.666656C13.3425 0.666656 16.3333 3.65749 16.3333 7.33333C16.3333 11.0092 13.3425 14 9.66667 14ZM9.66667 2.33332C6.90917 2.33332 4.66667 4.57583 4.66667 7.33333C4.66667 10.0908 6.90917 12.3333 9.66667 12.3333C12.4242 12.3333 14.6667 10.0908 14.6667 7.33333C14.6667 4.57583 12.4242 2.33332 9.66667 2.33332Z" fill="#222222"/>
</svg>
