<svg width="17" height="17" viewBox="0 0 17 17" fill="none" xmlns="http://www.w3.org/2000/svg">
<rect width="17" height="17" fill="#E5E5E5"/>
<g filter="url(#filter0_d_221_1450)">
<g clip-path="url(#clip0_221_1450)">
<rect x="-32" y="-369" width="390" height="844" rx="15" fill="#F2F6FA"/>
<g filter="url(#filter1_d_221_1450)">
<rect x="-5" y="-261" width="163.705" height="270.635" rx="10" fill="#FEFEFF"/>
</g>
<g filter="url(#filter2_d_221_1450)">
<rect width="196" height="781" transform="translate(-32 -369)" fill="white"/>
<path d="M9.66667 14C8.18752 13.9997 6.751 13.5045 5.58584 12.5933L1.9225 16.2567L0.744168 15.0783L4.4075 11.415C3.49583 10.2497 3.00036 8.81286 3 7.33333C3 3.65749 5.99084 0.666656 9.66667 0.666656C13.3425 0.666656 16.3333 3.65749 16.3333 7.33333C16.3333 11.0092 13.3425 14 9.66667 14ZM9.66667 2.33332C6.90917 2.33332 4.66667 4.57583 4.66667 7.33333C4.66667 10.0908 6.90917 12.3333 9.66667 12.3333C12.4242 12.3333 14.6667 10.0908 14.6667 7.33333C14.6667 4.57583 12.4242 2.33332 9.66667 2.33332Z" fill="#222222"/>
<path d="M8.49 6.15501C8.17417 6.47168 8 6.89001 8 7.33334H6.33334C6.3326 6.89536 6.41868 6.46159 6.58661 6.05708C6.75453 5.65257 7.00097 5.28536 7.31167 4.97668C8.57334 3.71668 10.7608 3.71668 12.0217 4.97668L10.845 6.15668C10.2117 5.52501 9.12 5.52668 8.49 6.15501Z" fill="#222222"/>
</g>
</g>
</g>
<defs>
<filter id="filter0_d_221_1450" x="-79" y="-412" width="484" height="938" filterUnits="userSpaceOnUse" color-interpolation-filters="sRGB">
<feFlood flood-opacity="0" result="BackgroundImageFix"/>
<feColorMatrix in="SourceAlpha" type="matrix" values="0 0 0 0 0 0 0 0 0 0 0 0 0 0 0 0 0 0 127 0" result="hardAlpha"/>
<feOffset dy="4"/>
<feGaussianBlur stdDeviation="23.5"/>
<feComposite in2="hardAlpha" operator="out"/>
<feColorMatrix type="matrix" values="0 0 0 0 0 0 0 0 0 0 0 0 0 0 0 0 0 0 0.25 0"/>
<feBlend mode="normal" in2="BackgroundImageFix" result="effect1_dropShadow_221_1450"/>
<feBlend mode="normal" in="SourceGraphic" in2="effect1_dropShadow_221_1450" result="shape"/>
</filter>
<filter id="filter1_d_221_1450" x="-13" y="-269" width="179.705" height="286.635" filterUnits="userSpaceOnUse" color-interpolation-filters="sRGB">
<feFlood flood-opacity="0" result="BackgroundImageFix"/>
<feColorMatrix in="SourceAlpha" type="matrix" values="0 0 0 0 0 0 0 0 0 0 0 0 0 0 0 0 0 0 127 0" result="hardAlpha"/>
<feOffset/>
<feGaussianBlur stdDeviation="4"/>
<feComposite in2="hardAlpha" operator="out"/>
<feColorMatrix type="matrix" values="0 0 0 0 0 0 0 0 0 0 0 0 0 0 0 0 0 0 0.2 0"/>
<feBlend mode="normal" in2="BackgroundImageFix" result="effect1_dropShadow_221_1450"/>
<feBlend mode="normal" in="SourceGraphic" in2="effect1_dropShadow_221_1450" result="shape"/>
</filter>
<filter id="filter2_d_221_1450" x="-32" y="-369" width="396" height="781" filterUnits="userSpaceOnUse" color-interpolation-filters="sRGB">
<feFlood flood-opacity="0" result="BackgroundImageFix"/>
<feColorMatrix in="SourceAlpha" type="matrix" values="0 0 0 0 0 0 0 0 0 0 0 0 0 0 0 0 0 0 127 0" result="hardAlpha"/>
<feOffset dx="200"/>
<feComposite in2="hardAlpha" operator="out"/>
<feColorMatrix type="matrix" values="0 0 0 0 0 0 0 0 0 0 0 0 0 0 0 0 0 0 0.25 0"/>
<feBlend mode="normal" in2="BackgroundImageFix" result="effect1_dropShadow_221_1450"/>
<feBlend mode="normal" in="SourceGraphic" in2="effect1_dropShadow_221_1450" result="shape"/>
</filter>
<clipPath id="clip0_221_1450">
<rect x="-32" y="-369" width="390" height="844" rx="15" fill="white"/>
</clipPath>
</defs>
</svg>
