<svg width="8" height="10" viewBox="0 0 8 10" fill="none" xmlns="http://www.w3.org/2000/svg">
<path d="M4 4.16667C2.33333 4.16667 2.33333 3.64167 2.33333 3.33333C2.33333 3.025 2.91666 2.5 4 2.5C5.08333 2.5 5.15833 3.03333 5.16666 3.33333H6.83333C6.82206 2.76563 6.61788 2.21867 6.25437 1.78246C5.89087 1.34625 5.3897 1.04678 4.83333 0.933333V0H3.16666V0.908333C1.5 1.18333 0.666664 2.25833 0.666664 3.33333C0.666664 4.26667 1.1 5.83333 4 5.83333C5.66666 5.83333 5.66666 6.4 5.66666 6.66667C5.66666 6.93333 5.15 7.5 4 7.5C2.46666 7.5 2.33333 6.78333 2.33333 6.66667H0.666664C0.666664 7.43333 1.21666 8.79167 3.16666 9.1V10H4.83333V9.1C6.49999 8.81667 7.33333 7.74167 7.33333 6.66667C7.33333 5.73333 6.89999 4.16667 4 4.16667Z" fill="#222222"/>
</svg>
