<svg width="18" height="18" viewBox="0 0 18 18" fill="none" xmlns="http://www.w3.org/2000/svg">
<path d="M9 0.666672C4.405 0.666672 0.666664 4.40501 0.666664 9.00001V12.4525C0.666664 13.3058 1.41416 14 2.33333 14H3.16666C3.38768 14 3.59964 13.9122 3.75592 13.7559C3.9122 13.5997 4 13.3877 4 13.1667V8.88084C4 8.65983 3.9122 8.44786 3.75592 8.29158C3.59964 8.1353 3.38768 8.04751 3.16666 8.04751H2.41C2.87333 4.82251 5.64833 2.33334 9 2.33334C12.3517 2.33334 15.1267 4.82251 15.59 8.04751H14.8333C14.6123 8.04751 14.4004 8.1353 14.2441 8.29158C14.0878 8.44786 14 8.65983 14 8.88084V14C14 14.9192 13.2525 15.6667 12.3333 15.6667H10.6667V14.8333H7.33333V17.3333H12.3333C14.1717 17.3333 15.6667 15.8383 15.6667 14C16.5858 14 17.3333 13.3058 17.3333 12.4525V9.00001C17.3333 4.40501 13.595 0.666672 9 0.666672Z" fill="#222222"/>
</svg>
