<svg width="10" height="9" viewBox="0 0 10 9" fill="none" xmlns="http://www.w3.org/2000/svg">
<path d="M3.99987 5.5H5.99987V2.5H7.49987L4.99987 0L2.49987 2.5H3.99987V5.5ZM9.66887 6.266C9.56388 6.154 8.86337 5.4045 8.66337 5.209C8.52322 5.07465 8.33652 4.99975 8.14237 5H7.26387L8.79587 6.497H7.02387C6.99979 6.49655 6.97602 6.50247 6.95495 6.51414C6.93388 6.52582 6.91626 6.54284 6.90387 6.5635L6.49587 7.49999H3.50387L3.09587 6.5635C3.0834 6.54291 3.06577 6.52594 3.04472 6.51428C3.02367 6.50261 2.99993 6.49665 2.97587 6.497H1.20387L2.73537 5H1.85737C1.65887 5 1.46937 5.0795 1.33637 5.209C1.13637 5.405 0.435869 6.1545 0.330869 6.266C0.0863685 6.52649 -0.0481316 6.73399 0.0158684 6.9905L0.296369 8.52749C0.360369 8.78449 0.641869 8.99549 0.922369 8.99549H9.07837C9.35888 8.99549 9.64038 8.78449 9.70438 8.52749L9.98487 6.9905C10.0479 6.73399 9.91388 6.52649 9.66887 6.266Z" fill="#222222"/>
</svg>
